<svg width="330" height="222" viewBox="0 0 330 222" fill="none" xmlns="http://www.w3.org/2000/svg">
<g clip-path="url(#clip0_5493_362)">
<path d="M31.972 32.92H33.388V35.788C32.596 36.66 31.464 37.096 29.992 37.096C28.752 37.096 27.712 36.688 26.872 35.872C26.04 35.056 25.624 34.024 25.624 32.776C25.624 31.528 26.048 30.488 26.896 29.656C27.752 28.824 28.784 28.408 29.992 28.408C31.2 28.408 32.204 28.76 33.004 29.464L32.248 30.544C31.92 30.264 31.588 30.072 31.252 29.968C30.924 29.856 30.54 29.8 30.1 29.8C29.252 29.8 28.54 30.076 27.964 30.628C27.388 31.172 27.1 31.892 27.1 32.788C27.1 33.676 27.38 34.392 27.94 34.936C28.5 35.472 29.176 35.74 29.968 35.74C30.768 35.74 31.436 35.568 31.972 35.224V32.92ZM36.742 35.32C37.126 35.704 37.61 35.896 38.194 35.896C38.778 35.896 39.258 35.704 39.634 35.32C40.018 34.928 40.21 34.424 40.21 33.808C40.21 33.192 40.018 32.692 39.634 32.308C39.258 31.916 38.778 31.72 38.194 31.72C37.61 31.72 37.126 31.916 36.742 32.308C36.366 32.692 36.178 33.192 36.178 33.808C36.178 34.424 36.366 34.928 36.742 35.32ZM40.594 36.148C39.954 36.78 39.154 37.096 38.194 37.096C37.234 37.096 36.434 36.78 35.794 36.148C35.154 35.508 34.834 34.728 34.834 33.808C34.834 32.888 35.154 32.112 35.794 31.48C36.434 30.84 37.234 30.52 38.194 30.52C39.154 30.52 39.954 30.84 40.594 31.48C41.234 32.112 41.554 32.888 41.554 33.808C41.554 34.728 41.234 35.508 40.594 36.148ZM44.7702 35.32C45.1542 35.704 45.6382 35.896 46.2222 35.896C46.8062 35.896 47.2862 35.704 47.6622 35.32C48.0462 34.928 48.2382 34.424 48.2382 33.808C48.2382 33.192 48.0462 32.692 47.6622 32.308C47.2862 31.916 46.8062 31.72 46.2222 31.72C45.6382 31.72 45.1542 31.916 44.7702 32.308C44.3942 32.692 44.2062 33.192 44.2062 33.808C44.2062 34.424 44.3942 34.928 44.7702 35.32ZM48.6222 36.148C47.9822 36.78 47.1822 37.096 46.2222 37.096C45.2622 37.096 44.4622 36.78 43.8222 36.148C43.1822 35.508 42.8622 34.728 42.8622 33.808C42.8622 32.888 43.1822 32.112 43.8222 31.48C44.4622 30.84 45.2622 30.52 46.2222 30.52C47.1822 30.52 47.9822 30.84 48.6222 31.48C49.2622 32.112 49.5822 32.888 49.5822 33.808C49.5822 34.728 49.2622 35.508 48.6222 36.148ZM57.2143 30.616V36.184C57.2143 37.312 56.9063 38.156 56.2903 38.716C55.6823 39.284 54.8983 39.568 53.9383 39.568C52.9783 39.568 52.1103 39.268 51.3343 38.668L51.9703 37.648C52.5943 38.12 53.2223 38.356 53.8543 38.356C54.4943 38.356 54.9983 38.192 55.3663 37.864C55.7423 37.536 55.9303 37.012 55.9303 36.292V35.476C55.7303 35.852 55.4423 36.152 55.0663 36.376C54.6983 36.6 54.2823 36.712 53.8183 36.712C52.9703 36.712 52.2743 36.416 51.7303 35.824C51.1863 35.232 50.9143 34.496 50.9143 33.616C50.9143 32.736 51.1863 32 51.7303 31.408C52.2743 30.816 52.9663 30.52 53.8063 30.52C54.6543 30.52 55.3423 30.868 55.8703 31.564V30.616H57.2143ZM52.2343 33.568C52.2343 34.088 52.3943 34.54 52.7143 34.924C53.0423 35.3 53.4783 35.488 54.0223 35.488C54.5743 35.488 55.0183 35.304 55.3543 34.936C55.6983 34.568 55.8703 34.112 55.8703 33.568C55.8703 33.016 55.6983 32.552 55.3543 32.176C55.0103 31.792 54.5663 31.6 54.0223 31.6C53.4783 31.6 53.0423 31.796 52.7143 32.188C52.3943 32.58 52.2343 33.04 52.2343 33.568ZM60.7058 37H59.3618V28.096H60.7058V37ZM68.7948 34.396H63.7908C63.8228 34.86 64.0348 35.236 64.4268 35.524C64.8188 35.804 65.2668 35.944 65.7708 35.944C66.5708 35.944 67.1788 35.692 67.5948 35.188L68.3628 36.028C67.6748 36.74 66.7788 37.096 65.6748 37.096C64.7788 37.096 64.0148 36.8 63.3828 36.208C62.7588 35.608 62.4468 34.808 62.4468 33.808C62.4468 32.8 62.7668 32 63.4068 31.408C64.0468 30.816 64.7988 30.52 65.6628 30.52C66.5348 30.52 67.2748 30.784 67.8828 31.312C68.4908 31.832 68.7948 32.552 68.7948 33.472V34.396ZM63.7908 33.34H67.4508C67.4508 32.804 67.2828 32.392 66.9468 32.104C66.6108 31.816 66.1948 31.672 65.6988 31.672C65.2108 31.672 64.7708 31.824 64.3788 32.128C63.9868 32.424 63.7908 32.828 63.7908 33.34Z" fill="#8EC2F2"/>
<path d="M89.332 29.908V37H87.916V29.908H85.372V28.612H91.876V29.908H89.332ZM96.7622 31.876C96.0982 31.876 95.5982 32.092 95.2622 32.524C94.9262 32.956 94.7582 33.536 94.7582 34.264V37H93.4142V30.616H94.7582V31.9C94.9742 31.5 95.2662 31.172 95.6342 30.916C96.0102 30.66 96.4062 30.528 96.8222 30.52L96.8342 31.876C96.8102 31.876 96.7862 31.876 96.7622 31.876ZM104.324 34.396H99.3197C99.3517 34.86 99.5637 35.236 99.9557 35.524C100.348 35.804 100.796 35.944 101.3 35.944C102.1 35.944 102.708 35.692 103.124 35.188L103.892 36.028C103.204 36.74 102.308 37.096 101.204 37.096C100.308 37.096 99.5437 36.8 98.9117 36.208C98.2877 35.608 97.9757 34.808 97.9757 33.808C97.9757 32.8 98.2957 32 98.9357 31.408C99.5757 30.816 100.328 30.52 101.192 30.52C102.064 30.52 102.804 30.784 103.412 31.312C104.02 31.832 104.324 32.552 104.324 33.472V34.396ZM99.3197 33.34H102.98C102.98 32.804 102.812 32.392 102.476 32.104C102.14 31.816 101.724 31.672 101.228 31.672C100.74 31.672 100.3 31.824 99.9077 32.128C99.5157 32.424 99.3197 32.828 99.3197 33.34ZM107.346 33.544V37H106.002V30.616H107.346V31.78C107.562 31.388 107.858 31.08 108.234 30.856C108.618 30.632 109.03 30.52 109.47 30.52C110.19 30.52 110.77 30.74 111.21 31.18C111.658 31.62 111.882 32.256 111.882 33.088V37H110.538V33.496C110.538 32.32 110.05 31.732 109.074 31.732C108.61 31.732 108.206 31.888 107.862 32.2C107.518 32.504 107.346 32.952 107.346 33.544ZM116.563 37.096C115.755 37.096 115.051 36.792 114.451 36.184C113.851 35.576 113.551 34.776 113.551 33.784C113.551 32.792 113.859 32 114.475 31.408C115.091 30.816 115.823 30.52 116.671 30.52C117.527 30.52 118.215 30.88 118.735 31.6V28.096H120.079V37H118.735V36.04C118.239 36.744 117.515 37.096 116.563 37.096ZM114.895 33.844C114.895 34.452 115.091 34.948 115.483 35.332C115.875 35.716 116.335 35.908 116.863 35.908C117.391 35.908 117.839 35.716 118.207 35.332C118.575 34.94 118.759 34.44 118.759 33.832C118.759 33.224 118.575 32.716 118.207 32.308C117.839 31.9 117.387 31.696 116.851 31.696C116.315 31.696 115.855 31.9 115.471 32.308C115.087 32.716 114.895 33.228 114.895 33.844ZM123.566 37H122.222V30.616H123.566V37ZM122.306 29.344C122.138 29.176 122.054 28.976 122.054 28.744C122.054 28.512 122.138 28.312 122.306 28.144C122.474 27.976 122.674 27.892 122.906 27.892C123.138 27.892 123.338 27.976 123.506 28.144C123.674 28.312 123.758 28.512 123.758 28.744C123.758 28.976 123.674 29.176 123.506 29.344C123.338 29.512 123.138 29.596 122.906 29.596C122.674 29.596 122.474 29.512 122.306 29.344ZM127.059 33.544V37H125.715V30.616H127.059V31.78C127.275 31.388 127.571 31.08 127.947 30.856C128.331 30.632 128.743 30.52 129.183 30.52C129.903 30.52 130.483 30.74 130.923 31.18C131.371 31.62 131.595 32.256 131.595 33.088V37H130.251V33.496C130.251 32.32 129.763 31.732 128.787 31.732C128.323 31.732 127.919 31.888 127.575 32.2C127.231 32.504 127.059 32.952 127.059 33.544ZM139.577 30.616V36.184C139.577 37.312 139.269 38.156 138.653 38.716C138.045 39.284 137.261 39.568 136.301 39.568C135.341 39.568 134.473 39.268 133.697 38.668L134.333 37.648C134.957 38.12 135.585 38.356 136.217 38.356C136.857 38.356 137.361 38.192 137.729 37.864C138.105 37.536 138.293 37.012 138.293 36.292V35.476C138.093 35.852 137.805 36.152 137.429 36.376C137.061 36.6 136.645 36.712 136.181 36.712C135.333 36.712 134.637 36.416 134.093 35.824C133.549 35.232 133.277 34.496 133.277 33.616C133.277 32.736 133.549 32 134.093 31.408C134.637 30.816 135.329 30.52 136.169 30.52C137.017 30.52 137.705 30.868 138.233 31.564V30.616H139.577ZM134.597 33.568C134.597 34.088 134.757 34.54 135.077 34.924C135.405 35.3 135.841 35.488 136.385 35.488C136.937 35.488 137.381 35.304 137.717 34.936C138.061 34.568 138.233 34.112 138.233 33.568C138.233 33.016 138.061 32.552 137.717 32.176C137.373 31.792 136.929 31.6 136.385 31.6C135.841 31.6 135.405 31.796 135.077 32.188C134.757 32.58 134.597 33.04 134.597 33.568Z" fill="#737373"/>
<path d="M163.452 28.612H164.868V37H163.332L158.58 30.88V37H157.164V28.612H158.58L163.452 34.876V28.612ZM173.143 34.396H168.139C168.171 34.86 168.383 35.236 168.775 35.524C169.167 35.804 169.615 35.944 170.119 35.944C170.919 35.944 171.527 35.692 171.943 35.188L172.711 36.028C172.023 36.74 171.127 37.096 170.023 37.096C169.127 37.096 168.363 36.8 167.731 36.208C167.107 35.608 166.795 34.808 166.795 33.808C166.795 32.8 167.115 32 167.755 31.408C168.395 30.816 169.147 30.52 170.011 30.52C170.883 30.52 171.623 30.784 172.231 31.312C172.839 31.832 173.143 32.552 173.143 33.472V34.396ZM168.139 33.34H171.799C171.799 32.804 171.631 32.392 171.295 32.104C170.959 31.816 170.543 31.672 170.047 31.672C169.559 31.672 169.119 31.824 168.727 32.128C168.335 32.424 168.139 32.828 168.139 33.34ZM177.809 37H176.273L174.065 30.616H175.457L177.041 35.44L178.625 30.616H180.017L181.601 35.44L183.185 30.616H184.577L182.369 37H180.833L179.321 32.632L177.809 37Z" fill="#737373"/>
</g>
<path d="M26.94 73V59.02H29.3V70.76H35.68V73H26.94ZM40.4523 70.2C41.0923 70.84 41.899 71.16 42.8723 71.16C43.8457 71.16 44.6457 70.84 45.2723 70.2C45.9123 69.5467 46.2323 68.7067 46.2323 67.68C46.2323 66.6533 45.9123 65.82 45.2723 65.18C44.6457 64.5267 43.8457 64.2 42.8723 64.2C41.899 64.2 41.0923 64.5267 40.4523 65.18C39.8257 65.82 39.5123 66.6533 39.5123 67.68C39.5123 68.7067 39.8257 69.5467 40.4523 70.2ZM46.8723 71.58C45.8057 72.6333 44.4723 73.16 42.8723 73.16C41.2723 73.16 39.939 72.6333 38.8723 71.58C37.8057 70.5133 37.2723 69.2133 37.2723 67.68C37.2723 66.1467 37.8057 64.8533 38.8723 63.8C39.939 62.7333 41.2723 62.2 42.8723 62.2C44.4723 62.2 45.8057 62.7333 46.8723 63.8C47.939 64.8533 48.4723 66.1467 48.4723 67.68C48.4723 69.2133 47.939 70.5133 46.8723 71.58ZM58.6592 68.12V62.36H60.8992V73H58.6592V71.06C58.2992 71.7133 57.7992 72.2267 57.1592 72.6C56.5326 72.9733 55.8526 73.16 55.1192 73.16C53.9192 73.16 52.9459 72.7933 52.1992 72.06C51.4659 71.3267 51.0992 70.2667 51.0992 68.88V62.36H53.3392V68.2C53.3392 70.16 54.1526 71.14 55.7792 71.14C56.5526 71.14 57.2259 70.8867 57.7992 70.38C58.3726 69.86 58.6592 69.1067 58.6592 68.12ZM68.6889 73.16C67.3422 73.16 66.1689 72.6533 65.1689 71.64C64.1689 70.6267 63.6689 69.2933 63.6689 67.64C63.6689 65.9867 64.1822 64.6667 65.2089 63.68C66.2356 62.6933 67.4556 62.2 68.8689 62.2C70.2956 62.2 71.4422 62.8 72.3089 64V58.16H74.5489V73H72.3089V71.4C71.4822 72.5733 70.2756 73.16 68.6889 73.16ZM65.9089 67.74C65.9089 68.7533 66.2356 69.58 66.8889 70.22C67.5422 70.86 68.3089 71.18 69.1889 71.18C70.0689 71.18 70.8156 70.86 71.4289 70.22C72.0422 69.5667 72.3489 68.7333 72.3489 67.72C72.3489 66.7067 72.0422 65.86 71.4289 65.18C70.8156 64.5 70.0622 64.16 69.1689 64.16C68.2756 64.16 67.5089 64.5 66.8689 65.18C66.2289 65.86 65.9089 66.7133 65.9089 67.74ZM87.8864 68.66H79.5464C79.5997 69.4333 79.9531 70.06 80.6064 70.54C81.2597 71.0067 82.0064 71.24 82.8464 71.24C84.1797 71.24 85.1931 70.82 85.8864 69.98L87.1664 71.38C86.0197 72.5667 84.5264 73.16 82.6864 73.16C81.1931 73.16 79.9197 72.6667 78.8664 71.68C77.8264 70.68 77.3064 69.3467 77.3064 67.68C77.3064 66 77.8397 64.6667 78.9064 63.68C79.9731 62.6933 81.2264 62.2 82.6664 62.2C84.1197 62.2 85.3531 62.64 86.3664 63.52C87.3797 64.3867 87.8864 65.5867 87.8864 67.12V68.66ZM79.5464 66.9H85.6464C85.6464 66.0067 85.3664 65.32 84.8064 64.84C84.2464 64.36 83.5531 64.12 82.7264 64.12C81.9131 64.12 81.1797 64.3733 80.5264 64.88C79.8731 65.3733 79.5464 66.0467 79.5464 66.9ZM98.1297 69.82C98.1297 70.8333 97.763 71.6467 97.0297 72.26C96.2964 72.86 95.3564 73.16 94.2097 73.16C93.4364 73.16 92.6297 73.02 91.7897 72.74C90.963 72.46 90.2297 72.0667 89.5897 71.56L90.6697 69.82C91.9097 70.7533 93.1097 71.22 94.2697 71.22C94.7764 71.22 95.1764 71.1067 95.4697 70.88C95.763 70.64 95.9097 70.34 95.9097 69.98C95.9097 69.4467 95.203 68.9667 93.7897 68.54C93.683 68.5 93.603 68.4733 93.5497 68.46C91.3364 67.86 90.2297 66.86 90.2297 65.46C90.2297 64.4733 90.6097 63.6867 91.3697 63.1C92.143 62.5 93.143 62.2 94.3697 62.2C95.5964 62.2 96.7564 62.56 97.8497 63.28L97.0097 64.94C96.143 64.3667 95.203 64.08 94.1897 64.08C93.6564 64.08 93.223 64.18 92.8897 64.38C92.5564 64.5667 92.3897 64.8533 92.3897 65.24C92.3897 65.5867 92.563 65.84 92.9097 66C93.1497 66.12 93.483 66.2333 93.9097 66.34C94.3497 66.4467 94.7364 66.5533 95.0697 66.66C95.403 66.7667 95.723 66.8867 96.0297 67.02C96.3497 67.1533 96.6897 67.34 97.0497 67.58C97.7697 68.06 98.1297 68.8067 98.1297 69.82ZM103.627 64.16V69.56C103.627 70.0667 103.76 70.4733 104.027 70.78C104.294 71.0733 104.667 71.22 105.147 71.22C105.627 71.22 106.087 70.9867 106.527 70.52L107.447 72.1C106.66 72.8067 105.787 73.16 104.827 73.16C103.88 73.16 103.067 72.8333 102.387 72.18C101.72 71.5133 101.387 70.62 101.387 69.5V64.16H100.047V62.36H101.387V59.02H103.627V62.36H106.427V64.16H103.627ZM123.735 73H121.695V71.58C120.815 72.6333 119.635 73.16 118.155 73.16C117.048 73.16 116.128 72.8467 115.395 72.22C114.675 71.5933 114.315 70.76 114.315 69.72C114.315 68.6667 114.701 67.88 115.475 67.36C116.248 66.84 117.295 66.58 118.615 66.58H121.515V66.18C121.515 64.7667 120.728 64.06 119.155 64.06C118.168 64.06 117.141 64.42 116.075 65.14L115.075 63.74C116.368 62.7133 117.835 62.2 119.475 62.2C120.728 62.2 121.748 62.52 122.535 63.16C123.335 63.7867 123.735 64.78 123.735 66.14V73ZM121.495 69.04V68.14H118.975C117.361 68.14 116.555 68.6467 116.555 69.66C116.555 70.18 116.755 70.58 117.155 70.86C117.555 71.1267 118.108 71.26 118.815 71.26C119.535 71.26 120.161 71.06 120.695 70.66C121.228 70.26 121.495 69.72 121.495 69.04ZM121.175 61H119.135L116.695 59.08L119.055 58.1L121.175 61ZM134.981 73H132.741V58.16H134.981V73ZM147.049 73H145.009V71.58C144.129 72.6333 142.949 73.16 141.469 73.16C140.363 73.16 139.443 72.8467 138.709 72.22C137.989 71.5933 137.629 70.76 137.629 69.72C137.629 68.6667 138.016 67.88 138.789 67.36C139.563 66.84 140.609 66.58 141.929 66.58H144.829V66.18C144.829 64.7667 144.043 64.06 142.469 64.06C141.483 64.06 140.456 64.42 139.389 65.14L138.389 63.74C139.683 62.7133 141.149 62.2 142.789 62.2C144.043 62.2 145.063 62.52 145.849 63.16C146.649 63.7867 147.049 64.78 147.049 66.14V73ZM144.809 69.04V68.14H142.289C140.676 68.14 139.869 68.6467 139.869 69.66C139.869 70.18 140.069 70.58 140.469 70.86C140.869 71.1267 141.423 71.26 142.129 71.26C142.849 71.26 143.476 71.06 144.009 70.66C144.543 70.26 144.809 69.72 144.809 69.04ZM158.736 73H156.376V59.02H160.056L164.276 67.8L168.496 59.02H172.156V73H169.796V62.08L164.916 71.78H163.596L158.736 62.08V73ZM184.544 73H182.504V71.58C181.624 72.6333 180.444 73.16 178.964 73.16C177.857 73.16 176.937 72.8467 176.204 72.22C175.484 71.5933 175.124 70.76 175.124 69.72C175.124 68.6667 175.511 67.88 176.284 67.36C177.057 66.84 178.104 66.58 179.424 66.58H182.324V66.18C182.324 64.7667 181.537 64.06 179.964 64.06C178.977 64.06 177.951 64.42 176.884 65.14L175.884 63.74C177.177 62.7133 178.644 62.2 180.284 62.2C181.537 62.2 182.557 62.52 183.344 63.16C184.144 63.7867 184.544 64.78 184.544 66.14V73ZM182.304 69.04V68.14H179.784C178.171 68.14 177.364 68.6467 177.364 69.66C177.364 70.18 177.564 70.58 177.964 70.86C178.364 71.1267 178.917 71.26 179.624 71.26C180.344 71.26 180.971 71.06 181.504 70.66C182.037 70.26 182.304 69.72 182.304 69.04ZM192.202 73.16C190.856 73.16 189.682 72.6533 188.682 71.64C187.682 70.6267 187.182 69.2933 187.182 67.64C187.182 65.9867 187.696 64.6667 188.722 63.68C189.749 62.6933 190.969 62.2 192.382 62.2C193.809 62.2 194.956 62.8 195.822 64V58.16H198.062V73H195.822V71.4C194.996 72.5733 193.789 73.16 192.202 73.16ZM189.422 67.74C189.422 68.7533 189.749 69.58 190.402 70.22C191.056 70.86 191.822 71.18 192.702 71.18C193.582 71.18 194.329 70.86 194.942 70.22C195.556 69.5667 195.862 68.7333 195.862 67.72C195.862 66.7067 195.556 65.86 194.942 65.18C194.329 64.5 193.576 64.16 192.682 64.16C191.789 64.16 191.022 64.5 190.382 65.18C189.742 65.86 189.422 66.7133 189.422 67.74ZM203.74 73H201.5V62.36H203.74V73ZM201.64 60.24C201.36 59.96 201.22 59.6267 201.22 59.24C201.22 58.8533 201.36 58.52 201.64 58.24C201.92 57.96 202.253 57.82 202.64 57.82C203.026 57.82 203.36 57.96 203.64 58.24C203.92 58.52 204.06 58.8533 204.06 59.24C204.06 59.6267 203.92 59.96 203.64 60.24C203.36 60.52 203.026 60.66 202.64 60.66C202.253 60.66 201.92 60.52 201.64 60.24ZM214.768 69.82C214.768 70.8333 214.401 71.6467 213.668 72.26C212.935 72.86 211.995 73.16 210.848 73.16C210.075 73.16 209.268 73.02 208.428 72.74C207.601 72.46 206.868 72.0667 206.228 71.56L207.308 69.82C208.548 70.7533 209.748 71.22 210.908 71.22C211.415 71.22 211.815 71.1067 212.108 70.88C212.401 70.64 212.548 70.34 212.548 69.98C212.548 69.4467 211.841 68.9667 210.428 68.54C210.321 68.5 210.241 68.4733 210.188 68.46C207.975 67.86 206.868 66.86 206.868 65.46C206.868 64.4733 207.248 63.6867 208.008 63.1C208.781 62.5 209.781 62.2 211.008 62.2C212.235 62.2 213.395 62.56 214.488 63.28L213.648 64.94C212.781 64.3667 211.841 64.08 210.828 64.08C210.295 64.08 209.861 64.18 209.528 64.38C209.195 64.5667 209.028 64.8533 209.028 65.24C209.028 65.5867 209.201 65.84 209.548 66C209.788 66.12 210.121 66.2333 210.548 66.34C210.988 66.4467 211.375 66.5533 211.708 66.66C212.041 66.7667 212.361 66.8867 212.668 67.02C212.988 67.1533 213.328 67.34 213.688 67.58C214.408 68.06 214.768 68.8067 214.768 69.82ZM219.985 70.2C220.625 70.84 221.432 71.16 222.405 71.16C223.378 71.16 224.178 70.84 224.805 70.2C225.445 69.5467 225.765 68.7067 225.765 67.68C225.765 66.6533 225.445 65.82 224.805 65.18C224.178 64.5267 223.378 64.2 222.405 64.2C221.432 64.2 220.625 64.5267 219.985 65.18C219.358 65.82 219.045 66.6533 219.045 67.68C219.045 68.7067 219.358 69.5467 219.985 70.2ZM226.405 71.58C225.338 72.6333 224.005 73.16 222.405 73.16C220.805 73.16 219.472 72.6333 218.405 71.58C217.338 70.5133 216.805 69.2133 216.805 67.68C216.805 66.1467 217.338 64.8533 218.405 63.8C219.472 62.7333 220.805 62.2 222.405 62.2C224.005 62.2 225.338 62.7333 226.405 63.8C227.472 64.8533 228.005 66.1467 228.005 67.68C228.005 69.2133 227.472 70.5133 226.405 71.58ZM232.992 67.24V73H230.752V62.36H232.992V64.3C233.352 63.6467 233.845 63.1333 234.472 62.76C235.112 62.3867 235.799 62.2 236.532 62.2C237.732 62.2 238.699 62.5667 239.432 63.3C240.179 64.0333 240.552 65.0933 240.552 66.48V73H238.312V67.16C238.312 65.2 237.499 64.22 235.872 64.22C235.099 64.22 234.425 64.48 233.852 65C233.279 65.5067 232.992 66.2533 232.992 67.24ZM261.37 64.28H259.21L258.63 67.6H261.09L260.65 69.8H258.27L257.71 73H255.49L256.05 69.8H253.11L252.55 73H250.31L250.87 69.8H248.81L249.25 67.6H251.25L251.83 64.28H249.55L249.99 62.08H252.21L252.79 58.68H255.01L254.43 62.08H257.37L257.95 58.68H260.19L259.57 62.08H261.81L261.37 64.28ZM257.01 64.28H254.07L253.47 67.6H256.41L257.01 64.28ZM263.437 59.02H268.517V73H266.277V61.12H263.437V59.02ZM29.02 91.98C28.4867 93.6333 28.22 95.2267 28.22 96.76C28.22 98.2933 28.4867 99.8933 29.02 101.56C29.5533 103.213 30.2067 104.58 30.98 105.66H28.6C27.9467 104.753 27.3467 103.46 26.8 101.78C26.2667 100.1 26 98.4267 26 96.76C26 95.0933 26.2667 93.42 26.8 91.74C27.3467 90.06 27.9467 88.7667 28.6 87.86H30.98C30.2067 88.94 29.5533 90.3133 29.02 91.98ZM33.7806 103V89.02H36.1406V100.76H42.5206V103H33.7806ZM43.1705 93.94V89.02H44.7305V93.94H43.1705ZM50.3389 103H48.0989V92.36H50.3389V103ZM48.2389 90.24C47.9589 89.96 47.8189 89.6267 47.8189 89.24C47.8189 88.8533 47.9589 88.52 48.2389 88.24C48.5189 87.96 48.8522 87.82 49.2389 87.82C49.6256 87.82 49.9589 87.96 50.2389 88.24C50.5189 88.52 50.6589 88.8533 50.6589 89.24C50.6589 89.6267 50.5189 89.96 50.2389 90.24C49.9589 90.52 49.6256 90.66 49.2389 90.66C48.8522 90.66 48.5189 90.52 48.2389 90.24ZM56.0272 97.24V103H53.7872V92.36H56.0272V94.3C56.3872 93.6467 56.8805 93.1333 57.5072 92.76C58.1472 92.3867 58.8339 92.2 59.5672 92.2C60.7672 92.2 61.7339 92.5667 62.4672 93.3C63.2139 94.0333 63.5872 95.0933 63.5872 96.48V103H61.3472V97.16C61.3472 95.2 60.5339 94.22 58.9072 94.22C58.1339 94.22 57.4605 94.48 56.8872 95C56.3139 95.5067 56.0272 96.2533 56.0272 97.24ZM69.5402 94.16V99.56C69.5402 100.067 69.6735 100.473 69.9402 100.78C70.2068 101.073 70.5802 101.22 71.0602 101.22C71.5402 101.22 72.0002 100.987 72.4402 100.52L73.3602 102.1C72.5735 102.807 71.7002 103.16 70.7402 103.16C69.7935 103.16 68.9802 102.833 68.3002 102.18C67.6335 101.513 67.3002 100.62 67.3002 99.5V94.16H65.9602V92.36H67.3002V89.02H69.5402V92.36H72.3402V94.16H69.5402ZM85.2395 98.66H76.8995C76.9529 99.4333 77.3062 100.06 77.9595 100.54C78.6129 101.007 79.3595 101.24 80.1995 101.24C81.5329 101.24 82.5462 100.82 83.2395 99.98L84.5195 101.38C83.3729 102.567 81.8795 103.16 80.0395 103.16C78.5462 103.16 77.2729 102.667 76.2195 101.68C75.1795 100.68 74.6595 99.3467 74.6595 97.68C74.6595 96 75.1929 94.6667 76.2595 93.68C77.3262 92.6933 78.5795 92.2 80.0195 92.2C81.4729 92.2 82.7062 92.64 83.7195 93.52C84.7329 94.3867 85.2395 95.5867 85.2395 97.12V98.66ZM76.8995 96.9H82.9995C82.9995 96.0067 82.7195 95.32 82.1595 94.84C81.5995 94.36 80.9062 94.12 80.0795 94.12C79.2662 94.12 78.5329 94.3733 77.8795 94.88C77.2262 95.3733 76.8995 96.0467 76.8995 96.9ZM97.7428 92.36V101.64C97.7428 103.52 97.2295 104.927 96.2028 105.86C95.1895 106.807 93.8828 107.28 92.2828 107.28C90.6828 107.28 89.2361 106.78 87.9428 105.78L89.0028 104.08C90.0428 104.867 91.0895 105.26 92.1428 105.26C93.2095 105.26 94.0495 104.987 94.6628 104.44C95.2895 103.893 95.6028 103.02 95.6028 101.82V100.46C95.2695 101.087 94.7895 101.587 94.1628 101.96C93.5495 102.333 92.8561 102.52 92.0828 102.52C90.6695 102.52 89.5095 102.027 88.6028 101.04C87.6961 100.053 87.2428 98.8267 87.2428 97.36C87.2428 95.8933 87.6961 94.6667 88.6028 93.68C89.5095 92.6933 90.6628 92.2 92.0628 92.2C93.4761 92.2 94.6228 92.78 95.5028 93.94V92.36H97.7428ZM89.4428 97.28C89.4428 98.1467 89.7095 98.9 90.2428 99.54C90.7895 100.167 91.5161 100.48 92.4228 100.48C93.3428 100.48 94.0828 100.173 94.6428 99.56C95.2161 98.9467 95.5028 98.1867 95.5028 97.28C95.5028 96.36 95.2161 95.5867 94.6428 94.96C94.0695 94.32 93.3295 94 92.4228 94C91.5161 94 90.7895 94.3267 90.2428 94.98C89.7095 95.6333 89.4428 96.4 89.4428 97.28ZM106.769 94.46C105.662 94.46 104.829 94.82 104.269 95.54C103.709 96.26 103.429 97.2267 103.429 98.44V103H101.189V92.36H103.429V94.5C103.789 93.8333 104.275 93.2867 104.889 92.86C105.515 92.4333 106.175 92.2133 106.869 92.2L106.889 94.46C106.849 94.46 106.809 94.46 106.769 94.46ZM117.86 103H115.82V101.58C114.94 102.633 113.76 103.16 112.28 103.16C111.174 103.16 110.254 102.847 109.52 102.22C108.8 101.593 108.44 100.76 108.44 99.72C108.44 98.6667 108.827 97.88 109.6 97.36C110.374 96.84 111.42 96.58 112.74 96.58H115.64V96.18C115.64 94.7667 114.854 94.06 113.28 94.06C112.294 94.06 111.267 94.42 110.2 95.14L109.2 93.74C110.494 92.7133 111.96 92.2 113.6 92.2C114.854 92.2 115.874 92.52 116.66 93.16C117.46 93.7867 117.86 94.78 117.86 96.14V103ZM115.62 99.04V98.14H113.1C111.487 98.14 110.68 98.6467 110.68 99.66C110.68 100.18 110.88 100.58 111.28 100.86C111.68 101.127 112.234 101.26 112.94 101.26C113.66 101.26 114.287 101.06 114.82 100.66C115.354 100.26 115.62 99.72 115.62 99.04ZM123.419 103H121.179V88.16H123.419V103ZM127.867 101.56C128.4 99.8933 128.667 98.2933 128.667 96.76C128.667 95.2267 128.4 93.6333 127.867 91.98C127.334 90.3133 126.68 88.94 125.907 87.86H128.287C128.94 88.7667 129.534 90.06 130.067 91.74C130.614 93.42 130.887 95.0933 130.887 96.76C130.887 98.4267 130.614 100.1 130.067 101.78C129.534 103.46 128.94 104.753 128.287 105.66H125.907C126.68 104.58 127.334 103.213 127.867 101.56Z" fill="#252B42"/>
<path d="M29.41 133.256L31.594 126.214H33.078L35.262 133.256L37.726 126.214H39.504L36.088 136H34.45L32.392 129.294H32.28L30.222 136H28.584L25.168 126.214H26.946L29.41 133.256ZM47.9339 132.962H42.0959C42.1333 133.503 42.3806 133.942 42.8379 134.278C43.2953 134.605 43.8179 134.768 44.4059 134.768C45.3393 134.768 46.0486 134.474 46.5339 133.886L47.4299 134.866C46.6273 135.697 45.5819 136.112 44.2939 136.112C43.2486 136.112 42.3573 135.767 41.6199 135.076C40.8919 134.376 40.5279 133.443 40.5279 132.276C40.5279 131.1 40.9013 130.167 41.6479 129.476C42.3946 128.785 43.2719 128.44 44.2799 128.44C45.2973 128.44 46.1606 128.748 46.8699 129.364C47.5793 129.971 47.9339 130.811 47.9339 131.884V132.962ZM42.0959 131.73H46.3659C46.3659 131.105 46.1699 130.624 45.7779 130.288C45.3859 129.952 44.9006 129.784 44.3219 129.784C43.7526 129.784 43.2393 129.961 42.7819 130.316C42.3246 130.661 42.0959 131.133 42.0959 131.73ZM55.832 127.936V128.552H57.792V129.812H55.832V136H54.264V129.812H53.326V128.552H54.264V127.978C54.264 127.194 54.4973 126.573 54.964 126.116C55.44 125.649 56.0093 125.416 56.672 125.416C57.344 125.416 57.9553 125.663 58.506 126.158L57.862 127.264C57.554 126.937 57.232 126.774 56.896 126.774C56.56 126.774 56.2987 126.881 56.112 127.096C55.9253 127.301 55.832 127.581 55.832 127.936ZM61.0587 134.04C61.5067 134.488 62.0713 134.712 62.7527 134.712C63.434 134.712 63.994 134.488 64.4327 134.04C64.8807 133.583 65.1047 132.995 65.1047 132.276C65.1047 131.557 64.8807 130.974 64.4327 130.526C63.994 130.069 63.434 129.84 62.7527 129.84C62.0713 129.84 61.5067 130.069 61.0587 130.526C60.62 130.974 60.4007 131.557 60.4007 132.276C60.4007 132.995 60.62 133.583 61.0587 134.04ZM65.5527 135.006C64.806 135.743 63.8727 136.112 62.7527 136.112C61.6327 136.112 60.6993 135.743 59.9527 135.006C59.206 134.259 58.8327 133.349 58.8327 132.276C58.8327 131.203 59.206 130.297 59.9527 129.56C60.6993 128.813 61.6327 128.44 62.7527 128.44C63.8727 128.44 64.806 128.813 65.5527 129.56C66.2993 130.297 66.6727 131.203 66.6727 132.276C66.6727 133.349 66.2993 134.259 65.5527 135.006ZM71.9595 136.112C70.9235 136.112 70.0322 135.762 69.2855 135.062C68.5388 134.353 68.1655 133.429 68.1655 132.29C68.1655 131.151 68.5528 130.227 69.3275 129.518C70.1115 128.799 71.0635 128.44 72.1835 128.44C73.3035 128.44 74.2508 128.827 75.0255 129.602L74.1015 130.736C73.4575 130.176 72.8088 129.896 72.1555 129.896C71.5022 129.896 70.9328 130.115 70.4475 130.554C69.9715 130.983 69.7335 131.543 69.7335 132.234C69.7335 132.915 69.9715 133.494 70.4475 133.97C70.9235 134.446 71.5068 134.684 72.1975 134.684C72.8975 134.684 73.5555 134.367 74.1715 133.732L75.0955 134.74C74.1902 135.655 73.1448 136.112 71.9595 136.112ZM82.1299 132.584V128.552H83.6979V136H82.1299V134.642C81.8779 135.099 81.5279 135.459 81.0799 135.72C80.6412 135.981 80.1652 136.112 79.6519 136.112C78.8119 136.112 78.1306 135.855 77.6079 135.342C77.0946 134.829 76.8379 134.087 76.8379 133.116V128.552H78.4059V132.64C78.4059 134.012 78.9752 134.698 80.1139 134.698C80.6552 134.698 81.1266 134.521 81.5279 134.166C81.9292 133.802 82.1299 133.275 82.1299 132.584ZM91.4787 133.774C91.4787 134.483 91.222 135.053 90.7087 135.482C90.1953 135.902 89.5373 136.112 88.7347 136.112C88.1933 136.112 87.6287 136.014 87.0407 135.818C86.462 135.622 85.9487 135.347 85.5007 134.992L86.2567 133.774C87.1247 134.427 87.9647 134.754 88.7767 134.754C89.1313 134.754 89.4113 134.675 89.6167 134.516C89.822 134.348 89.9247 134.138 89.9247 133.886C89.9247 133.513 89.43 133.177 88.4407 132.878C88.366 132.85 88.31 132.831 88.2727 132.822C86.7233 132.402 85.9487 131.702 85.9487 130.722C85.9487 130.031 86.2147 129.481 86.7467 129.07C87.288 128.65 87.988 128.44 88.8467 128.44C89.7053 128.44 90.5173 128.692 91.2827 129.196L90.6947 130.358C90.088 129.957 89.43 129.756 88.7207 129.756C88.3473 129.756 88.044 129.826 87.8107 129.966C87.5773 130.097 87.4607 130.297 87.4607 130.568C87.4607 130.811 87.582 130.988 87.8247 131.1C87.9927 131.184 88.226 131.263 88.5247 131.338C88.8327 131.413 89.1033 131.487 89.3367 131.562C89.57 131.637 89.794 131.721 90.0087 131.814C90.2327 131.907 90.4707 132.038 90.7227 132.206C91.2267 132.542 91.4787 133.065 91.4787 133.774ZM99.2325 134.04C99.6805 134.488 100.245 134.712 100.927 134.712C101.608 134.712 102.168 134.488 102.607 134.04C103.055 133.583 103.279 132.995 103.279 132.276C103.279 131.557 103.055 130.974 102.607 130.526C102.168 130.069 101.608 129.84 100.927 129.84C100.245 129.84 99.6805 130.069 99.2325 130.526C98.7938 130.974 98.5745 131.557 98.5745 132.276C98.5745 132.995 98.7938 133.583 99.2325 134.04ZM103.727 135.006C102.98 135.743 102.047 136.112 100.927 136.112C99.8065 136.112 98.8732 135.743 98.1265 135.006C97.3798 134.259 97.0065 133.349 97.0065 132.276C97.0065 131.203 97.3798 130.297 98.1265 129.56C98.8732 128.813 99.8065 128.44 100.927 128.44C102.047 128.44 102.98 128.813 103.727 129.56C104.473 130.297 104.847 131.203 104.847 132.276C104.847 133.349 104.473 134.259 103.727 135.006ZM108.397 131.968V136H106.829V128.552H108.397V129.91C108.649 129.453 108.995 129.093 109.433 128.832C109.881 128.571 110.362 128.44 110.875 128.44C111.715 128.44 112.392 128.697 112.905 129.21C113.428 129.723 113.689 130.465 113.689 131.436V136H112.121V131.912C112.121 130.54 111.552 129.854 110.413 129.854C109.872 129.854 109.401 130.036 108.999 130.4C108.598 130.755 108.397 131.277 108.397 131.968ZM127.052 132.962H121.214C121.251 133.503 121.499 133.942 121.956 134.278C122.413 134.605 122.936 134.768 123.524 134.768C124.457 134.768 125.167 134.474 125.652 133.886L126.548 134.866C125.745 135.697 124.7 136.112 123.412 136.112C122.367 136.112 121.475 135.767 120.738 135.076C120.01 134.376 119.646 133.443 119.646 132.276C119.646 131.1 120.019 130.167 120.766 129.476C121.513 128.785 122.39 128.44 123.398 128.44C124.415 128.44 125.279 128.748 125.988 129.364C126.697 129.971 127.052 130.811 127.052 131.884V132.962ZM121.214 131.73H125.484C125.484 131.105 125.288 130.624 124.896 130.288C124.504 129.952 124.019 129.784 123.44 129.784C122.871 129.784 122.357 129.961 121.9 130.316C121.443 130.661 121.214 131.133 121.214 131.73ZM132.882 130.022C132.108 130.022 131.524 130.274 131.132 130.778C130.74 131.282 130.544 131.959 130.544 132.808V136H128.976V128.552H130.544V130.05C130.796 129.583 131.137 129.201 131.566 128.902C132.005 128.603 132.467 128.449 132.952 128.44L132.966 130.022C132.938 130.022 132.91 130.022 132.882 130.022ZM141.629 128.552V135.048C141.629 136.364 141.269 137.349 140.551 138.002C139.841 138.665 138.927 138.996 137.807 138.996C136.687 138.996 135.674 138.646 134.769 137.946L135.511 136.756C136.239 137.307 136.971 137.582 137.709 137.582C138.455 137.582 139.043 137.391 139.473 137.008C139.911 136.625 140.131 136.014 140.131 135.174V134.222C139.897 134.661 139.561 135.011 139.123 135.272C138.693 135.533 138.208 135.664 137.667 135.664C136.677 135.664 135.865 135.319 135.231 134.628C134.596 133.937 134.279 133.079 134.279 132.052C134.279 131.025 134.596 130.167 135.231 129.476C135.865 128.785 136.673 128.44 137.653 128.44C138.642 128.44 139.445 128.846 140.061 129.658V128.552H141.629ZM135.819 131.996C135.819 132.603 136.005 133.13 136.379 133.578C136.761 134.017 137.27 134.236 137.905 134.236C138.549 134.236 139.067 134.021 139.459 133.592C139.86 133.163 140.061 132.631 140.061 131.996C140.061 131.352 139.86 130.811 139.459 130.372C139.057 129.924 138.539 129.7 137.905 129.7C137.27 129.7 136.761 129.929 136.379 130.386C136.005 130.843 135.819 131.38 135.819 131.996ZM145.837 134.04C146.285 134.488 146.849 134.712 147.531 134.712C148.212 134.712 148.772 134.488 149.211 134.04C149.659 133.583 149.883 132.995 149.883 132.276C149.883 131.557 149.659 130.974 149.211 130.526C148.772 130.069 148.212 129.84 147.531 129.84C146.849 129.84 146.285 130.069 145.837 130.526C145.398 130.974 145.179 131.557 145.179 132.276C145.179 132.995 145.398 133.583 145.837 134.04ZM150.331 135.006C149.584 135.743 148.651 136.112 147.531 136.112C146.411 136.112 145.477 135.743 144.731 135.006C143.984 134.259 143.611 133.349 143.611 132.276C143.611 131.203 143.984 130.297 144.731 129.56C145.477 128.813 146.411 128.44 147.531 128.44C148.651 128.44 149.584 128.813 150.331 129.56C151.077 130.297 151.451 131.203 151.451 132.276C151.451 133.349 151.077 134.259 150.331 135.006ZM155.002 131.968V136H153.434V128.552H155.002V129.91C155.254 129.453 155.599 129.093 156.038 128.832C156.486 128.571 156.966 128.44 157.48 128.44C158.32 128.44 158.996 128.697 159.51 129.21C160.032 129.723 160.294 130.465 160.294 131.436V136H158.726V131.912C158.726 130.54 158.156 129.854 157.018 129.854C156.476 129.854 156.005 130.036 155.604 130.4C155.202 130.755 155.002 131.277 155.002 131.968ZM164.42 134.04C164.868 134.488 165.433 134.712 166.114 134.712C166.796 134.712 167.356 134.488 167.794 134.04C168.242 133.583 168.466 132.995 168.466 132.276C168.466 131.557 168.242 130.974 167.794 130.526C167.356 130.069 166.796 129.84 166.114 129.84C165.433 129.84 164.868 130.069 164.42 130.526C163.982 130.974 163.762 131.557 163.762 132.276C163.762 132.995 163.982 133.583 164.42 134.04ZM168.914 135.006C168.168 135.743 167.234 136.112 166.114 136.112C164.994 136.112 164.061 135.743 163.314 135.006C162.568 134.259 162.194 133.349 162.194 132.276C162.194 131.203 162.568 130.297 163.314 129.56C164.061 128.813 164.994 128.44 166.114 128.44C167.234 128.44 168.168 128.813 168.914 129.56C169.661 130.297 170.034 131.203 170.034 132.276C170.034 133.349 169.661 134.259 168.914 135.006ZM173.585 131.968V136H172.017V128.552H173.585V129.91C173.809 129.453 174.145 129.093 174.593 128.832C175.051 128.571 175.541 128.44 176.063 128.44C177.239 128.44 178.037 128.925 178.457 129.896C179.195 128.925 180.114 128.44 181.215 128.44C182.055 128.44 182.732 128.697 183.245 129.21C183.768 129.723 184.029 130.465 184.029 131.436V136H182.461V131.912C182.461 130.54 181.892 129.854 180.753 129.854C180.221 129.854 179.755 130.027 179.353 130.372C178.961 130.708 178.756 131.203 178.737 131.856V136H177.169V131.912C177.169 131.203 177.043 130.685 176.791 130.358C176.539 130.022 176.143 129.854 175.601 129.854C175.06 129.854 174.589 130.036 174.187 130.4C173.786 130.755 173.585 131.277 173.585 131.968ZM187.977 136H186.409V128.552H187.977V136ZM186.507 127.068C186.311 126.872 186.213 126.639 186.213 126.368C186.213 126.097 186.311 125.864 186.507 125.668C186.703 125.472 186.936 125.374 187.207 125.374C187.477 125.374 187.711 125.472 187.907 125.668C188.103 125.864 188.201 126.097 188.201 126.368C188.201 126.639 188.103 126.872 187.907 127.068C187.711 127.264 187.477 127.362 187.207 127.362C186.936 127.362 186.703 127.264 186.507 127.068ZM193.754 136.112C192.718 136.112 191.827 135.762 191.08 135.062C190.334 134.353 189.96 133.429 189.96 132.29C189.96 131.151 190.348 130.227 191.122 129.518C191.906 128.799 192.858 128.44 193.978 128.44C195.098 128.44 196.046 128.827 196.82 129.602L195.896 130.736C195.252 130.176 194.604 129.896 193.95 129.896C193.297 129.896 192.728 130.115 192.242 130.554C191.766 130.983 191.528 131.543 191.528 132.234C191.528 132.915 191.766 133.494 192.242 133.97C192.718 134.446 193.302 134.684 193.992 134.684C194.692 134.684 195.35 134.367 195.966 133.732L196.89 134.74C195.985 135.655 194.94 136.112 193.754 136.112ZM203.968 133.774C203.968 134.483 203.711 135.053 203.198 135.482C202.685 135.902 202.027 136.112 201.224 136.112C200.683 136.112 200.118 136.014 199.53 135.818C198.951 135.622 198.438 135.347 197.99 134.992L198.746 133.774C199.614 134.427 200.454 134.754 201.266 134.754C201.621 134.754 201.901 134.675 202.106 134.516C202.311 134.348 202.414 134.138 202.414 133.886C202.414 133.513 201.919 133.177 200.93 132.878C200.855 132.85 200.799 132.831 200.762 132.822C199.213 132.402 198.438 131.702 198.438 130.722C198.438 130.031 198.704 129.481 199.236 129.07C199.777 128.65 200.477 128.44 201.336 128.44C202.195 128.44 203.007 128.692 203.772 129.196L203.184 130.358C202.577 129.957 201.919 129.756 201.21 129.756C200.837 129.756 200.533 129.826 200.3 129.966C200.067 130.097 199.95 130.297 199.95 130.568C199.95 130.811 200.071 130.988 200.314 131.1C200.482 131.184 200.715 131.263 201.014 131.338C201.322 131.413 201.593 131.487 201.826 131.562C202.059 131.637 202.283 131.721 202.498 131.814C202.722 131.907 202.96 132.038 203.212 132.206C203.716 132.542 203.968 133.065 203.968 133.774ZM216.02 136H214.592V135.006C213.976 135.743 213.15 136.112 212.114 136.112C211.339 136.112 210.695 135.893 210.182 135.454C209.678 135.015 209.426 134.432 209.426 133.704C209.426 132.967 209.697 132.416 210.238 132.052C210.779 131.688 211.512 131.506 212.436 131.506H214.466V131.226C214.466 130.237 213.915 129.742 212.814 129.742C212.123 129.742 211.405 129.994 210.658 130.498L209.958 129.518C210.863 128.799 211.89 128.44 213.038 128.44C213.915 128.44 214.629 128.664 215.18 129.112C215.74 129.551 216.02 130.246 216.02 131.198V136ZM214.452 133.228V132.598H212.688C211.559 132.598 210.994 132.953 210.994 133.662C210.994 134.026 211.134 134.306 211.414 134.502C211.694 134.689 212.081 134.782 212.576 134.782C213.08 134.782 213.519 134.642 213.892 134.362C214.265 134.082 214.452 133.704 214.452 133.228ZM219.971 131.968V136H218.403V128.552H219.971V129.91C220.223 129.453 220.568 129.093 221.007 128.832C221.455 128.571 221.935 128.44 222.449 128.44C223.289 128.44 223.965 128.697 224.479 129.21C225.001 129.723 225.263 130.465 225.263 131.436V136H223.695V131.912C223.695 130.54 223.125 129.854 221.987 129.854C221.445 129.854 220.974 130.036 220.573 130.4C220.171 130.755 219.971 131.277 219.971 131.968ZM230.692 136.112C229.749 136.112 228.928 135.757 228.228 135.048C227.528 134.339 227.178 133.405 227.178 132.248C227.178 131.091 227.537 130.167 228.256 129.476C228.974 128.785 229.828 128.44 230.818 128.44C231.816 128.44 232.619 128.86 233.226 129.7V125.612H234.794V136H233.226V134.88C232.647 135.701 231.802 136.112 230.692 136.112ZM228.746 132.318C228.746 133.027 228.974 133.606 229.432 134.054C229.889 134.502 230.426 134.726 231.042 134.726C231.658 134.726 232.18 134.502 232.61 134.054C233.039 133.597 233.254 133.013 233.254 132.304C233.254 131.595 233.039 131.002 232.61 130.526C232.18 130.05 231.653 129.812 231.028 129.812C230.402 129.812 229.866 130.05 229.418 130.526C228.97 131.002 228.746 131.599 228.746 132.318ZM242.87 131.968V136H241.302V128.552H242.87V129.91C243.094 129.453 243.43 129.093 243.878 128.832C244.335 128.571 244.825 128.44 245.348 128.44C246.524 128.44 247.322 128.925 247.742 129.896C248.479 128.925 249.398 128.44 250.5 128.44C251.34 128.44 252.016 128.697 252.53 129.21C253.052 129.723 253.314 130.465 253.314 131.436V136H251.746V131.912C251.746 130.54 251.176 129.854 250.038 129.854C249.506 129.854 249.039 130.027 248.638 130.372C248.246 130.708 248.04 131.203 248.022 131.856V136H246.454V131.912C246.454 131.203 246.328 130.685 246.076 130.358C245.824 130.022 245.427 129.854 244.886 129.854C244.344 129.854 243.873 130.036 243.472 130.4C243.07 130.755 242.87 131.277 242.87 131.968ZM262.623 132.962H256.785C256.822 133.503 257.07 133.942 257.527 134.278C257.984 134.605 258.507 134.768 259.095 134.768C260.028 134.768 260.738 134.474 261.223 133.886L262.119 134.866C261.316 135.697 260.271 136.112 258.983 136.112C257.938 136.112 257.046 135.767 256.309 135.076C255.581 134.376 255.217 133.443 255.217 132.276C255.217 131.1 255.59 130.167 256.337 129.476C257.084 128.785 257.961 128.44 258.969 128.44C259.986 128.44 260.85 128.748 261.559 129.364C262.268 129.971 262.623 130.811 262.623 131.884V132.962ZM256.785 131.73H261.055C261.055 131.105 260.859 130.624 260.467 130.288C260.075 129.952 259.59 129.784 259.011 129.784C258.442 129.784 257.928 129.961 257.471 130.316C257.014 130.661 256.785 131.133 256.785 131.73ZM271.477 132.962H265.639C265.677 133.503 265.924 133.942 266.381 134.278C266.839 134.605 267.361 134.768 267.949 134.768C268.883 134.768 269.592 134.474 270.077 133.886L270.973 134.866C270.171 135.697 269.125 136.112 267.837 136.112C266.792 136.112 265.901 135.767 265.163 135.076C264.435 134.376 264.071 133.443 264.071 132.276C264.071 131.1 264.445 130.167 265.191 129.476C265.938 128.785 266.815 128.44 267.823 128.44C268.841 128.44 269.704 128.748 270.413 129.364C271.123 129.971 271.477 130.811 271.477 131.884V132.962ZM265.639 131.73H269.909C269.909 131.105 269.713 130.624 269.321 130.288C268.929 129.952 268.444 129.784 267.865 129.784C267.296 129.784 266.783 129.961 266.325 130.316C265.868 130.661 265.639 131.133 265.639 131.73ZM275.279 129.812V133.592C275.279 133.947 275.372 134.231 275.559 134.446C275.746 134.651 276.007 134.754 276.343 134.754C276.679 134.754 277.001 134.591 277.309 134.264L277.953 135.37C277.402 135.865 276.791 136.112 276.119 136.112C275.456 136.112 274.887 135.883 274.411 135.426C273.944 134.959 273.711 134.334 273.711 133.55V129.812H272.773V128.552H273.711V126.214H275.279V128.552H277.239V129.812H275.279ZM280.966 136H279.398V128.552H280.966V136ZM279.496 127.068C279.3 126.872 279.202 126.639 279.202 126.368C279.202 126.097 279.3 125.864 279.496 125.668C279.692 125.472 279.926 125.374 280.196 125.374C280.467 125.374 280.7 125.472 280.896 125.668C281.092 125.864 281.19 126.097 281.19 126.368C281.19 126.639 281.092 126.872 280.896 127.068C280.7 127.264 280.467 127.362 280.196 127.362C279.926 127.362 279.692 127.264 279.496 127.068ZM285.008 131.968V136H283.44V128.552H285.008V129.91C285.26 129.453 285.606 129.093 286.044 128.832C286.492 128.571 286.973 128.44 287.486 128.44C288.326 128.44 289.003 128.697 289.516 129.21C290.039 129.723 290.3 130.465 290.3 131.436V136H288.732V131.912C288.732 130.54 288.163 129.854 287.024 129.854C286.483 129.854 286.012 130.036 285.61 130.4C285.209 130.755 285.008 131.277 285.008 131.968ZM299.579 128.552V135.048C299.579 136.364 299.22 137.349 298.501 138.002C297.792 138.665 296.877 138.996 295.757 138.996C294.637 138.996 293.624 138.646 292.719 137.946L293.461 136.756C294.189 137.307 294.922 137.582 295.659 137.582C296.406 137.582 296.994 137.391 297.423 137.008C297.862 136.625 298.081 136.014 298.081 135.174V134.222C297.848 134.661 297.512 135.011 297.073 135.272C296.644 135.533 296.158 135.664 295.617 135.664C294.628 135.664 293.816 135.319 293.181 134.628C292.546 133.937 292.229 133.079 292.229 132.052C292.229 131.025 292.546 130.167 293.181 129.476C293.816 128.785 294.623 128.44 295.603 128.44C296.592 128.44 297.395 128.846 298.011 129.658V128.552H299.579ZM293.769 131.996C293.769 132.603 293.956 133.13 294.329 133.578C294.712 134.017 295.22 134.236 295.855 134.236C296.499 134.236 297.017 134.021 297.409 133.592C297.81 133.163 298.011 132.631 298.011 131.996C298.011 131.352 297.81 130.811 297.409 130.372C297.008 129.924 296.49 129.7 295.855 129.7C295.22 129.7 294.712 129.929 294.329 130.386C293.956 130.843 293.769 131.38 293.769 131.996ZM27.072 158.968C26.3907 158.968 25.7747 158.721 25.224 158.226L25.938 156.952C26.2647 157.26 26.6007 157.414 26.946 157.414C27.3007 157.414 27.5853 157.288 27.8 157.036C28.024 156.784 28.136 156.509 28.136 156.21C28.136 156.079 27.1327 153.527 25.126 148.552H26.806L29.032 154.04L31.258 148.552H32.938L29.326 157.4C29.1113 157.885 28.8033 158.268 28.402 158.548C28.0007 158.828 27.5573 158.968 27.072 158.968ZM35.986 154.04C36.434 154.488 36.9987 154.712 37.68 154.712C38.3613 154.712 38.9213 154.488 39.36 154.04C39.808 153.583 40.032 152.995 40.032 152.276C40.032 151.557 39.808 150.974 39.36 150.526C38.9213 150.069 38.3613 149.84 37.68 149.84C36.9987 149.84 36.434 150.069 35.986 150.526C35.5473 150.974 35.328 151.557 35.328 152.276C35.328 152.995 35.5473 153.583 35.986 154.04ZM40.48 155.006C39.7333 155.743 38.8 156.112 37.68 156.112C36.56 156.112 35.6267 155.743 34.88 155.006C34.1333 154.259 33.76 153.349 33.76 152.276C33.76 151.203 34.1333 150.297 34.88 149.56C35.6267 148.813 36.56 148.44 37.68 148.44C38.8 148.44 39.7333 148.813 40.48 149.56C41.2267 150.297 41.6 151.203 41.6 152.276C41.6 153.349 41.2267 154.259 40.48 155.006ZM48.7908 152.584V148.552H50.3588V156H48.7908V154.642C48.5388 155.099 48.1888 155.459 47.7408 155.72C47.3022 155.981 46.8262 156.112 46.3128 156.112C45.4728 156.112 44.7915 155.855 44.2688 155.342C43.7555 154.829 43.4988 154.087 43.4988 153.116V148.552H45.0668V152.64C45.0668 154.012 45.6362 154.698 46.7748 154.698C47.3162 154.698 47.7875 154.521 48.1888 154.166C48.5902 153.802 48.7908 153.275 48.7908 152.584ZM60.3614 156H58.5694L55.9934 148.552H57.6174L59.4654 154.18L61.3134 148.552H62.9374L64.7854 154.18L66.6334 148.552H68.2574L65.6814 156H63.8894L62.1254 150.904L60.3614 156ZM71.4129 151.968V156H69.8449V145.626H71.4129V149.91C71.6369 149.453 71.9729 149.093 72.4209 148.832C72.8783 148.571 73.3683 148.44 73.8909 148.44C74.7309 148.44 75.4076 148.697 75.9209 149.21C76.4436 149.723 76.7049 150.465 76.7049 151.436V156H75.1369V151.912C75.1369 150.54 74.5676 149.854 73.4289 149.854C72.8876 149.854 72.4163 150.036 72.0149 150.4C71.6136 150.755 71.4129 151.277 71.4129 151.968ZM86.0257 152.962H80.1877C80.2251 153.503 80.4724 153.942 80.9297 154.278C81.3871 154.605 81.9097 154.768 82.4977 154.768C83.4311 154.768 84.1404 154.474 84.6257 153.886L85.5217 154.866C84.7191 155.697 83.6737 156.112 82.3857 156.112C81.3404 156.112 80.4491 155.767 79.7117 155.076C78.9837 154.376 78.6197 153.443 78.6197 152.276C78.6197 151.1 78.9931 150.167 79.7397 149.476C80.4864 148.785 81.3637 148.44 82.3717 148.44C83.3891 148.44 84.2524 148.748 84.9617 149.364C85.6711 149.971 86.0257 150.811 86.0257 151.884V152.962ZM80.1877 151.73H84.4577C84.4577 151.105 84.2617 150.624 83.8697 150.288C83.4777 149.952 82.9924 149.784 82.4137 149.784C81.8444 149.784 81.3311 149.961 80.8737 150.316C80.4164 150.661 80.1877 151.133 80.1877 151.73ZM91.856 150.022C91.0814 150.022 90.498 150.274 90.106 150.778C89.714 151.282 89.518 151.959 89.518 152.808V156H87.95V148.552H89.518V150.05C89.77 149.583 90.1107 149.201 90.54 148.902C90.9787 148.603 91.4407 148.449 91.926 148.44L91.94 150.022C91.912 150.022 91.884 150.022 91.856 150.022ZM100.644 152.962H94.8065C94.8438 153.503 95.0911 153.942 95.5485 154.278C96.0058 154.605 96.5285 154.768 97.1165 154.768C98.0498 154.768 98.7591 154.474 99.2445 153.886L100.14 154.866C99.3378 155.697 98.2925 156.112 97.0045 156.112C95.9591 156.112 95.0678 155.767 94.3305 155.076C93.6025 154.376 93.2385 153.443 93.2385 152.276C93.2385 151.1 93.6118 150.167 94.3585 149.476C95.1051 148.785 95.9825 148.44 96.9905 148.44C98.0078 148.44 98.8711 148.748 99.5805 149.364C100.29 149.971 100.644 150.811 100.644 151.884V152.962ZM94.8065 151.73H99.0765C99.0765 151.105 98.8805 150.624 98.4885 150.288C98.0965 149.952 97.6111 149.784 97.0325 149.784C96.4631 149.784 95.9498 149.961 95.4925 150.316C95.0351 150.661 94.8065 151.133 94.8065 151.73ZM107.549 158.968C106.867 158.968 106.251 158.721 105.701 158.226L106.415 156.952C106.741 157.26 107.077 157.414 107.423 157.414C107.777 157.414 108.062 157.288 108.277 157.036C108.501 156.784 108.613 156.509 108.613 156.21C108.613 156.079 107.609 153.527 105.603 148.552H107.283L109.509 154.04L111.735 148.552H113.415L109.803 157.4C109.588 157.885 109.28 158.268 108.879 158.548C108.477 158.828 108.034 158.968 107.549 158.968ZM116.463 154.04C116.911 154.488 117.475 154.712 118.157 154.712C118.838 154.712 119.398 154.488 119.837 154.04C120.285 153.583 120.509 152.995 120.509 152.276C120.509 151.557 120.285 150.974 119.837 150.526C119.398 150.069 118.838 149.84 118.157 149.84C117.475 149.84 116.911 150.069 116.463 150.526C116.024 150.974 115.805 151.557 115.805 152.276C115.805 152.995 116.024 153.583 116.463 154.04ZM120.957 155.006C120.21 155.743 119.277 156.112 118.157 156.112C117.037 156.112 116.103 155.743 115.357 155.006C114.61 154.259 114.237 153.349 114.237 152.276C114.237 151.203 114.61 150.297 115.357 149.56C116.103 148.813 117.037 148.44 118.157 148.44C119.277 148.44 120.21 148.813 120.957 149.56C121.703 150.297 122.077 151.203 122.077 152.276C122.077 153.349 121.703 154.259 120.957 155.006ZM129.267 152.584V148.552H130.835V156H129.267V154.642C129.015 155.099 128.665 155.459 128.217 155.72C127.779 155.981 127.303 156.112 126.789 156.112C125.949 156.112 125.268 155.855 124.745 155.342C124.232 154.829 123.975 154.087 123.975 153.116V148.552H125.543V152.64C125.543 154.012 126.113 154.698 127.251 154.698C127.793 154.698 128.264 154.521 128.665 154.166C129.067 153.802 129.267 153.275 129.267 152.584ZM140.838 156H139.046L136.47 148.552H138.094L139.942 154.18L141.79 148.552H143.414L145.262 154.18L147.11 148.552H148.734L146.158 156H144.366L142.602 150.904L140.838 156ZM151.962 154.04C152.41 154.488 152.974 154.712 153.656 154.712C154.337 154.712 154.897 154.488 155.336 154.04C155.784 153.583 156.008 152.995 156.008 152.276C156.008 151.557 155.784 150.974 155.336 150.526C154.897 150.069 154.337 149.84 153.656 149.84C152.974 149.84 152.41 150.069 151.962 150.526C151.523 150.974 151.304 151.557 151.304 152.276C151.304 152.995 151.523 153.583 151.962 154.04ZM156.456 155.006C155.709 155.743 154.776 156.112 153.656 156.112C152.536 156.112 151.602 155.743 150.856 155.006C150.109 154.259 149.736 153.349 149.736 152.276C149.736 151.203 150.109 150.297 150.856 149.56C151.602 148.813 152.536 148.44 153.656 148.44C154.776 148.44 155.709 148.813 156.456 149.56C157.202 150.297 157.576 151.203 157.576 152.276C157.576 153.349 157.202 154.259 156.456 155.006ZM163.465 150.022C162.69 150.022 162.107 150.274 161.715 150.778C161.323 151.282 161.127 151.959 161.127 152.808V156H159.559V148.552H161.127V150.05C161.379 149.583 161.719 149.201 162.149 148.902C162.587 148.603 163.049 148.449 163.535 148.44L163.549 150.022C163.521 150.022 163.493 150.022 163.465 150.022ZM166.891 156H165.323V145.612H166.891V151.716L169.915 148.552H171.931L169.103 151.506L172.141 156H170.237L168.025 152.738L166.891 153.886V156ZM173.742 155.804C173.546 155.599 173.448 155.351 173.448 155.062C173.448 154.773 173.546 154.53 173.742 154.334C173.947 154.129 174.195 154.026 174.484 154.026C174.773 154.026 175.021 154.129 175.226 154.334C175.431 154.53 175.534 154.773 175.534 155.062C175.534 155.351 175.431 155.599 175.226 155.804C175.021 156.009 174.773 156.112 174.484 156.112C174.195 156.112 173.947 156.009 173.742 155.804ZM182.047 146.214H183.699V156H182.047V146.214ZM188.207 149.812V153.592C188.207 153.947 188.301 154.231 188.487 154.446C188.674 154.651 188.935 154.754 189.271 154.754C189.607 154.754 189.929 154.591 190.237 154.264L190.881 155.37C190.331 155.865 189.719 156.112 189.047 156.112C188.385 156.112 187.815 155.883 187.339 155.426C186.873 154.959 186.639 154.334 186.639 153.55V149.812H185.701V148.552H186.639V146.214H188.207V148.552H190.167V149.812H188.207ZM192.271 149.658V146.214H193.363V149.658H192.271ZM201.087 153.774C201.087 154.483 200.83 155.053 200.317 155.482C199.804 155.902 199.146 156.112 198.343 156.112C197.802 156.112 197.237 156.014 196.649 155.818C196.07 155.622 195.557 155.347 195.109 154.992L195.865 153.774C196.733 154.427 197.573 154.754 198.385 154.754C198.74 154.754 199.02 154.675 199.225 154.516C199.43 154.348 199.533 154.138 199.533 153.886C199.533 153.513 199.038 153.177 198.049 152.878C197.974 152.85 197.918 152.831 197.881 152.822C196.332 152.402 195.557 151.702 195.557 150.722C195.557 150.031 195.823 149.481 196.355 149.07C196.896 148.65 197.596 148.44 198.455 148.44C199.314 148.44 200.126 148.692 200.891 149.196L200.303 150.358C199.696 149.957 199.038 149.756 198.329 149.756C197.956 149.756 197.652 149.826 197.419 149.966C197.186 150.097 197.069 150.297 197.069 150.568C197.069 150.811 197.19 150.988 197.433 151.1C197.601 151.184 197.834 151.263 198.133 151.338C198.441 151.413 198.712 151.487 198.945 151.562C199.178 151.637 199.402 151.721 199.617 151.814C199.841 151.907 200.079 152.038 200.331 152.206C200.835 152.542 201.087 153.065 201.087 153.774ZM208.841 154.04C209.289 154.488 209.853 154.712 210.535 154.712C211.216 154.712 211.776 154.488 212.215 154.04C212.663 153.583 212.887 152.995 212.887 152.276C212.887 151.557 212.663 150.974 212.215 150.526C211.776 150.069 211.216 149.84 210.535 149.84C209.853 149.84 209.289 150.069 208.841 150.526C208.402 150.974 208.183 151.557 208.183 152.276C208.183 152.995 208.402 153.583 208.841 154.04ZM213.335 155.006C212.588 155.743 211.655 156.112 210.535 156.112C209.415 156.112 208.481 155.743 207.735 155.006C206.988 154.259 206.615 153.349 206.615 152.276C206.615 151.203 206.988 150.297 207.735 149.56C208.481 148.813 209.415 148.44 210.535 148.44C211.655 148.44 212.588 148.813 213.335 149.56C214.081 150.297 214.455 151.203 214.455 152.276C214.455 153.349 214.081 154.259 213.335 155.006ZM218.006 151.968V156H216.438V148.552H218.006V149.91C218.258 149.453 218.603 149.093 219.042 148.832C219.49 148.571 219.97 148.44 220.484 148.44C221.324 148.44 222 148.697 222.514 149.21C223.036 149.723 223.298 150.465 223.298 151.436V156H221.73V151.912C221.73 150.54 221.16 149.854 220.022 149.854C219.48 149.854 219.009 150.036 218.608 150.4C218.206 150.755 218.006 151.277 218.006 151.968ZM227.256 156H225.688V145.612H227.256V156ZM230.668 158.968C229.987 158.968 229.371 158.721 228.82 158.226L229.534 156.952C229.861 157.26 230.197 157.414 230.542 157.414C230.897 157.414 231.181 157.288 231.396 157.036C231.62 156.784 231.732 156.509 231.732 156.21C231.732 156.079 230.729 153.527 228.722 148.552H230.402L232.628 154.04L234.854 148.552H236.534L232.922 157.4C232.707 157.885 232.399 158.268 231.998 158.548C231.597 158.828 231.153 158.968 230.668 158.968ZM248.045 156H246.617V155.006C246.001 155.743 245.175 156.112 244.139 156.112C243.364 156.112 242.72 155.893 242.207 155.454C241.703 155.015 241.451 154.432 241.451 153.704C241.451 152.967 241.722 152.416 242.263 152.052C242.804 151.688 243.537 151.506 244.461 151.506H246.491V151.226C246.491 150.237 245.94 149.742 244.839 149.742C244.148 149.742 243.43 149.994 242.683 150.498L241.983 149.518C242.888 148.799 243.915 148.44 245.063 148.44C245.94 148.44 246.654 148.664 247.205 149.112C247.765 149.551 248.045 150.246 248.045 151.198V156ZM246.477 153.228V152.598H244.713C243.584 152.598 243.019 152.953 243.019 153.662C243.019 154.026 243.159 154.306 243.439 154.502C243.719 154.689 244.106 154.782 244.601 154.782C245.105 154.782 245.544 154.642 245.917 154.362C246.29 154.082 246.477 153.704 246.477 153.228ZM27.702 176H26.134V165.612H27.702V171.716L30.726 168.552H32.742L29.914 171.506L32.952 176H31.048L28.836 172.738L27.702 173.886V176ZM41.3988 172.962H35.5608C35.5981 173.503 35.8454 173.942 36.3028 174.278C36.7601 174.605 37.2828 174.768 37.8708 174.768C38.8041 174.768 39.5134 174.474 39.9988 173.886L40.8948 174.866C40.0921 175.697 39.0468 176.112 37.7588 176.112C36.7134 176.112 35.8221 175.767 35.0848 175.076C34.3568 174.376 33.9928 173.443 33.9928 172.276C33.9928 171.1 34.3661 170.167 35.1128 169.476C35.8594 168.785 36.7368 168.44 37.7448 168.44C38.7621 168.44 39.6254 168.748 40.3348 169.364C41.0441 169.971 41.3988 170.811 41.3988 171.884V172.962ZM35.5608 171.73H39.8308C39.8308 171.105 39.6348 170.624 39.2428 170.288C38.8508 169.952 38.3654 169.784 37.7868 169.784C37.2174 169.784 36.7041 169.961 36.2468 170.316C35.7894 170.661 35.5608 171.133 35.5608 171.73ZM44.179 178.968C43.4977 178.968 42.8817 178.721 42.331 178.226L43.045 176.952C43.3717 177.26 43.7077 177.414 44.053 177.414C44.4077 177.414 44.6924 177.288 44.907 177.036C45.131 176.784 45.243 176.509 45.243 176.21C45.243 176.079 44.2397 173.527 42.233 168.552H43.913L46.139 174.04L48.365 168.552H50.045L46.433 177.4C46.2184 177.885 45.9104 178.268 45.509 178.548C45.1077 178.828 44.6644 178.968 44.179 178.968ZM56.7041 173.774C56.7041 174.483 56.4474 175.053 55.9341 175.482C55.4207 175.902 54.7627 176.112 53.9601 176.112C53.4187 176.112 52.8541 176.014 52.2661 175.818C51.6874 175.622 51.1741 175.347 50.7261 174.992L51.4821 173.774C52.3501 174.427 53.1901 174.754 54.0021 174.754C54.3567 174.754 54.6367 174.675 54.8421 174.516C55.0474 174.348 55.1501 174.138 55.1501 173.886C55.1501 173.513 54.6554 173.177 53.6661 172.878C53.5914 172.85 53.5354 172.831 53.4981 172.822C51.9487 172.402 51.1741 171.702 51.1741 170.722C51.1741 170.031 51.4401 169.481 51.9721 169.07C52.5134 168.65 53.2134 168.44 54.0721 168.44C54.9307 168.44 55.7427 168.692 56.5081 169.196L55.9201 170.358C55.3134 169.957 54.6554 169.756 53.9461 169.756C53.5727 169.756 53.2694 169.826 53.0361 169.966C52.8027 170.097 52.6861 170.297 52.6861 170.568C52.6861 170.811 52.8074 170.988 53.0501 171.1C53.2181 171.184 53.4514 171.263 53.7501 171.338C54.0581 171.413 54.3287 171.487 54.5621 171.562C54.7954 171.637 55.0194 171.721 55.2341 171.814C55.4581 171.907 55.6961 172.038 55.9481 172.206C56.4521 172.542 56.7041 173.065 56.7041 173.774ZM60.6121 169.812V173.592C60.6121 173.947 60.7054 174.231 60.8921 174.446C61.0788 174.651 61.3401 174.754 61.6761 174.754C62.0121 174.754 62.3341 174.591 62.6421 174.264L63.2861 175.37C62.7354 175.865 62.1241 176.112 61.4521 176.112C60.7894 176.112 60.2201 175.883 59.7441 175.426C59.2774 174.959 59.0441 174.334 59.0441 173.55V169.812H58.1061V168.552H59.0441V166.214H60.6121V168.552H62.5721V169.812H60.6121ZM68.6377 170.022C67.863 170.022 67.2797 170.274 66.8877 170.778C66.4957 171.282 66.2997 171.959 66.2997 172.808V176H64.7317V168.552H66.2997V170.05C66.5517 169.583 66.8923 169.201 67.3217 168.902C67.7603 168.603 68.2223 168.449 68.7077 168.44L68.7217 170.022C68.6937 170.022 68.6657 170.022 68.6377 170.022ZM72.0954 174.04C72.5434 174.488 73.1081 174.712 73.7894 174.712C74.4707 174.712 75.0307 174.488 75.4694 174.04C75.9174 173.583 76.1414 172.995 76.1414 172.276C76.1414 171.557 75.9174 170.974 75.4694 170.526C75.0307 170.069 74.4707 169.84 73.7894 169.84C73.1081 169.84 72.5434 170.069 72.0954 170.526C71.6567 170.974 71.4374 171.557 71.4374 172.276C71.4374 172.995 71.6567 173.583 72.0954 174.04ZM76.5894 175.006C75.8427 175.743 74.9094 176.112 73.7894 176.112C72.6694 176.112 71.7361 175.743 70.9894 175.006C70.2427 174.259 69.8694 173.349 69.8694 172.276C69.8694 171.203 70.2427 170.297 70.9894 169.56C71.7361 168.813 72.6694 168.44 73.7894 168.44C74.9094 168.44 75.8427 168.813 76.5894 169.56C77.3361 170.297 77.7094 171.203 77.7094 172.276C77.7094 173.349 77.3361 174.259 76.5894 175.006ZM81.2602 176H79.6922V165.612H81.2602V171.716L84.2842 168.552H86.3002L83.4722 171.506L86.5102 176H84.6062L82.3942 172.738L81.2602 173.886V176ZM94.957 172.962H89.119C89.1563 173.503 89.4036 173.942 89.861 174.278C90.3183 174.605 90.841 174.768 91.429 174.768C92.3623 174.768 93.0716 174.474 93.557 173.886L94.453 174.866C93.6503 175.697 92.605 176.112 91.317 176.112C90.2716 176.112 89.3803 175.767 88.643 175.076C87.915 174.376 87.551 173.443 87.551 172.276C87.551 171.1 87.9243 170.167 88.671 169.476C89.4176 168.785 90.295 168.44 91.303 168.44C92.3203 168.44 93.1836 168.748 93.893 169.364C94.6023 169.971 94.957 170.811 94.957 171.884V172.962ZM89.119 171.73H93.389C93.389 171.105 93.193 170.624 92.801 170.288C92.409 169.952 91.9236 169.784 91.345 169.784C90.7756 169.784 90.2623 169.961 89.805 170.316C89.3476 170.661 89.119 171.133 89.119 171.73ZM106.957 176H105.529V175.006C104.913 175.743 104.087 176.112 103.051 176.112C102.276 176.112 101.632 175.893 101.119 175.454C100.615 175.015 100.363 174.432 100.363 173.704C100.363 172.967 100.634 172.416 101.175 172.052C101.716 171.688 102.449 171.506 103.373 171.506H105.403V171.226C105.403 170.237 104.852 169.742 103.751 169.742C103.06 169.742 102.342 169.994 101.595 170.498L100.895 169.518C101.8 168.799 102.827 168.44 103.975 168.44C104.852 168.44 105.566 168.664 106.117 169.112C106.677 169.551 106.957 170.246 106.957 171.198V176ZM105.389 173.228V172.598H103.625C102.496 172.598 101.931 172.953 101.931 173.662C101.931 174.026 102.071 174.306 102.351 174.502C102.631 174.689 103.018 174.782 103.513 174.782C104.017 174.782 104.456 174.642 104.829 174.362C105.202 174.082 105.389 173.704 105.389 173.228ZM112.757 176H110.965L108.389 168.552H110.013L111.861 174.18L113.709 168.552H115.333L117.181 174.18L119.029 168.552H120.653L118.077 176H116.285L114.521 170.904L112.757 176ZM128.207 176H126.779V175.006C126.163 175.743 125.337 176.112 124.301 176.112C123.526 176.112 122.882 175.893 122.369 175.454C121.865 175.015 121.613 174.432 121.613 173.704C121.613 172.967 121.883 172.416 122.425 172.052C122.966 171.688 123.699 171.506 124.623 171.506H126.653V171.226C126.653 170.237 126.102 169.742 125.001 169.742C124.31 169.742 123.591 169.994 122.845 170.498L122.145 169.518C123.05 168.799 124.077 168.44 125.225 168.44C126.102 168.44 126.816 168.664 127.367 169.112C127.927 169.551 128.207 170.246 128.207 171.198V176ZM126.639 173.228V172.598H124.875C123.745 172.598 123.181 172.953 123.181 173.662C123.181 174.026 123.321 174.306 123.601 174.502C123.881 174.689 124.268 174.782 124.763 174.782C125.267 174.782 125.705 174.642 126.079 174.362C126.452 174.082 126.639 173.704 126.639 173.228ZM131.445 178.968C130.764 178.968 130.148 178.721 129.597 178.226L130.311 176.952C130.638 177.26 130.974 177.414 131.319 177.414C131.674 177.414 131.959 177.288 132.173 177.036C132.397 176.784 132.509 176.509 132.509 176.21C132.509 176.079 131.506 173.527 129.499 168.552H131.179L133.405 174.04L135.631 168.552H137.311L133.699 177.4C133.485 177.885 133.177 178.268 132.775 178.548C132.374 178.828 131.931 178.968 131.445 178.968ZM138.325 175.804C138.129 175.599 138.031 175.351 138.031 175.062C138.031 174.773 138.129 174.53 138.325 174.334C138.53 174.129 138.777 174.026 139.067 174.026C139.356 174.026 139.603 174.129 139.809 174.334C140.014 174.53 140.117 174.773 140.117 175.062C140.117 175.351 140.014 175.599 139.809 175.804C139.603 176.009 139.356 176.112 139.067 176.112C138.777 176.112 138.53 176.009 138.325 175.804Z" fill="#737373"/>
<g clip-path="url(#clip1_5493_362)">
<g clip-path="url(#clip2_5493_362)">
<path d="M32.9993 220.667C29.7038 220.623 27.0428 217.962 26.9993 214.667C27.0428 211.371 29.7038 208.71 32.9993 208.667C36.2949 208.71 38.9559 211.371 38.9993 214.667C38.9559 217.962 36.2949 220.623 32.9993 220.667ZM32.9993 210C30.4361 210.034 28.3664 212.103 28.3327 214.667C28.3664 217.23 30.4361 219.3 32.9993 219.333C35.5626 219.3 37.6323 217.23 37.666 214.667C37.6323 212.103 35.5626 210.034 32.9993 210ZM36.3327 215.333H32.3327V211.333H33.666V214H36.3327V215.333ZM38.5273 210.472L36.5213 208.472L37.4607 207.527L39.4673 209.527L38.5273 210.471V210.472ZM27.4707 210.472L26.5273 209.527L28.5213 207.527L29.4647 208.472L27.472 210.472H27.4707Z" fill="#23A6F0"/>
</g>
<path d="M49.24 214.244C49.808 213.668 50.212 213.216 50.452 212.888C50.692 212.56 50.812 212.228 50.812 211.892C50.812 211.556 50.684 211.272 50.428 211.04C50.172 210.8 49.848 210.68 49.456 210.68C48.768 210.68 48.196 211.032 47.74 211.736L46.6 211.076C46.968 210.524 47.372 210.108 47.812 209.828C48.26 209.548 48.832 209.408 49.528 209.408C50.232 209.408 50.848 209.632 51.376 210.08C51.904 210.52 52.168 211.124 52.168 211.892C52.168 212.324 52.056 212.736 51.832 213.128C51.608 213.52 51.196 214.024 50.596 214.64L48.628 216.644H52.432V218H46.696V216.8L49.24 214.244ZM56.5064 214.244C57.0744 213.668 57.4784 213.216 57.7184 212.888C57.9584 212.56 58.0784 212.228 58.0784 211.892C58.0784 211.556 57.9504 211.272 57.6944 211.04C57.4384 210.8 57.1144 210.68 56.7224 210.68C56.0344 210.68 55.4624 211.032 55.0064 211.736L53.8664 211.076C54.2344 210.524 54.6384 210.108 55.0784 209.828C55.5264 209.548 56.0984 209.408 56.7944 209.408C57.4984 209.408 58.1144 209.632 58.6424 210.08C59.1704 210.52 59.4344 211.124 59.4344 211.892C59.4344 212.324 59.3224 212.736 59.0984 213.128C58.8744 213.52 58.4624 214.024 57.8624 214.64L55.8944 216.644H59.6984V218H53.9624V216.8L56.5064 214.244ZM66.3778 216.092L65.5378 218H64.0258L67.7218 209.612H69.2338L72.9298 218H71.4178L70.5778 216.092H66.3778ZM70.0018 214.784L68.4778 211.328L66.9538 214.784H70.0018ZM77.524 211.52C78.38 211.52 79.112 211.816 79.72 212.408C80.328 213 80.632 213.788 80.632 214.772C80.632 215.756 80.328 216.556 79.72 217.172C79.12 217.788 78.416 218.096 77.608 218.096C76.808 218.096 76.088 217.744 75.448 217.04V220.328H74.104V211.616H75.448V212.732C75.976 211.924 76.668 211.52 77.524 211.52ZM75.424 214.82C75.424 215.428 75.608 215.928 75.976 216.32C76.344 216.704 76.792 216.896 77.32 216.896C77.848 216.896 78.308 216.704 78.7 216.32C79.092 215.936 79.288 215.44 79.288 214.832C79.288 214.216 79.096 213.708 78.712 213.308C78.328 212.9 77.868 212.696 77.332 212.696C76.796 212.696 76.344 212.9 75.976 213.308C75.608 213.708 75.424 214.212 75.424 214.82ZM85.7145 212.876C85.0505 212.876 84.5505 213.092 84.2145 213.524C83.8785 213.956 83.7105 214.536 83.7105 215.264V218H82.3665V211.616H83.7105V212.9C83.9265 212.5 84.2185 212.172 84.5865 211.916C84.9625 211.66 85.3585 211.528 85.7745 211.52L85.7865 212.876C85.7625 212.876 85.7385 212.876 85.7145 212.876ZM88.6801 218H87.3361V211.616H88.6801V218ZM87.4201 210.344C87.2521 210.176 87.1681 209.976 87.1681 209.744C87.1681 209.512 87.2521 209.312 87.4201 209.144C87.5881 208.976 87.7881 208.892 88.0201 208.892C88.2521 208.892 88.4521 208.976 88.6201 209.144C88.7881 209.312 88.8721 209.512 88.8721 209.744C88.8721 209.976 88.7881 210.176 88.6201 210.344C88.4521 210.512 88.2521 210.596 88.0201 210.596C87.7881 210.596 87.5881 210.512 87.4201 210.344ZM92.173 218H90.829V209.096H92.173V218ZM100.083 214.244C100.651 213.668 101.055 213.216 101.295 212.888C101.535 212.56 101.655 212.228 101.655 211.892C101.655 211.556 101.527 211.272 101.271 211.04C101.015 210.8 100.691 210.68 100.299 210.68C99.611 210.68 99.039 211.032 98.583 211.736L97.443 211.076C97.811 210.524 98.215 210.108 98.655 209.828C99.103 209.548 99.675 209.408 100.371 209.408C101.075 209.408 101.691 209.632 102.219 210.08C102.747 210.52 103.011 211.124 103.011 211.892C103.011 212.324 102.899 212.736 102.675 213.128C102.451 213.52 102.039 214.024 101.439 214.64L99.471 216.644H103.275V218H97.539V216.8L100.083 214.244ZM106.677 211.484C106.349 212.06 106.185 212.816 106.185 213.752C106.185 214.688 106.349 215.444 106.677 216.02C107.013 216.596 107.533 216.884 108.237 216.884C108.941 216.884 109.453 216.6 109.773 216.032C110.101 215.456 110.265 214.696 110.265 213.752C110.265 212.808 110.101 212.052 109.773 211.484C109.453 210.908 108.941 210.62 108.237 210.62C107.533 210.62 107.013 210.908 106.677 211.484ZM105.669 216.92C105.101 216.128 104.817 215.072 104.817 213.752C104.817 212.432 105.101 211.38 105.669 210.596C106.237 209.804 107.093 209.408 108.237 209.408C109.381 209.408 110.237 209.804 110.805 210.596C111.373 211.38 111.657 212.432 111.657 213.752C111.657 215.072 111.373 216.128 110.805 216.92C110.237 217.704 109.381 218.096 108.237 218.096C107.093 218.096 106.237 217.704 105.669 216.92ZM115.811 214.244C116.379 213.668 116.783 213.216 117.023 212.888C117.263 212.56 117.383 212.228 117.383 211.892C117.383 211.556 117.255 211.272 116.999 211.04C116.743 210.8 116.419 210.68 116.027 210.68C115.339 210.68 114.767 211.032 114.311 211.736L113.171 211.076C113.539 210.524 113.943 210.108 114.383 209.828C114.831 209.548 115.403 209.408 116.099 209.408C116.803 209.408 117.419 209.632 117.947 210.08C118.475 210.52 118.739 211.124 118.739 211.892C118.739 212.324 118.627 212.736 118.403 213.128C118.179 213.52 117.767 214.024 117.167 214.64L115.199 216.644H119.003V218H113.267V216.8L115.811 214.244ZM120.186 209.612H123.234V218H121.89V210.872H120.186V209.612Z" fill="#737373"/>
</g>
<g clip-path="url(#clip3_5493_362)">
<g clip-path="url(#clip4_5493_362)">
<path d="M215.833 219.834H201.5V206.834C201.5 206.742 201.425 206.667 201.333 206.667H200.167C200.075 206.667 200 206.742 200 206.834V221.167C200 221.259 200.075 221.334 200.167 221.334H215.833C215.925 221.334 216 221.259 216 221.167V220C216 219.909 215.925 219.834 215.833 219.834ZM203 218.5H214.167C214.258 218.5 214.333 218.425 214.333 218.334V209.25C214.333 209.1 214.152 209.027 214.048 209.132L209.667 213.513L207.054 210.929C207.023 210.898 206.981 210.881 206.936 210.881C206.892 210.881 206.85 210.898 206.819 210.929L202.881 214.879C202.866 214.895 202.854 214.913 202.846 214.933C202.837 214.953 202.833 214.975 202.833 214.996V218.334C202.833 218.425 202.908 218.5 203 218.5Z" fill="#23856D"/>
</g>
<path d="M221.348 209.612H224.396V218H223.052V210.872H221.348V209.612ZM228.338 211.484C228.01 212.06 227.846 212.816 227.846 213.752C227.846 214.688 228.01 215.444 228.338 216.02C228.674 216.596 229.194 216.884 229.898 216.884C230.602 216.884 231.114 216.6 231.434 216.032C231.762 215.456 231.926 214.696 231.926 213.752C231.926 212.808 231.762 212.052 231.434 211.484C231.114 210.908 230.602 210.62 229.898 210.62C229.194 210.62 228.674 210.908 228.338 211.484ZM227.33 216.92C226.762 216.128 226.478 215.072 226.478 213.752C226.478 212.432 226.762 211.38 227.33 210.596C227.898 209.804 228.754 209.408 229.898 209.408C231.042 209.408 231.898 209.804 232.466 210.596C233.034 211.38 233.318 212.432 233.318 213.752C233.318 215.072 233.034 216.128 232.466 216.92C231.898 217.704 231.042 218.096 229.898 218.096C228.754 218.096 227.898 217.704 227.33 216.92ZM241.529 218.096C240.641 218.096 239.877 217.796 239.237 217.196C238.597 216.588 238.277 215.796 238.277 214.82C238.277 213.844 238.609 213.052 239.273 212.444C239.945 211.828 240.761 211.52 241.721 211.52C242.681 211.52 243.493 211.852 244.157 212.516L243.365 213.488C242.813 213.008 242.257 212.768 241.697 212.768C241.137 212.768 240.649 212.956 240.233 213.332C239.825 213.7 239.621 214.18 239.621 214.772C239.621 215.356 239.825 215.852 240.233 216.26C240.641 216.668 241.141 216.872 241.733 216.872C242.333 216.872 242.897 216.6 243.425 216.056L244.217 216.92C243.441 217.704 242.545 218.096 241.529 218.096ZM247.17 216.32C247.554 216.704 248.038 216.896 248.622 216.896C249.206 216.896 249.686 216.704 250.062 216.32C250.446 215.928 250.638 215.424 250.638 214.808C250.638 214.192 250.446 213.692 250.062 213.308C249.686 212.916 249.206 212.72 248.622 212.72C248.038 212.72 247.554 212.916 247.17 213.308C246.794 213.692 246.606 214.192 246.606 214.808C246.606 215.424 246.794 215.928 247.17 216.32ZM251.022 217.148C250.382 217.78 249.582 218.096 248.622 218.096C247.662 218.096 246.862 217.78 246.222 217.148C245.582 216.508 245.262 215.728 245.262 214.808C245.262 213.888 245.582 213.112 246.222 212.48C246.862 211.84 247.662 211.52 248.622 211.52C249.582 211.52 250.382 211.84 251.022 212.48C251.662 213.112 251.982 213.888 251.982 214.808C251.982 215.728 251.662 216.508 251.022 217.148ZM255.054 214.544V218H253.71V211.616H255.054V212.78C255.246 212.388 255.534 212.08 255.918 211.856C256.31 211.632 256.73 211.52 257.178 211.52C258.186 211.52 258.87 211.936 259.23 212.768C259.862 211.936 260.65 211.52 261.594 211.52C262.314 211.52 262.894 211.74 263.334 212.18C263.782 212.62 264.006 213.256 264.006 214.088V218H262.662V214.496C262.662 213.32 262.174 212.732 261.198 212.732C260.742 212.732 260.342 212.88 259.998 213.176C259.662 213.464 259.486 213.888 259.47 214.448V218H258.126V214.496C258.126 213.888 258.018 213.444 257.802 213.164C257.586 212.876 257.246 212.732 256.782 212.732C256.318 212.732 255.914 212.888 255.57 213.2C255.226 213.504 255.054 213.952 255.054 214.544ZM267.418 214.544V218H266.074V211.616H267.418V212.78C267.61 212.388 267.898 212.08 268.282 211.856C268.674 211.632 269.094 211.52 269.542 211.52C270.55 211.52 271.234 211.936 271.594 212.768C272.226 211.936 273.014 211.52 273.958 211.52C274.678 211.52 275.258 211.74 275.698 212.18C276.146 212.62 276.37 213.256 276.37 214.088V218H275.026V214.496C275.026 213.32 274.538 212.732 273.562 212.732C273.106 212.732 272.706 212.88 272.362 213.176C272.026 213.464 271.85 213.888 271.834 214.448V218H270.49V214.496C270.49 213.888 270.382 213.444 270.166 213.164C269.95 212.876 269.61 212.732 269.146 212.732C268.682 212.732 268.278 212.888 267.934 213.2C267.59 213.504 267.418 213.952 267.418 214.544ZM284.378 215.396H279.374C279.406 215.86 279.618 216.236 280.01 216.524C280.402 216.804 280.85 216.944 281.354 216.944C282.154 216.944 282.762 216.692 283.178 216.188L283.946 217.028C283.258 217.74 282.362 218.096 281.258 218.096C280.362 218.096 279.598 217.8 278.966 217.208C278.342 216.608 278.03 215.808 278.03 214.808C278.03 213.8 278.35 213 278.99 212.408C279.63 211.816 280.382 211.52 281.246 211.52C282.118 211.52 282.858 211.784 283.466 212.312C284.074 212.832 284.378 213.552 284.378 214.472V215.396ZM279.374 214.34H283.034C283.034 213.804 282.866 213.392 282.53 213.104C282.194 212.816 281.778 212.672 281.282 212.672C280.794 212.672 280.354 212.824 279.962 213.128C279.57 213.424 279.374 213.828 279.374 214.34ZM287.4 214.544V218H286.056V211.616H287.4V212.78C287.616 212.388 287.912 212.08 288.288 211.856C288.672 211.632 289.084 211.52 289.524 211.52C290.244 211.52 290.824 211.74 291.264 212.18C291.712 212.62 291.936 213.256 291.936 214.088V218H290.592V214.496C290.592 213.32 290.104 212.732 289.128 212.732C288.664 212.732 288.26 212.888 287.916 213.2C287.572 213.504 287.4 213.952 287.4 214.544ZM295.588 212.696V215.936C295.588 216.24 295.668 216.484 295.828 216.668C295.988 216.844 296.212 216.932 296.5 216.932C296.788 216.932 297.064 216.792 297.328 216.512L297.88 217.46C297.408 217.884 296.884 218.096 296.308 218.096C295.74 218.096 295.252 217.9 294.844 217.508C294.444 217.108 294.244 216.572 294.244 215.9V212.696H293.44V211.616H294.244V209.612H295.588V211.616H297.268V212.696H295.588ZM303.696 216.092C303.696 216.7 303.476 217.188 303.036 217.556C302.596 217.916 302.032 218.096 301.344 218.096C300.88 218.096 300.396 218.012 299.892 217.844C299.396 217.676 298.956 217.44 298.572 217.136L299.22 216.092C299.964 216.652 300.684 216.932 301.38 216.932C301.684 216.932 301.924 216.864 302.1 216.728C302.276 216.584 302.364 216.404 302.364 216.188C302.364 215.868 301.94 215.58 301.092 215.324C301.028 215.3 300.98 215.284 300.948 215.276C299.62 214.916 298.956 214.316 298.956 213.476C298.956 212.884 299.184 212.412 299.64 212.06C300.104 211.7 300.704 211.52 301.44 211.52C302.176 211.52 302.872 211.736 303.528 212.168L303.024 213.164C302.504 212.82 301.94 212.648 301.332 212.648C301.012 212.648 300.752 212.708 300.552 212.828C300.352 212.94 300.252 213.112 300.252 213.344C300.252 213.552 300.356 213.704 300.564 213.8C300.708 213.872 300.908 213.94 301.164 214.004C301.428 214.068 301.66 214.132 301.86 214.196C302.06 214.26 302.252 214.332 302.436 214.412C302.628 214.492 302.832 214.604 303.048 214.748C303.48 215.036 303.696 215.484 303.696 216.092Z" fill="#737373"/>
</g>
<defs>
<clipPath id="clip0_5493_362">
<rect width="160" height="16" fill="white" transform="translate(25 25)"/>
</clipPath>
<clipPath id="clip1_5493_362">
<rect width="100" height="16" fill="white" transform="translate(25 206)"/>
</clipPath>
<clipPath id="clip2_5493_362">
<rect width="16" height="16" fill="white" transform="translate(25 206)"/>
</clipPath>
<clipPath id="clip3_5493_362">
<rect width="105" height="16" fill="white" transform="translate(200 206)"/>
</clipPath>
<clipPath id="clip4_5493_362">
<rect width="16" height="14.6667" fill="white" transform="translate(200 206.667)"/>
</clipPath>
</defs>
</svg>
