<svg width="331" height="306" viewBox="0 0 331 306" fill="none" xmlns="http://www.w3.org/2000/svg">
<g clip-path="url(#clip0_5493_308)">
<path d="M32.472 32.92H33.888V35.788C33.096 36.66 31.964 37.096 30.492 37.096C29.252 37.096 28.212 36.688 27.372 35.872C26.54 35.056 26.124 34.024 26.124 32.776C26.124 31.528 26.548 30.488 27.396 29.656C28.252 28.824 29.284 28.408 30.492 28.408C31.7 28.408 32.704 28.76 33.504 29.464L32.748 30.544C32.42 30.264 32.088 30.072 31.752 29.968C31.424 29.856 31.04 29.8 30.6 29.8C29.752 29.8 29.04 30.076 28.464 30.628C27.888 31.172 27.6 31.892 27.6 32.788C27.6 33.676 27.88 34.392 28.44 34.936C29 35.472 29.676 35.74 30.468 35.74C31.268 35.74 31.936 35.568 32.472 35.224V32.92ZM37.242 35.32C37.626 35.704 38.11 35.896 38.694 35.896C39.278 35.896 39.758 35.704 40.134 35.32C40.518 34.928 40.71 34.424 40.71 33.808C40.71 33.192 40.518 32.692 40.134 32.308C39.758 31.916 39.278 31.72 38.694 31.72C38.11 31.72 37.626 31.916 37.242 32.308C36.866 32.692 36.678 33.192 36.678 33.808C36.678 34.424 36.866 34.928 37.242 35.32ZM41.094 36.148C40.454 36.78 39.654 37.096 38.694 37.096C37.734 37.096 36.934 36.78 36.294 36.148C35.654 35.508 35.334 34.728 35.334 33.808C35.334 32.888 35.654 32.112 36.294 31.48C36.934 30.84 37.734 30.52 38.694 30.52C39.654 30.52 40.454 30.84 41.094 31.48C41.734 32.112 42.054 32.888 42.054 33.808C42.054 34.728 41.734 35.508 41.094 36.148ZM45.2702 35.32C45.6542 35.704 46.1382 35.896 46.7222 35.896C47.3062 35.896 47.7862 35.704 48.1622 35.32C48.5462 34.928 48.7382 34.424 48.7382 33.808C48.7382 33.192 48.5462 32.692 48.1622 32.308C47.7862 31.916 47.3062 31.72 46.7222 31.72C46.1382 31.72 45.6542 31.916 45.2702 32.308C44.8942 32.692 44.7062 33.192 44.7062 33.808C44.7062 34.424 44.8942 34.928 45.2702 35.32ZM49.1222 36.148C48.4822 36.78 47.6822 37.096 46.7222 37.096C45.7622 37.096 44.9622 36.78 44.3222 36.148C43.6822 35.508 43.3622 34.728 43.3622 33.808C43.3622 32.888 43.6822 32.112 44.3222 31.48C44.9622 30.84 45.7622 30.52 46.7222 30.52C47.6822 30.52 48.4822 30.84 49.1222 31.48C49.7622 32.112 50.0822 32.888 50.0822 33.808C50.0822 34.728 49.7622 35.508 49.1222 36.148ZM57.7143 30.616V36.184C57.7143 37.312 57.4063 38.156 56.7903 38.716C56.1823 39.284 55.3983 39.568 54.4383 39.568C53.4783 39.568 52.6103 39.268 51.8343 38.668L52.4703 37.648C53.0943 38.12 53.7223 38.356 54.3543 38.356C54.9943 38.356 55.4983 38.192 55.8663 37.864C56.2423 37.536 56.4303 37.012 56.4303 36.292V35.476C56.2303 35.852 55.9423 36.152 55.5663 36.376C55.1983 36.6 54.7823 36.712 54.3183 36.712C53.4703 36.712 52.7743 36.416 52.2303 35.824C51.6863 35.232 51.4143 34.496 51.4143 33.616C51.4143 32.736 51.6863 32 52.2303 31.408C52.7743 30.816 53.4663 30.52 54.3063 30.52C55.1543 30.52 55.8423 30.868 56.3703 31.564V30.616H57.7143ZM52.7343 33.568C52.7343 34.088 52.8943 34.54 53.2143 34.924C53.5423 35.3 53.9783 35.488 54.5223 35.488C55.0743 35.488 55.5183 35.304 55.8543 34.936C56.1983 34.568 56.3703 34.112 56.3703 33.568C56.3703 33.016 56.1983 32.552 55.8543 32.176C55.5103 31.792 55.0663 31.6 54.5223 31.6C53.9783 31.6 53.5423 31.796 53.2143 32.188C52.8943 32.58 52.7343 33.04 52.7343 33.568ZM61.2058 37H59.8618V28.096H61.2058V37ZM69.2948 34.396H64.2908C64.3228 34.86 64.5348 35.236 64.9268 35.524C65.3188 35.804 65.7668 35.944 66.2708 35.944C67.0708 35.944 67.6788 35.692 68.0948 35.188L68.8628 36.028C68.1748 36.74 67.2788 37.096 66.1748 37.096C65.2788 37.096 64.5148 36.8 63.8828 36.208C63.2588 35.608 62.9468 34.808 62.9468 33.808C62.9468 32.8 63.2668 32 63.9068 31.408C64.5468 30.816 65.2988 30.52 66.1628 30.52C67.0348 30.52 67.7748 30.784 68.3828 31.312C68.9908 31.832 69.2948 32.552 69.2948 33.472V34.396ZM64.2908 33.34H67.9508C67.9508 32.804 67.7828 32.392 67.4468 32.104C67.1108 31.816 66.6948 31.672 66.1988 31.672C65.7108 31.672 65.2708 31.824 64.8788 32.128C64.4868 32.424 64.2908 32.828 64.2908 33.34Z" fill="#8EC2F2"/>
<path d="M89.832 29.908V37H88.416V29.908H85.872V28.612H92.376V29.908H89.832ZM97.2622 31.876C96.5982 31.876 96.0982 32.092 95.7622 32.524C95.4262 32.956 95.2582 33.536 95.2582 34.264V37H93.9142V30.616H95.2582V31.9C95.4742 31.5 95.7662 31.172 96.1342 30.916C96.5102 30.66 96.9062 30.528 97.3222 30.52L97.3342 31.876C97.3102 31.876 97.2862 31.876 97.2622 31.876ZM104.824 34.396H99.8197C99.8517 34.86 100.064 35.236 100.456 35.524C100.848 35.804 101.296 35.944 101.8 35.944C102.6 35.944 103.208 35.692 103.624 35.188L104.392 36.028C103.704 36.74 102.808 37.096 101.704 37.096C100.808 37.096 100.044 36.8 99.4117 36.208C98.7877 35.608 98.4757 34.808 98.4757 33.808C98.4757 32.8 98.7957 32 99.4357 31.408C100.076 30.816 100.828 30.52 101.692 30.52C102.564 30.52 103.304 30.784 103.912 31.312C104.52 31.832 104.824 32.552 104.824 33.472V34.396ZM99.8197 33.34H103.48C103.48 32.804 103.312 32.392 102.976 32.104C102.64 31.816 102.224 31.672 101.728 31.672C101.24 31.672 100.8 31.824 100.408 32.128C100.016 32.424 99.8197 32.828 99.8197 33.34ZM107.846 33.544V37H106.502V30.616H107.846V31.78C108.062 31.388 108.358 31.08 108.734 30.856C109.118 30.632 109.53 30.52 109.97 30.52C110.69 30.52 111.27 30.74 111.71 31.18C112.158 31.62 112.382 32.256 112.382 33.088V37H111.038V33.496C111.038 32.32 110.55 31.732 109.574 31.732C109.11 31.732 108.706 31.888 108.362 32.2C108.018 32.504 107.846 32.952 107.846 33.544ZM117.063 37.096C116.255 37.096 115.551 36.792 114.951 36.184C114.351 35.576 114.051 34.776 114.051 33.784C114.051 32.792 114.359 32 114.975 31.408C115.591 30.816 116.323 30.52 117.171 30.52C118.027 30.52 118.715 30.88 119.235 31.6V28.096H120.579V37H119.235V36.04C118.739 36.744 118.015 37.096 117.063 37.096ZM115.395 33.844C115.395 34.452 115.591 34.948 115.983 35.332C116.375 35.716 116.835 35.908 117.363 35.908C117.891 35.908 118.339 35.716 118.707 35.332C119.075 34.94 119.259 34.44 119.259 33.832C119.259 33.224 119.075 32.716 118.707 32.308C118.339 31.9 117.887 31.696 117.351 31.696C116.815 31.696 116.355 31.9 115.971 32.308C115.587 32.716 115.395 33.228 115.395 33.844ZM124.066 37H122.722V30.616H124.066V37ZM122.806 29.344C122.638 29.176 122.554 28.976 122.554 28.744C122.554 28.512 122.638 28.312 122.806 28.144C122.974 27.976 123.174 27.892 123.406 27.892C123.638 27.892 123.838 27.976 124.006 28.144C124.174 28.312 124.258 28.512 124.258 28.744C124.258 28.976 124.174 29.176 124.006 29.344C123.838 29.512 123.638 29.596 123.406 29.596C123.174 29.596 122.974 29.512 122.806 29.344ZM127.559 33.544V37H126.215V30.616H127.559V31.78C127.775 31.388 128.071 31.08 128.447 30.856C128.831 30.632 129.243 30.52 129.683 30.52C130.403 30.52 130.983 30.74 131.423 31.18C131.871 31.62 132.095 32.256 132.095 33.088V37H130.751V33.496C130.751 32.32 130.263 31.732 129.287 31.732C128.823 31.732 128.419 31.888 128.075 32.2C127.731 32.504 127.559 32.952 127.559 33.544ZM140.077 30.616V36.184C140.077 37.312 139.769 38.156 139.153 38.716C138.545 39.284 137.761 39.568 136.801 39.568C135.841 39.568 134.973 39.268 134.197 38.668L134.833 37.648C135.457 38.12 136.085 38.356 136.717 38.356C137.357 38.356 137.861 38.192 138.229 37.864C138.605 37.536 138.793 37.012 138.793 36.292V35.476C138.593 35.852 138.305 36.152 137.929 36.376C137.561 36.6 137.145 36.712 136.681 36.712C135.833 36.712 135.137 36.416 134.593 35.824C134.049 35.232 133.777 34.496 133.777 33.616C133.777 32.736 134.049 32 134.593 31.408C135.137 30.816 135.829 30.52 136.669 30.52C137.517 30.52 138.205 30.868 138.733 31.564V30.616H140.077ZM135.097 33.568C135.097 34.088 135.257 34.54 135.577 34.924C135.905 35.3 136.341 35.488 136.885 35.488C137.437 35.488 137.881 35.304 138.217 34.936C138.561 34.568 138.733 34.112 138.733 33.568C138.733 33.016 138.561 32.552 138.217 32.176C137.873 31.792 137.429 31.6 136.885 31.6C136.341 31.6 135.905 31.796 135.577 32.188C135.257 32.58 135.097 33.04 135.097 33.568Z" fill="#737373"/>
<path d="M163.952 28.612H165.368V37H163.832L159.08 30.88V37H157.664V28.612H159.08L163.952 34.876V28.612ZM173.643 34.396H168.639C168.671 34.86 168.883 35.236 169.275 35.524C169.667 35.804 170.115 35.944 170.619 35.944C171.419 35.944 172.027 35.692 172.443 35.188L173.211 36.028C172.523 36.74 171.627 37.096 170.523 37.096C169.627 37.096 168.863 36.8 168.231 36.208C167.607 35.608 167.295 34.808 167.295 33.808C167.295 32.8 167.615 32 168.255 31.408C168.895 30.816 169.647 30.52 170.511 30.52C171.383 30.52 172.123 30.784 172.731 31.312C173.339 31.832 173.643 32.552 173.643 33.472V34.396ZM168.639 33.34H172.299C172.299 32.804 172.131 32.392 171.795 32.104C171.459 31.816 171.043 31.672 170.547 31.672C170.059 31.672 169.619 31.824 169.227 32.128C168.835 32.424 168.639 32.828 168.639 33.34ZM178.309 37H176.773L174.565 30.616H175.957L177.541 35.44L179.125 30.616H180.517L182.101 35.44L183.685 30.616H185.077L182.869 37H181.333L179.821 32.632L178.309 37Z" fill="#737373"/>
</g>
<path d="M27.44 73V59.02H29.8V70.76H36.18V73H27.44ZM40.9523 70.2C41.5923 70.84 42.399 71.16 43.3723 71.16C44.3457 71.16 45.1457 70.84 45.7723 70.2C46.4123 69.5467 46.7323 68.7067 46.7323 67.68C46.7323 66.6533 46.4123 65.82 45.7723 65.18C45.1457 64.5267 44.3457 64.2 43.3723 64.2C42.399 64.2 41.5923 64.5267 40.9523 65.18C40.3257 65.82 40.0123 66.6533 40.0123 67.68C40.0123 68.7067 40.3257 69.5467 40.9523 70.2ZM47.3723 71.58C46.3057 72.6333 44.9723 73.16 43.3723 73.16C41.7723 73.16 40.439 72.6333 39.3723 71.58C38.3057 70.5133 37.7723 69.2133 37.7723 67.68C37.7723 66.1467 38.3057 64.8533 39.3723 63.8C40.439 62.7333 41.7723 62.2 43.3723 62.2C44.9723 62.2 46.3057 62.7333 47.3723 63.8C48.439 64.8533 48.9723 66.1467 48.9723 67.68C48.9723 69.2133 48.439 70.5133 47.3723 71.58ZM59.1592 68.12V62.36H61.3992V73H59.1592V71.06C58.7992 71.7133 58.2992 72.2267 57.6592 72.6C57.0326 72.9733 56.3526 73.16 55.6192 73.16C54.4192 73.16 53.4459 72.7933 52.6992 72.06C51.9659 71.3267 51.5992 70.2667 51.5992 68.88V62.36H53.8392V68.2C53.8392 70.16 54.6526 71.14 56.2792 71.14C57.0526 71.14 57.7259 70.8867 58.2992 70.38C58.8726 69.86 59.1592 69.1067 59.1592 68.12ZM69.1889 73.16C67.8422 73.16 66.6689 72.6533 65.6689 71.64C64.6689 70.6267 64.1689 69.2933 64.1689 67.64C64.1689 65.9867 64.6822 64.6667 65.7089 63.68C66.7356 62.6933 67.9556 62.2 69.3689 62.2C70.7956 62.2 71.9422 62.8 72.8089 64V58.16H75.0489V73H72.8089V71.4C71.9822 72.5733 70.7756 73.16 69.1889 73.16ZM66.4089 67.74C66.4089 68.7533 66.7356 69.58 67.3889 70.22C68.0422 70.86 68.8089 71.18 69.6889 71.18C70.5689 71.18 71.3156 70.86 71.9289 70.22C72.5422 69.5667 72.8489 68.7333 72.8489 67.72C72.8489 66.7067 72.5422 65.86 71.9289 65.18C71.3156 64.5 70.5622 64.16 69.6689 64.16C68.7756 64.16 68.0089 64.5 67.3689 65.18C66.7289 65.86 66.4089 66.7133 66.4089 67.74ZM88.3864 68.66H80.0464C80.0997 69.4333 80.4531 70.06 81.1064 70.54C81.7597 71.0067 82.5064 71.24 83.3464 71.24C84.6797 71.24 85.6931 70.82 86.3864 69.98L87.6664 71.38C86.5197 72.5667 85.0264 73.16 83.1864 73.16C81.6931 73.16 80.4197 72.6667 79.3664 71.68C78.3264 70.68 77.8064 69.3467 77.8064 67.68C77.8064 66 78.3397 64.6667 79.4064 63.68C80.4731 62.6933 81.7264 62.2 83.1664 62.2C84.6197 62.2 85.8531 62.64 86.8664 63.52C87.8797 64.3867 88.3864 65.5867 88.3864 67.12V68.66ZM80.0464 66.9H86.1464C86.1464 66.0067 85.8664 65.32 85.3064 64.84C84.7464 64.36 84.0531 64.12 83.2264 64.12C82.4131 64.12 81.6797 64.3733 81.0264 64.88C80.3731 65.3733 80.0464 66.0467 80.0464 66.9ZM98.6297 69.82C98.6297 70.8333 98.263 71.6467 97.5297 72.26C96.7964 72.86 95.8564 73.16 94.7097 73.16C93.9364 73.16 93.1297 73.02 92.2897 72.74C91.463 72.46 90.7297 72.0667 90.0897 71.56L91.1697 69.82C92.4097 70.7533 93.6097 71.22 94.7697 71.22C95.2764 71.22 95.6764 71.1067 95.9697 70.88C96.263 70.64 96.4097 70.34 96.4097 69.98C96.4097 69.4467 95.703 68.9667 94.2897 68.54C94.183 68.5 94.103 68.4733 94.0497 68.46C91.8364 67.86 90.7297 66.86 90.7297 65.46C90.7297 64.4733 91.1097 63.6867 91.8697 63.1C92.643 62.5 93.643 62.2 94.8697 62.2C96.0964 62.2 97.2564 62.56 98.3497 63.28L97.5097 64.94C96.643 64.3667 95.703 64.08 94.6897 64.08C94.1564 64.08 93.723 64.18 93.3897 64.38C93.0564 64.5667 92.8897 64.8533 92.8897 65.24C92.8897 65.5867 93.063 65.84 93.4097 66C93.6497 66.12 93.983 66.2333 94.4097 66.34C94.8497 66.4467 95.2364 66.5533 95.5697 66.66C95.903 66.7667 96.223 66.8867 96.5297 67.02C96.8497 67.1533 97.1897 67.34 97.5497 67.58C98.2697 68.06 98.6297 68.8067 98.6297 69.82ZM104.127 64.16V69.56C104.127 70.0667 104.26 70.4733 104.527 70.78C104.794 71.0733 105.167 71.22 105.647 71.22C106.127 71.22 106.587 70.9867 107.027 70.52L107.947 72.1C107.16 72.8067 106.287 73.16 105.327 73.16C104.38 73.16 103.567 72.8333 102.887 72.18C102.22 71.5133 101.887 70.62 101.887 69.5V64.16H100.547V62.36H101.887V59.02H104.127V62.36H106.927V64.16H104.127ZM124.235 73H122.195V71.58C121.315 72.6333 120.135 73.16 118.655 73.16C117.548 73.16 116.628 72.8467 115.895 72.22C115.175 71.5933 114.815 70.76 114.815 69.72C114.815 68.6667 115.201 67.88 115.975 67.36C116.748 66.84 117.795 66.58 119.115 66.58H122.015V66.18C122.015 64.7667 121.228 64.06 119.655 64.06C118.668 64.06 117.641 64.42 116.575 65.14L115.575 63.74C116.868 62.7133 118.335 62.2 119.975 62.2C121.228 62.2 122.248 62.52 123.035 63.16C123.835 63.7867 124.235 64.78 124.235 66.14V73ZM121.995 69.04V68.14H119.475C117.861 68.14 117.055 68.6467 117.055 69.66C117.055 70.18 117.255 70.58 117.655 70.86C118.055 71.1267 118.608 71.26 119.315 71.26C120.035 71.26 120.661 71.06 121.195 70.66C121.728 70.26 121.995 69.72 121.995 69.04ZM121.675 61H119.635L117.195 59.08L119.555 58.1L121.675 61ZM135.481 73H133.241V58.16H135.481V73ZM147.549 73H145.509V71.58C144.629 72.6333 143.449 73.16 141.969 73.16C140.863 73.16 139.943 72.8467 139.209 72.22C138.489 71.5933 138.129 70.76 138.129 69.72C138.129 68.6667 138.516 67.88 139.289 67.36C140.063 66.84 141.109 66.58 142.429 66.58H145.329V66.18C145.329 64.7667 144.543 64.06 142.969 64.06C141.983 64.06 140.956 64.42 139.889 65.14L138.889 63.74C140.183 62.7133 141.649 62.2 143.289 62.2C144.543 62.2 145.563 62.52 146.349 63.16C147.149 63.7867 147.549 64.78 147.549 66.14V73ZM145.309 69.04V68.14H142.789C141.176 68.14 140.369 68.6467 140.369 69.66C140.369 70.18 140.569 70.58 140.969 70.86C141.369 71.1267 141.923 71.26 142.629 71.26C143.349 71.26 143.976 71.06 144.509 70.66C145.043 70.26 145.309 69.72 145.309 69.04ZM159.236 73H156.876V59.02H160.556L164.776 67.8L168.996 59.02H172.656V73H170.296V62.08L165.416 71.78H164.096L159.236 62.08V73ZM185.044 73H183.004V71.58C182.124 72.6333 180.944 73.16 179.464 73.16C178.357 73.16 177.437 72.8467 176.704 72.22C175.984 71.5933 175.624 70.76 175.624 69.72C175.624 68.6667 176.011 67.88 176.784 67.36C177.557 66.84 178.604 66.58 179.924 66.58H182.824V66.18C182.824 64.7667 182.037 64.06 180.464 64.06C179.477 64.06 178.451 64.42 177.384 65.14L176.384 63.74C177.677 62.7133 179.144 62.2 180.784 62.2C182.037 62.2 183.057 62.52 183.844 63.16C184.644 63.7867 185.044 64.78 185.044 66.14V73ZM182.804 69.04V68.14H180.284C178.671 68.14 177.864 68.6467 177.864 69.66C177.864 70.18 178.064 70.58 178.464 70.86C178.864 71.1267 179.417 71.26 180.124 71.26C180.844 71.26 181.471 71.06 182.004 70.66C182.537 70.26 182.804 69.72 182.804 69.04ZM192.702 73.16C191.356 73.16 190.182 72.6533 189.182 71.64C188.182 70.6267 187.682 69.2933 187.682 67.64C187.682 65.9867 188.196 64.6667 189.222 63.68C190.249 62.6933 191.469 62.2 192.882 62.2C194.309 62.2 195.456 62.8 196.322 64V58.16H198.562V73H196.322V71.4C195.496 72.5733 194.289 73.16 192.702 73.16ZM189.922 67.74C189.922 68.7533 190.249 69.58 190.902 70.22C191.556 70.86 192.322 71.18 193.202 71.18C194.082 71.18 194.829 70.86 195.442 70.22C196.056 69.5667 196.362 68.7333 196.362 67.72C196.362 66.7067 196.056 65.86 195.442 65.18C194.829 64.5 194.076 64.16 193.182 64.16C192.289 64.16 191.522 64.5 190.882 65.18C190.242 65.86 189.922 66.7133 189.922 67.74ZM204.24 73H202V62.36H204.24V73ZM202.14 60.24C201.86 59.96 201.72 59.6267 201.72 59.24C201.72 58.8533 201.86 58.52 202.14 58.24C202.42 57.96 202.753 57.82 203.14 57.82C203.526 57.82 203.86 57.96 204.14 58.24C204.42 58.52 204.56 58.8533 204.56 59.24C204.56 59.6267 204.42 59.96 204.14 60.24C203.86 60.52 203.526 60.66 203.14 60.66C202.753 60.66 202.42 60.52 202.14 60.24ZM215.268 69.82C215.268 70.8333 214.901 71.6467 214.168 72.26C213.435 72.86 212.495 73.16 211.348 73.16C210.575 73.16 209.768 73.02 208.928 72.74C208.101 72.46 207.368 72.0667 206.728 71.56L207.808 69.82C209.048 70.7533 210.248 71.22 211.408 71.22C211.915 71.22 212.315 71.1067 212.608 70.88C212.901 70.64 213.048 70.34 213.048 69.98C213.048 69.4467 212.341 68.9667 210.928 68.54C210.821 68.5 210.741 68.4733 210.688 68.46C208.475 67.86 207.368 66.86 207.368 65.46C207.368 64.4733 207.748 63.6867 208.508 63.1C209.281 62.5 210.281 62.2 211.508 62.2C212.735 62.2 213.895 62.56 214.988 63.28L214.148 64.94C213.281 64.3667 212.341 64.08 211.328 64.08C210.795 64.08 210.361 64.18 210.028 64.38C209.695 64.5667 209.528 64.8533 209.528 65.24C209.528 65.5867 209.701 65.84 210.048 66C210.288 66.12 210.621 66.2333 211.048 66.34C211.488 66.4467 211.875 66.5533 212.208 66.66C212.541 66.7667 212.861 66.8867 213.168 67.02C213.488 67.1533 213.828 67.34 214.188 67.58C214.908 68.06 215.268 68.8067 215.268 69.82ZM220.485 70.2C221.125 70.84 221.932 71.16 222.905 71.16C223.878 71.16 224.678 70.84 225.305 70.2C225.945 69.5467 226.265 68.7067 226.265 67.68C226.265 66.6533 225.945 65.82 225.305 65.18C224.678 64.5267 223.878 64.2 222.905 64.2C221.932 64.2 221.125 64.5267 220.485 65.18C219.858 65.82 219.545 66.6533 219.545 67.68C219.545 68.7067 219.858 69.5467 220.485 70.2ZM226.905 71.58C225.838 72.6333 224.505 73.16 222.905 73.16C221.305 73.16 219.972 72.6333 218.905 71.58C217.838 70.5133 217.305 69.2133 217.305 67.68C217.305 66.1467 217.838 64.8533 218.905 63.8C219.972 62.7333 221.305 62.2 222.905 62.2C224.505 62.2 225.838 62.7333 226.905 63.8C227.972 64.8533 228.505 66.1467 228.505 67.68C228.505 69.2133 227.972 70.5133 226.905 71.58ZM233.492 67.24V73H231.252V62.36H233.492V64.3C233.852 63.6467 234.345 63.1333 234.972 62.76C235.612 62.3867 236.299 62.2 237.032 62.2C238.232 62.2 239.199 62.5667 239.932 63.3C240.679 64.0333 241.052 65.0933 241.052 66.48V73H238.812V67.16C238.812 65.2 237.999 64.22 236.372 64.22C235.599 64.22 234.925 64.48 234.352 65C233.779 65.5067 233.492 66.2533 233.492 67.24ZM261.87 64.28H259.71L259.13 67.6H261.59L261.15 69.8H258.77L258.21 73H255.99L256.55 69.8H253.61L253.05 73H250.81L251.37 69.8H249.31L249.75 67.6H251.75L252.33 64.28H250.05L250.49 62.08H252.71L253.29 58.68H255.51L254.93 62.08H257.87L258.45 58.68H260.69L260.07 62.08H262.31L261.87 64.28ZM257.51 64.28H254.57L253.97 67.6H256.91L257.51 64.28ZM263.937 59.02H269.017V73H266.777V61.12H263.937V59.02ZM29.52 91.98C28.9867 93.6333 28.72 95.2267 28.72 96.76C28.72 98.2933 28.9867 99.8933 29.52 101.56C30.0533 103.213 30.7067 104.58 31.48 105.66H29.1C28.4467 104.753 27.8467 103.46 27.3 101.78C26.7667 100.1 26.5 98.4267 26.5 96.76C26.5 95.0933 26.7667 93.42 27.3 91.74C27.8467 90.06 28.4467 88.7667 29.1 87.86H31.48C30.7067 88.94 30.0533 90.3133 29.52 91.98ZM34.2806 103V89.02H36.6406V100.76H43.0206V103H34.2806ZM43.6705 93.94V89.02H45.2305V93.94H43.6705ZM50.8389 103H48.5989V92.36H50.8389V103ZM48.7389 90.24C48.4589 89.96 48.3189 89.6267 48.3189 89.24C48.3189 88.8533 48.4589 88.52 48.7389 88.24C49.0189 87.96 49.3522 87.82 49.7389 87.82C50.1256 87.82 50.4589 87.96 50.7389 88.24C51.0189 88.52 51.1589 88.8533 51.1589 89.24C51.1589 89.6267 51.0189 89.96 50.7389 90.24C50.4589 90.52 50.1256 90.66 49.7389 90.66C49.3522 90.66 49.0189 90.52 48.7389 90.24ZM56.5272 97.24V103H54.2872V92.36H56.5272V94.3C56.8872 93.6467 57.3805 93.1333 58.0072 92.76C58.6472 92.3867 59.3339 92.2 60.0672 92.2C61.2672 92.2 62.2339 92.5667 62.9672 93.3C63.7139 94.0333 64.0872 95.0933 64.0872 96.48V103H61.8472V97.16C61.8472 95.2 61.0339 94.22 59.4072 94.22C58.6339 94.22 57.9605 94.48 57.3872 95C56.8139 95.5067 56.5272 96.2533 56.5272 97.24ZM70.0402 94.16V99.56C70.0402 100.067 70.1735 100.473 70.4402 100.78C70.7068 101.073 71.0802 101.22 71.5602 101.22C72.0402 101.22 72.5002 100.987 72.9402 100.52L73.8602 102.1C73.0735 102.807 72.2002 103.16 71.2402 103.16C70.2935 103.16 69.4802 102.833 68.8002 102.18C68.1335 101.513 67.8002 100.62 67.8002 99.5V94.16H66.4602V92.36H67.8002V89.02H70.0402V92.36H72.8402V94.16H70.0402ZM85.7395 98.66H77.3995C77.4529 99.4333 77.8062 100.06 78.4595 100.54C79.1129 101.007 79.8595 101.24 80.6995 101.24C82.0329 101.24 83.0462 100.82 83.7395 99.98L85.0195 101.38C83.8729 102.567 82.3795 103.16 80.5395 103.16C79.0462 103.16 77.7729 102.667 76.7195 101.68C75.6795 100.68 75.1595 99.3467 75.1595 97.68C75.1595 96 75.6929 94.6667 76.7595 93.68C77.8262 92.6933 79.0795 92.2 80.5195 92.2C81.9729 92.2 83.2062 92.64 84.2195 93.52C85.2329 94.3867 85.7395 95.5867 85.7395 97.12V98.66ZM77.3995 96.9H83.4995C83.4995 96.0067 83.2195 95.32 82.6595 94.84C82.0995 94.36 81.4062 94.12 80.5795 94.12C79.7662 94.12 79.0329 94.3733 78.3795 94.88C77.7262 95.3733 77.3995 96.0467 77.3995 96.9ZM98.2428 92.36V101.64C98.2428 103.52 97.7295 104.927 96.7028 105.86C95.6895 106.807 94.3828 107.28 92.7828 107.28C91.1828 107.28 89.7361 106.78 88.4428 105.78L89.5028 104.08C90.5428 104.867 91.5895 105.26 92.6428 105.26C93.7095 105.26 94.5495 104.987 95.1628 104.44C95.7895 103.893 96.1028 103.02 96.1028 101.82V100.46C95.7695 101.087 95.2895 101.587 94.6628 101.96C94.0495 102.333 93.3561 102.52 92.5828 102.52C91.1695 102.52 90.0095 102.027 89.1028 101.04C88.1961 100.053 87.7428 98.8267 87.7428 97.36C87.7428 95.8933 88.1961 94.6667 89.1028 93.68C90.0095 92.6933 91.1628 92.2 92.5628 92.2C93.9761 92.2 95.1228 92.78 96.0028 93.94V92.36H98.2428ZM89.9428 97.28C89.9428 98.1467 90.2095 98.9 90.7428 99.54C91.2895 100.167 92.0161 100.48 92.9228 100.48C93.8428 100.48 94.5828 100.173 95.1428 99.56C95.7161 98.9467 96.0028 98.1867 96.0028 97.28C96.0028 96.36 95.7161 95.5867 95.1428 94.96C94.5695 94.32 93.8295 94 92.9228 94C92.0161 94 91.2895 94.3267 90.7428 94.98C90.2095 95.6333 89.9428 96.4 89.9428 97.28ZM107.269 94.46C106.162 94.46 105.329 94.82 104.769 95.54C104.209 96.26 103.929 97.2267 103.929 98.44V103H101.689V92.36H103.929V94.5C104.289 93.8333 104.775 93.2867 105.389 92.86C106.015 92.4333 106.675 92.2133 107.369 92.2L107.389 94.46C107.349 94.46 107.309 94.46 107.269 94.46ZM118.36 103H116.32V101.58C115.44 102.633 114.26 103.16 112.78 103.16C111.674 103.16 110.754 102.847 110.02 102.22C109.3 101.593 108.94 100.76 108.94 99.72C108.94 98.6667 109.327 97.88 110.1 97.36C110.874 96.84 111.92 96.58 113.24 96.58H116.14V96.18C116.14 94.7667 115.354 94.06 113.78 94.06C112.794 94.06 111.767 94.42 110.7 95.14L109.7 93.74C110.994 92.7133 112.46 92.2 114.1 92.2C115.354 92.2 116.374 92.52 117.16 93.16C117.96 93.7867 118.36 94.78 118.36 96.14V103ZM116.12 99.04V98.14H113.6C111.987 98.14 111.18 98.6467 111.18 99.66C111.18 100.18 111.38 100.58 111.78 100.86C112.18 101.127 112.734 101.26 113.44 101.26C114.16 101.26 114.787 101.06 115.32 100.66C115.854 100.26 116.12 99.72 116.12 99.04ZM123.919 103H121.679V88.16H123.919V103ZM128.367 101.56C128.9 99.8933 129.167 98.2933 129.167 96.76C129.167 95.2267 128.9 93.6333 128.367 91.98C127.834 90.3133 127.18 88.94 126.407 87.86H128.787C129.44 88.7667 130.034 90.06 130.567 91.74C131.114 93.42 131.387 95.0933 131.387 96.76C131.387 98.4267 131.114 100.1 130.567 101.78C130.034 103.46 129.44 104.753 128.787 105.66H126.407C127.18 104.58 127.834 103.213 128.367 101.56Z" fill="#252B42"/>
<path d="M29.91 133.256L32.094 126.214H33.578L35.762 133.256L38.226 126.214H40.004L36.588 136H34.95L32.892 129.294H32.78L30.722 136H29.084L25.668 126.214H27.446L29.91 133.256ZM48.4339 132.962H42.5959C42.6333 133.503 42.8806 133.942 43.3379 134.278C43.7953 134.605 44.3179 134.768 44.9059 134.768C45.8393 134.768 46.5486 134.474 47.0339 133.886L47.9299 134.866C47.1273 135.697 46.0819 136.112 44.7939 136.112C43.7486 136.112 42.8573 135.767 42.1199 135.076C41.3919 134.376 41.0279 133.443 41.0279 132.276C41.0279 131.1 41.4013 130.167 42.1479 129.476C42.8946 128.785 43.7719 128.44 44.7799 128.44C45.7973 128.44 46.6606 128.748 47.3699 129.364C48.0793 129.971 48.4339 130.811 48.4339 131.884V132.962ZM42.5959 131.73H46.8659C46.8659 131.105 46.6699 130.624 46.2779 130.288C45.8859 129.952 45.4006 129.784 44.8219 129.784C44.2526 129.784 43.7393 129.961 43.2819 130.316C42.8246 130.661 42.5959 131.133 42.5959 131.73ZM56.332 127.936V128.552H58.292V129.812H56.332V136H54.764V129.812H53.826V128.552H54.764V127.978C54.764 127.194 54.9973 126.573 55.464 126.116C55.94 125.649 56.5093 125.416 57.172 125.416C57.844 125.416 58.4553 125.663 59.006 126.158L58.362 127.264C58.054 126.937 57.732 126.774 57.396 126.774C57.06 126.774 56.7987 126.881 56.612 127.096C56.4253 127.301 56.332 127.581 56.332 127.936ZM61.5587 134.04C62.0067 134.488 62.5713 134.712 63.2527 134.712C63.934 134.712 64.494 134.488 64.9327 134.04C65.3807 133.583 65.6047 132.995 65.6047 132.276C65.6047 131.557 65.3807 130.974 64.9327 130.526C64.494 130.069 63.934 129.84 63.2527 129.84C62.5713 129.84 62.0067 130.069 61.5587 130.526C61.12 130.974 60.9007 131.557 60.9007 132.276C60.9007 132.995 61.12 133.583 61.5587 134.04ZM66.0527 135.006C65.306 135.743 64.3727 136.112 63.2527 136.112C62.1327 136.112 61.1993 135.743 60.4527 135.006C59.706 134.259 59.3327 133.349 59.3327 132.276C59.3327 131.203 59.706 130.297 60.4527 129.56C61.1993 128.813 62.1327 128.44 63.2527 128.44C64.3727 128.44 65.306 128.813 66.0527 129.56C66.7993 130.297 67.1727 131.203 67.1727 132.276C67.1727 133.349 66.7993 134.259 66.0527 135.006ZM72.4595 136.112C71.4235 136.112 70.5322 135.762 69.7855 135.062C69.0388 134.353 68.6655 133.429 68.6655 132.29C68.6655 131.151 69.0528 130.227 69.8275 129.518C70.6115 128.799 71.5635 128.44 72.6835 128.44C73.8035 128.44 74.7508 128.827 75.5255 129.602L74.6015 130.736C73.9575 130.176 73.3088 129.896 72.6555 129.896C72.0022 129.896 71.4328 130.115 70.9475 130.554C70.4715 130.983 70.2335 131.543 70.2335 132.234C70.2335 132.915 70.4715 133.494 70.9475 133.97C71.4235 134.446 72.0068 134.684 72.6975 134.684C73.3975 134.684 74.0555 134.367 74.6715 133.732L75.5955 134.74C74.6902 135.655 73.6448 136.112 72.4595 136.112ZM82.6299 132.584V128.552H84.1979V136H82.6299V134.642C82.3779 135.099 82.0279 135.459 81.5799 135.72C81.1412 135.981 80.6652 136.112 80.1519 136.112C79.3119 136.112 78.6306 135.855 78.1079 135.342C77.5946 134.829 77.3379 134.087 77.3379 133.116V128.552H78.9059V132.64C78.9059 134.012 79.4752 134.698 80.6139 134.698C81.1552 134.698 81.6266 134.521 82.0279 134.166C82.4292 133.802 82.6299 133.275 82.6299 132.584ZM91.9787 133.774C91.9787 134.483 91.722 135.053 91.2087 135.482C90.6953 135.902 90.0373 136.112 89.2347 136.112C88.6933 136.112 88.1287 136.014 87.5407 135.818C86.962 135.622 86.4487 135.347 86.0007 134.992L86.7567 133.774C87.6247 134.427 88.4647 134.754 89.2767 134.754C89.6313 134.754 89.9113 134.675 90.1167 134.516C90.322 134.348 90.4247 134.138 90.4247 133.886C90.4247 133.513 89.93 133.177 88.9407 132.878C88.866 132.85 88.81 132.831 88.7727 132.822C87.2233 132.402 86.4487 131.702 86.4487 130.722C86.4487 130.031 86.7147 129.481 87.2467 129.07C87.788 128.65 88.488 128.44 89.3467 128.44C90.2053 128.44 91.0173 128.692 91.7827 129.196L91.1947 130.358C90.588 129.957 89.93 129.756 89.2207 129.756C88.8473 129.756 88.544 129.826 88.3107 129.966C88.0773 130.097 87.9607 130.297 87.9607 130.568C87.9607 130.811 88.082 130.988 88.3247 131.1C88.4927 131.184 88.726 131.263 89.0247 131.338C89.3327 131.413 89.6033 131.487 89.8367 131.562C90.07 131.637 90.294 131.721 90.5087 131.814C90.7327 131.907 90.9707 132.038 91.2227 132.206C91.7267 132.542 91.9787 133.065 91.9787 133.774ZM99.7325 134.04C100.181 134.488 100.745 134.712 101.427 134.712C102.108 134.712 102.668 134.488 103.107 134.04C103.555 133.583 103.779 132.995 103.779 132.276C103.779 131.557 103.555 130.974 103.107 130.526C102.668 130.069 102.108 129.84 101.427 129.84C100.745 129.84 100.181 130.069 99.7325 130.526C99.2938 130.974 99.0745 131.557 99.0745 132.276C99.0745 132.995 99.2938 133.583 99.7325 134.04ZM104.227 135.006C103.48 135.743 102.547 136.112 101.427 136.112C100.307 136.112 99.3732 135.743 98.6265 135.006C97.8798 134.259 97.5065 133.349 97.5065 132.276C97.5065 131.203 97.8798 130.297 98.6265 129.56C99.3732 128.813 100.307 128.44 101.427 128.44C102.547 128.44 103.48 128.813 104.227 129.56C104.973 130.297 105.347 131.203 105.347 132.276C105.347 133.349 104.973 134.259 104.227 135.006ZM108.897 131.968V136H107.329V128.552H108.897V129.91C109.149 129.453 109.495 129.093 109.933 128.832C110.381 128.571 110.862 128.44 111.375 128.44C112.215 128.44 112.892 128.697 113.405 129.21C113.928 129.723 114.189 130.465 114.189 131.436V136H112.621V131.912C112.621 130.54 112.052 129.854 110.913 129.854C110.372 129.854 109.901 130.036 109.499 130.4C109.098 130.755 108.897 131.277 108.897 131.968ZM127.552 132.962H121.714C121.751 133.503 121.999 133.942 122.456 134.278C122.913 134.605 123.436 134.768 124.024 134.768C124.957 134.768 125.667 134.474 126.152 133.886L127.048 134.866C126.245 135.697 125.2 136.112 123.912 136.112C122.867 136.112 121.975 135.767 121.238 135.076C120.51 134.376 120.146 133.443 120.146 132.276C120.146 131.1 120.519 130.167 121.266 129.476C122.013 128.785 122.89 128.44 123.898 128.44C124.915 128.44 125.779 128.748 126.488 129.364C127.197 129.971 127.552 130.811 127.552 131.884V132.962ZM121.714 131.73H125.984C125.984 131.105 125.788 130.624 125.396 130.288C125.004 129.952 124.519 129.784 123.94 129.784C123.371 129.784 122.857 129.961 122.4 130.316C121.943 130.661 121.714 131.133 121.714 131.73ZM133.382 130.022C132.608 130.022 132.024 130.274 131.632 130.778C131.24 131.282 131.044 131.959 131.044 132.808V136H129.476V128.552H131.044V130.05C131.296 129.583 131.637 129.201 132.066 128.902C132.505 128.603 132.967 128.449 133.452 128.44L133.466 130.022C133.438 130.022 133.41 130.022 133.382 130.022ZM142.129 128.552V135.048C142.129 136.364 141.769 137.349 141.051 138.002C140.341 138.665 139.427 138.996 138.307 138.996C137.187 138.996 136.174 138.646 135.269 137.946L136.011 136.756C136.739 137.307 137.471 137.582 138.209 137.582C138.955 137.582 139.543 137.391 139.973 137.008C140.411 136.625 140.631 136.014 140.631 135.174V134.222C140.397 134.661 140.061 135.011 139.623 135.272C139.193 135.533 138.708 135.664 138.167 135.664C137.177 135.664 136.365 135.319 135.731 134.628C135.096 133.937 134.779 133.079 134.779 132.052C134.779 131.025 135.096 130.167 135.731 129.476C136.365 128.785 137.173 128.44 138.153 128.44C139.142 128.44 139.945 128.846 140.561 129.658V128.552H142.129ZM136.319 131.996C136.319 132.603 136.505 133.13 136.879 133.578C137.261 134.017 137.77 134.236 138.405 134.236C139.049 134.236 139.567 134.021 139.959 133.592C140.36 133.163 140.561 132.631 140.561 131.996C140.561 131.352 140.36 130.811 139.959 130.372C139.557 129.924 139.039 129.7 138.405 129.7C137.77 129.7 137.261 129.929 136.879 130.386C136.505 130.843 136.319 131.38 136.319 131.996ZM146.337 134.04C146.785 134.488 147.349 134.712 148.031 134.712C148.712 134.712 149.272 134.488 149.711 134.04C150.159 133.583 150.383 132.995 150.383 132.276C150.383 131.557 150.159 130.974 149.711 130.526C149.272 130.069 148.712 129.84 148.031 129.84C147.349 129.84 146.785 130.069 146.337 130.526C145.898 130.974 145.679 131.557 145.679 132.276C145.679 132.995 145.898 133.583 146.337 134.04ZM150.831 135.006C150.084 135.743 149.151 136.112 148.031 136.112C146.911 136.112 145.977 135.743 145.231 135.006C144.484 134.259 144.111 133.349 144.111 132.276C144.111 131.203 144.484 130.297 145.231 129.56C145.977 128.813 146.911 128.44 148.031 128.44C149.151 128.44 150.084 128.813 150.831 129.56C151.577 130.297 151.951 131.203 151.951 132.276C151.951 133.349 151.577 134.259 150.831 135.006ZM155.502 131.968V136H153.934V128.552H155.502V129.91C155.754 129.453 156.099 129.093 156.538 128.832C156.986 128.571 157.466 128.44 157.98 128.44C158.82 128.44 159.496 128.697 160.01 129.21C160.532 129.723 160.794 130.465 160.794 131.436V136H159.226V131.912C159.226 130.54 158.656 129.854 157.518 129.854C156.976 129.854 156.505 130.036 156.104 130.4C155.702 130.755 155.502 131.277 155.502 131.968ZM164.92 134.04C165.368 134.488 165.933 134.712 166.614 134.712C167.296 134.712 167.856 134.488 168.294 134.04C168.742 133.583 168.966 132.995 168.966 132.276C168.966 131.557 168.742 130.974 168.294 130.526C167.856 130.069 167.296 129.84 166.614 129.84C165.933 129.84 165.368 130.069 164.92 130.526C164.482 130.974 164.262 131.557 164.262 132.276C164.262 132.995 164.482 133.583 164.92 134.04ZM169.414 135.006C168.668 135.743 167.734 136.112 166.614 136.112C165.494 136.112 164.561 135.743 163.814 135.006C163.068 134.259 162.694 133.349 162.694 132.276C162.694 131.203 163.068 130.297 163.814 129.56C164.561 128.813 165.494 128.44 166.614 128.44C167.734 128.44 168.668 128.813 169.414 129.56C170.161 130.297 170.534 131.203 170.534 132.276C170.534 133.349 170.161 134.259 169.414 135.006ZM174.085 131.968V136H172.517V128.552H174.085V129.91C174.309 129.453 174.645 129.093 175.093 128.832C175.551 128.571 176.041 128.44 176.563 128.44C177.739 128.44 178.537 128.925 178.957 129.896C179.695 128.925 180.614 128.44 181.715 128.44C182.555 128.44 183.232 128.697 183.745 129.21C184.268 129.723 184.529 130.465 184.529 131.436V136H182.961V131.912C182.961 130.54 182.392 129.854 181.253 129.854C180.721 129.854 180.255 130.027 179.853 130.372C179.461 130.708 179.256 131.203 179.237 131.856V136H177.669V131.912C177.669 131.203 177.543 130.685 177.291 130.358C177.039 130.022 176.643 129.854 176.101 129.854C175.56 129.854 175.089 130.036 174.687 130.4C174.286 130.755 174.085 131.277 174.085 131.968ZM188.477 136H186.909V128.552H188.477V136ZM187.007 127.068C186.811 126.872 186.713 126.639 186.713 126.368C186.713 126.097 186.811 125.864 187.007 125.668C187.203 125.472 187.436 125.374 187.707 125.374C187.977 125.374 188.211 125.472 188.407 125.668C188.603 125.864 188.701 126.097 188.701 126.368C188.701 126.639 188.603 126.872 188.407 127.068C188.211 127.264 187.977 127.362 187.707 127.362C187.436 127.362 187.203 127.264 187.007 127.068ZM194.254 136.112C193.218 136.112 192.327 135.762 191.58 135.062C190.834 134.353 190.46 133.429 190.46 132.29C190.46 131.151 190.848 130.227 191.622 129.518C192.406 128.799 193.358 128.44 194.478 128.44C195.598 128.44 196.546 128.827 197.32 129.602L196.396 130.736C195.752 130.176 195.104 129.896 194.45 129.896C193.797 129.896 193.228 130.115 192.742 130.554C192.266 130.983 192.028 131.543 192.028 132.234C192.028 132.915 192.266 133.494 192.742 133.97C193.218 134.446 193.802 134.684 194.492 134.684C195.192 134.684 195.85 134.367 196.466 133.732L197.39 134.74C196.485 135.655 195.44 136.112 194.254 136.112ZM204.468 133.774C204.468 134.483 204.211 135.053 203.698 135.482C203.185 135.902 202.527 136.112 201.724 136.112C201.183 136.112 200.618 136.014 200.03 135.818C199.451 135.622 198.938 135.347 198.49 134.992L199.246 133.774C200.114 134.427 200.954 134.754 201.766 134.754C202.121 134.754 202.401 134.675 202.606 134.516C202.811 134.348 202.914 134.138 202.914 133.886C202.914 133.513 202.419 133.177 201.43 132.878C201.355 132.85 201.299 132.831 201.262 132.822C199.713 132.402 198.938 131.702 198.938 130.722C198.938 130.031 199.204 129.481 199.736 129.07C200.277 128.65 200.977 128.44 201.836 128.44C202.695 128.44 203.507 128.692 204.272 129.196L203.684 130.358C203.077 129.957 202.419 129.756 201.71 129.756C201.337 129.756 201.033 129.826 200.8 129.966C200.567 130.097 200.45 130.297 200.45 130.568C200.45 130.811 200.571 130.988 200.814 131.1C200.982 131.184 201.215 131.263 201.514 131.338C201.822 131.413 202.093 131.487 202.326 131.562C202.559 131.637 202.783 131.721 202.998 131.814C203.222 131.907 203.46 132.038 203.712 132.206C204.216 132.542 204.468 133.065 204.468 133.774ZM216.52 136H215.092V135.006C214.476 135.743 213.65 136.112 212.614 136.112C211.839 136.112 211.195 135.893 210.682 135.454C210.178 135.015 209.926 134.432 209.926 133.704C209.926 132.967 210.197 132.416 210.738 132.052C211.279 131.688 212.012 131.506 212.936 131.506H214.966V131.226C214.966 130.237 214.415 129.742 213.314 129.742C212.623 129.742 211.905 129.994 211.158 130.498L210.458 129.518C211.363 128.799 212.39 128.44 213.538 128.44C214.415 128.44 215.129 128.664 215.68 129.112C216.24 129.551 216.52 130.246 216.52 131.198V136ZM214.952 133.228V132.598H213.188C212.059 132.598 211.494 132.953 211.494 133.662C211.494 134.026 211.634 134.306 211.914 134.502C212.194 134.689 212.581 134.782 213.076 134.782C213.58 134.782 214.019 134.642 214.392 134.362C214.765 134.082 214.952 133.704 214.952 133.228ZM220.471 131.968V136H218.903V128.552H220.471V129.91C220.723 129.453 221.068 129.093 221.507 128.832C221.955 128.571 222.435 128.44 222.949 128.44C223.789 128.44 224.465 128.697 224.979 129.21C225.501 129.723 225.763 130.465 225.763 131.436V136H224.195V131.912C224.195 130.54 223.625 129.854 222.487 129.854C221.945 129.854 221.474 130.036 221.073 130.4C220.671 130.755 220.471 131.277 220.471 131.968ZM231.192 136.112C230.249 136.112 229.428 135.757 228.728 135.048C228.028 134.339 227.678 133.405 227.678 132.248C227.678 131.091 228.037 130.167 228.756 129.476C229.474 128.785 230.328 128.44 231.318 128.44C232.316 128.44 233.119 128.86 233.726 129.7V125.612H235.294V136H233.726V134.88C233.147 135.701 232.302 136.112 231.192 136.112ZM229.246 132.318C229.246 133.027 229.474 133.606 229.932 134.054C230.389 134.502 230.926 134.726 231.542 134.726C232.158 134.726 232.68 134.502 233.11 134.054C233.539 133.597 233.754 133.013 233.754 132.304C233.754 131.595 233.539 131.002 233.11 130.526C232.68 130.05 232.153 129.812 231.528 129.812C230.902 129.812 230.366 130.05 229.918 130.526C229.47 131.002 229.246 131.599 229.246 132.318ZM243.37 131.968V136H241.802V128.552H243.37V129.91C243.594 129.453 243.93 129.093 244.378 128.832C244.835 128.571 245.325 128.44 245.848 128.44C247.024 128.44 247.822 128.925 248.242 129.896C248.979 128.925 249.898 128.44 251 128.44C251.84 128.44 252.516 128.697 253.03 129.21C253.552 129.723 253.814 130.465 253.814 131.436V136H252.246V131.912C252.246 130.54 251.676 129.854 250.538 129.854C250.006 129.854 249.539 130.027 249.138 130.372C248.746 130.708 248.54 131.203 248.522 131.856V136H246.954V131.912C246.954 131.203 246.828 130.685 246.576 130.358C246.324 130.022 245.927 129.854 245.386 129.854C244.844 129.854 244.373 130.036 243.972 130.4C243.57 130.755 243.37 131.277 243.37 131.968ZM263.123 132.962H257.285C257.322 133.503 257.57 133.942 258.027 134.278C258.484 134.605 259.007 134.768 259.595 134.768C260.528 134.768 261.238 134.474 261.723 133.886L262.619 134.866C261.816 135.697 260.771 136.112 259.483 136.112C258.438 136.112 257.546 135.767 256.809 135.076C256.081 134.376 255.717 133.443 255.717 132.276C255.717 131.1 256.09 130.167 256.837 129.476C257.584 128.785 258.461 128.44 259.469 128.44C260.486 128.44 261.35 128.748 262.059 129.364C262.768 129.971 263.123 130.811 263.123 131.884V132.962ZM257.285 131.73H261.555C261.555 131.105 261.359 130.624 260.967 130.288C260.575 129.952 260.09 129.784 259.511 129.784C258.942 129.784 258.428 129.961 257.971 130.316C257.514 130.661 257.285 131.133 257.285 131.73ZM271.977 132.962H266.139C266.177 133.503 266.424 133.942 266.881 134.278C267.339 134.605 267.861 134.768 268.449 134.768C269.383 134.768 270.092 134.474 270.577 133.886L271.473 134.866C270.671 135.697 269.625 136.112 268.337 136.112C267.292 136.112 266.401 135.767 265.663 135.076C264.935 134.376 264.571 133.443 264.571 132.276C264.571 131.1 264.945 130.167 265.691 129.476C266.438 128.785 267.315 128.44 268.323 128.44C269.341 128.44 270.204 128.748 270.913 129.364C271.623 129.971 271.977 130.811 271.977 131.884V132.962ZM266.139 131.73H270.409C270.409 131.105 270.213 130.624 269.821 130.288C269.429 129.952 268.944 129.784 268.365 129.784C267.796 129.784 267.283 129.961 266.825 130.316C266.368 130.661 266.139 131.133 266.139 131.73ZM275.779 129.812V133.592C275.779 133.947 275.872 134.231 276.059 134.446C276.246 134.651 276.507 134.754 276.843 134.754C277.179 134.754 277.501 134.591 277.809 134.264L278.453 135.37C277.902 135.865 277.291 136.112 276.619 136.112C275.956 136.112 275.387 135.883 274.911 135.426C274.444 134.959 274.211 134.334 274.211 133.55V129.812H273.273V128.552H274.211V126.214H275.779V128.552H277.739V129.812H275.779ZM281.466 136H279.898V128.552H281.466V136ZM279.996 127.068C279.8 126.872 279.702 126.639 279.702 126.368C279.702 126.097 279.8 125.864 279.996 125.668C280.192 125.472 280.426 125.374 280.696 125.374C280.967 125.374 281.2 125.472 281.396 125.668C281.592 125.864 281.69 126.097 281.69 126.368C281.69 126.639 281.592 126.872 281.396 127.068C281.2 127.264 280.967 127.362 280.696 127.362C280.426 127.362 280.192 127.264 279.996 127.068ZM285.508 131.968V136H283.94V128.552H285.508V129.91C285.76 129.453 286.106 129.093 286.544 128.832C286.992 128.571 287.473 128.44 287.986 128.44C288.826 128.44 289.503 128.697 290.016 129.21C290.539 129.723 290.8 130.465 290.8 131.436V136H289.232V131.912C289.232 130.54 288.663 129.854 287.524 129.854C286.983 129.854 286.512 130.036 286.11 130.4C285.709 130.755 285.508 131.277 285.508 131.968ZM300.079 128.552V135.048C300.079 136.364 299.72 137.349 299.001 138.002C298.292 138.665 297.377 138.996 296.257 138.996C295.137 138.996 294.124 138.646 293.219 137.946L293.961 136.756C294.689 137.307 295.422 137.582 296.159 137.582C296.906 137.582 297.494 137.391 297.923 137.008C298.362 136.625 298.581 136.014 298.581 135.174V134.222C298.348 134.661 298.012 135.011 297.573 135.272C297.144 135.533 296.658 135.664 296.117 135.664C295.128 135.664 294.316 135.319 293.681 134.628C293.046 133.937 292.729 133.079 292.729 132.052C292.729 131.025 293.046 130.167 293.681 129.476C294.316 128.785 295.123 128.44 296.103 128.44C297.092 128.44 297.895 128.846 298.511 129.658V128.552H300.079ZM294.269 131.996C294.269 132.603 294.456 133.13 294.829 133.578C295.212 134.017 295.72 134.236 296.355 134.236C296.999 134.236 297.517 134.021 297.909 133.592C298.31 133.163 298.511 132.631 298.511 131.996C298.511 131.352 298.31 130.811 297.909 130.372C297.508 129.924 296.99 129.7 296.355 129.7C295.72 129.7 295.212 129.929 294.829 130.386C294.456 130.843 294.269 131.38 294.269 131.996ZM27.572 158.968C26.8907 158.968 26.2747 158.721 25.724 158.226L26.438 156.952C26.7647 157.26 27.1007 157.414 27.446 157.414C27.8007 157.414 28.0853 157.288 28.3 157.036C28.524 156.784 28.636 156.509 28.636 156.21C28.636 156.079 27.6327 153.527 25.626 148.552H27.306L29.532 154.04L31.758 148.552H33.438L29.826 157.4C29.6113 157.885 29.3033 158.268 28.902 158.548C28.5007 158.828 28.0573 158.968 27.572 158.968ZM36.486 154.04C36.934 154.488 37.4987 154.712 38.18 154.712C38.8613 154.712 39.4213 154.488 39.86 154.04C40.308 153.583 40.532 152.995 40.532 152.276C40.532 151.557 40.308 150.974 39.86 150.526C39.4213 150.069 38.8613 149.84 38.18 149.84C37.4987 149.84 36.934 150.069 36.486 150.526C36.0473 150.974 35.828 151.557 35.828 152.276C35.828 152.995 36.0473 153.583 36.486 154.04ZM40.98 155.006C40.2333 155.743 39.3 156.112 38.18 156.112C37.06 156.112 36.1267 155.743 35.38 155.006C34.6333 154.259 34.26 153.349 34.26 152.276C34.26 151.203 34.6333 150.297 35.38 149.56C36.1267 148.813 37.06 148.44 38.18 148.44C39.3 148.44 40.2333 148.813 40.98 149.56C41.7267 150.297 42.1 151.203 42.1 152.276C42.1 153.349 41.7267 154.259 40.98 155.006ZM49.2908 152.584V148.552H50.8588V156H49.2908V154.642C49.0388 155.099 48.6888 155.459 48.2408 155.72C47.8022 155.981 47.3262 156.112 46.8128 156.112C45.9728 156.112 45.2915 155.855 44.7688 155.342C44.2555 154.829 43.9988 154.087 43.9988 153.116V148.552H45.5668V152.64C45.5668 154.012 46.1362 154.698 47.2748 154.698C47.8162 154.698 48.2875 154.521 48.6888 154.166C49.0902 153.802 49.2908 153.275 49.2908 152.584ZM60.8614 156H59.0694L56.4934 148.552H58.1174L59.9654 154.18L61.8134 148.552H63.4374L65.2854 154.18L67.1334 148.552H68.7574L66.1814 156H64.3894L62.6254 150.904L60.8614 156ZM71.9129 151.968V156H70.3449V145.626H71.9129V149.91C72.1369 149.453 72.4729 149.093 72.9209 148.832C73.3783 148.571 73.8683 148.44 74.3909 148.44C75.2309 148.44 75.9076 148.697 76.4209 149.21C76.9436 149.723 77.2049 150.465 77.2049 151.436V156H75.6369V151.912C75.6369 150.54 75.0676 149.854 73.9289 149.854C73.3876 149.854 72.9163 150.036 72.5149 150.4C72.1136 150.755 71.9129 151.277 71.9129 151.968ZM86.5257 152.962H80.6877C80.7251 153.503 80.9724 153.942 81.4297 154.278C81.8871 154.605 82.4097 154.768 82.9977 154.768C83.9311 154.768 84.6404 154.474 85.1257 153.886L86.0217 154.866C85.2191 155.697 84.1737 156.112 82.8857 156.112C81.8404 156.112 80.9491 155.767 80.2117 155.076C79.4837 154.376 79.1197 153.443 79.1197 152.276C79.1197 151.1 79.4931 150.167 80.2397 149.476C80.9864 148.785 81.8637 148.44 82.8717 148.44C83.8891 148.44 84.7524 148.748 85.4617 149.364C86.1711 149.971 86.5257 150.811 86.5257 151.884V152.962ZM80.6877 151.73H84.9577C84.9577 151.105 84.7617 150.624 84.3697 150.288C83.9777 149.952 83.4924 149.784 82.9137 149.784C82.3444 149.784 81.8311 149.961 81.3737 150.316C80.9164 150.661 80.6877 151.133 80.6877 151.73ZM92.356 150.022C91.5814 150.022 90.998 150.274 90.606 150.778C90.214 151.282 90.018 151.959 90.018 152.808V156H88.45V148.552H90.018V150.05C90.27 149.583 90.6107 149.201 91.04 148.902C91.4787 148.603 91.9407 148.449 92.426 148.44L92.44 150.022C92.412 150.022 92.384 150.022 92.356 150.022ZM101.144 152.962H95.3065C95.3438 153.503 95.5911 153.942 96.0485 154.278C96.5058 154.605 97.0285 154.768 97.6165 154.768C98.5498 154.768 99.2591 154.474 99.7445 153.886L100.64 154.866C99.8378 155.697 98.7925 156.112 97.5045 156.112C96.4591 156.112 95.5678 155.767 94.8305 155.076C94.1025 154.376 93.7385 153.443 93.7385 152.276C93.7385 151.1 94.1118 150.167 94.8585 149.476C95.6051 148.785 96.4825 148.44 97.4905 148.44C98.5078 148.44 99.3711 148.748 100.08 149.364C100.79 149.971 101.144 150.811 101.144 151.884V152.962ZM95.3065 151.73H99.5765C99.5765 151.105 99.3805 150.624 98.9885 150.288C98.5965 149.952 98.1111 149.784 97.5325 149.784C96.9631 149.784 96.4498 149.961 95.9925 150.316C95.5351 150.661 95.3065 151.133 95.3065 151.73ZM108.049 158.968C107.367 158.968 106.751 158.721 106.201 158.226L106.915 156.952C107.241 157.26 107.577 157.414 107.923 157.414C108.277 157.414 108.562 157.288 108.777 157.036C109.001 156.784 109.113 156.509 109.113 156.21C109.113 156.079 108.109 153.527 106.103 148.552H107.783L110.009 154.04L112.235 148.552H113.915L110.303 157.4C110.088 157.885 109.78 158.268 109.379 158.548C108.977 158.828 108.534 158.968 108.049 158.968ZM116.963 154.04C117.411 154.488 117.975 154.712 118.657 154.712C119.338 154.712 119.898 154.488 120.337 154.04C120.785 153.583 121.009 152.995 121.009 152.276C121.009 151.557 120.785 150.974 120.337 150.526C119.898 150.069 119.338 149.84 118.657 149.84C117.975 149.84 117.411 150.069 116.963 150.526C116.524 150.974 116.305 151.557 116.305 152.276C116.305 152.995 116.524 153.583 116.963 154.04ZM121.457 155.006C120.71 155.743 119.777 156.112 118.657 156.112C117.537 156.112 116.603 155.743 115.857 155.006C115.11 154.259 114.737 153.349 114.737 152.276C114.737 151.203 115.11 150.297 115.857 149.56C116.603 148.813 117.537 148.44 118.657 148.44C119.777 148.44 120.71 148.813 121.457 149.56C122.203 150.297 122.577 151.203 122.577 152.276C122.577 153.349 122.203 154.259 121.457 155.006ZM129.767 152.584V148.552H131.335V156H129.767V154.642C129.515 155.099 129.165 155.459 128.717 155.72C128.279 155.981 127.803 156.112 127.289 156.112C126.449 156.112 125.768 155.855 125.245 155.342C124.732 154.829 124.475 154.087 124.475 153.116V148.552H126.043V152.64C126.043 154.012 126.613 154.698 127.751 154.698C128.293 154.698 128.764 154.521 129.165 154.166C129.567 153.802 129.767 153.275 129.767 152.584ZM141.338 156H139.546L136.97 148.552H138.594L140.442 154.18L142.29 148.552H143.914L145.762 154.18L147.61 148.552H149.234L146.658 156H144.866L143.102 150.904L141.338 156ZM152.462 154.04C152.91 154.488 153.474 154.712 154.156 154.712C154.837 154.712 155.397 154.488 155.836 154.04C156.284 153.583 156.508 152.995 156.508 152.276C156.508 151.557 156.284 150.974 155.836 150.526C155.397 150.069 154.837 149.84 154.156 149.84C153.474 149.84 152.91 150.069 152.462 150.526C152.023 150.974 151.804 151.557 151.804 152.276C151.804 152.995 152.023 153.583 152.462 154.04ZM156.956 155.006C156.209 155.743 155.276 156.112 154.156 156.112C153.036 156.112 152.102 155.743 151.356 155.006C150.609 154.259 150.236 153.349 150.236 152.276C150.236 151.203 150.609 150.297 151.356 149.56C152.102 148.813 153.036 148.44 154.156 148.44C155.276 148.44 156.209 148.813 156.956 149.56C157.702 150.297 158.076 151.203 158.076 152.276C158.076 153.349 157.702 154.259 156.956 155.006ZM163.965 150.022C163.19 150.022 162.607 150.274 162.215 150.778C161.823 151.282 161.627 151.959 161.627 152.808V156H160.059V148.552H161.627V150.05C161.879 149.583 162.219 149.201 162.649 148.902C163.087 148.603 163.549 148.449 164.035 148.44L164.049 150.022C164.021 150.022 163.993 150.022 163.965 150.022ZM167.391 156H165.823V145.612H167.391V151.716L170.415 148.552H172.431L169.603 151.506L172.641 156H170.737L168.525 152.738L167.391 153.886V156ZM174.242 155.804C174.046 155.599 173.948 155.351 173.948 155.062C173.948 154.773 174.046 154.53 174.242 154.334C174.447 154.129 174.695 154.026 174.984 154.026C175.273 154.026 175.521 154.129 175.726 154.334C175.931 154.53 176.034 154.773 176.034 155.062C176.034 155.351 175.931 155.599 175.726 155.804C175.521 156.009 175.273 156.112 174.984 156.112C174.695 156.112 174.447 156.009 174.242 155.804ZM182.547 146.214H184.199V156H182.547V146.214ZM188.707 149.812V153.592C188.707 153.947 188.801 154.231 188.987 154.446C189.174 154.651 189.435 154.754 189.771 154.754C190.107 154.754 190.429 154.591 190.737 154.264L191.381 155.37C190.831 155.865 190.219 156.112 189.547 156.112C188.885 156.112 188.315 155.883 187.839 155.426C187.373 154.959 187.139 154.334 187.139 153.55V149.812H186.201V148.552H187.139V146.214H188.707V148.552H190.667V149.812H188.707ZM192.771 149.658V146.214H193.863V149.658H192.771ZM201.587 153.774C201.587 154.483 201.33 155.053 200.817 155.482C200.304 155.902 199.646 156.112 198.843 156.112C198.302 156.112 197.737 156.014 197.149 155.818C196.57 155.622 196.057 155.347 195.609 154.992L196.365 153.774C197.233 154.427 198.073 154.754 198.885 154.754C199.24 154.754 199.52 154.675 199.725 154.516C199.93 154.348 200.033 154.138 200.033 153.886C200.033 153.513 199.538 153.177 198.549 152.878C198.474 152.85 198.418 152.831 198.381 152.822C196.832 152.402 196.057 151.702 196.057 150.722C196.057 150.031 196.323 149.481 196.855 149.07C197.396 148.65 198.096 148.44 198.955 148.44C199.814 148.44 200.626 148.692 201.391 149.196L200.803 150.358C200.196 149.957 199.538 149.756 198.829 149.756C198.456 149.756 198.152 149.826 197.919 149.966C197.686 150.097 197.569 150.297 197.569 150.568C197.569 150.811 197.69 150.988 197.933 151.1C198.101 151.184 198.334 151.263 198.633 151.338C198.941 151.413 199.212 151.487 199.445 151.562C199.678 151.637 199.902 151.721 200.117 151.814C200.341 151.907 200.579 152.038 200.831 152.206C201.335 152.542 201.587 153.065 201.587 153.774ZM209.341 154.04C209.789 154.488 210.353 154.712 211.035 154.712C211.716 154.712 212.276 154.488 212.715 154.04C213.163 153.583 213.387 152.995 213.387 152.276C213.387 151.557 213.163 150.974 212.715 150.526C212.276 150.069 211.716 149.84 211.035 149.84C210.353 149.84 209.789 150.069 209.341 150.526C208.902 150.974 208.683 151.557 208.683 152.276C208.683 152.995 208.902 153.583 209.341 154.04ZM213.835 155.006C213.088 155.743 212.155 156.112 211.035 156.112C209.915 156.112 208.981 155.743 208.235 155.006C207.488 154.259 207.115 153.349 207.115 152.276C207.115 151.203 207.488 150.297 208.235 149.56C208.981 148.813 209.915 148.44 211.035 148.44C212.155 148.44 213.088 148.813 213.835 149.56C214.581 150.297 214.955 151.203 214.955 152.276C214.955 153.349 214.581 154.259 213.835 155.006ZM218.506 151.968V156H216.938V148.552H218.506V149.91C218.758 149.453 219.103 149.093 219.542 148.832C219.99 148.571 220.47 148.44 220.984 148.44C221.824 148.44 222.5 148.697 223.014 149.21C223.536 149.723 223.798 150.465 223.798 151.436V156H222.23V151.912C222.23 150.54 221.66 149.854 220.522 149.854C219.98 149.854 219.509 150.036 219.108 150.4C218.706 150.755 218.506 151.277 218.506 151.968ZM227.756 156H226.188V145.612H227.756V156ZM231.168 158.968C230.487 158.968 229.871 158.721 229.32 158.226L230.034 156.952C230.361 157.26 230.697 157.414 231.042 157.414C231.397 157.414 231.681 157.288 231.896 157.036C232.12 156.784 232.232 156.509 232.232 156.21C232.232 156.079 231.229 153.527 229.222 148.552H230.902L233.128 154.04L235.354 148.552H237.034L233.422 157.4C233.207 157.885 232.899 158.268 232.498 158.548C232.097 158.828 231.653 158.968 231.168 158.968ZM248.545 156H247.117V155.006C246.501 155.743 245.675 156.112 244.639 156.112C243.864 156.112 243.22 155.893 242.707 155.454C242.203 155.015 241.951 154.432 241.951 153.704C241.951 152.967 242.222 152.416 242.763 152.052C243.304 151.688 244.037 151.506 244.961 151.506H246.991V151.226C246.991 150.237 246.44 149.742 245.339 149.742C244.648 149.742 243.93 149.994 243.183 150.498L242.483 149.518C243.388 148.799 244.415 148.44 245.563 148.44C246.44 148.44 247.154 148.664 247.705 149.112C248.265 149.551 248.545 150.246 248.545 151.198V156ZM246.977 153.228V152.598H245.213C244.084 152.598 243.519 152.953 243.519 153.662C243.519 154.026 243.659 154.306 243.939 154.502C244.219 154.689 244.606 154.782 245.101 154.782C245.605 154.782 246.044 154.642 246.417 154.362C246.79 154.082 246.977 153.704 246.977 153.228ZM28.202 176H26.634V165.612H28.202V171.716L31.226 168.552H33.242L30.414 171.506L33.452 176H31.548L29.336 172.738L28.202 173.886V176ZM41.8988 172.962H36.0608C36.0981 173.503 36.3454 173.942 36.8028 174.278C37.2601 174.605 37.7828 174.768 38.3708 174.768C39.3041 174.768 40.0134 174.474 40.4988 173.886L41.3948 174.866C40.5921 175.697 39.5468 176.112 38.2588 176.112C37.2134 176.112 36.3221 175.767 35.5848 175.076C34.8568 174.376 34.4928 173.443 34.4928 172.276C34.4928 171.1 34.8661 170.167 35.6128 169.476C36.3594 168.785 37.2368 168.44 38.2448 168.44C39.2621 168.44 40.1254 168.748 40.8348 169.364C41.5441 169.971 41.8988 170.811 41.8988 171.884V172.962ZM36.0608 171.73H40.3308C40.3308 171.105 40.1348 170.624 39.7428 170.288C39.3508 169.952 38.8654 169.784 38.2868 169.784C37.7174 169.784 37.2041 169.961 36.7468 170.316C36.2894 170.661 36.0608 171.133 36.0608 171.73ZM44.679 178.968C43.9977 178.968 43.3817 178.721 42.831 178.226L43.545 176.952C43.8717 177.26 44.2077 177.414 44.553 177.414C44.9077 177.414 45.1924 177.288 45.407 177.036C45.631 176.784 45.743 176.509 45.743 176.21C45.743 176.079 44.7397 173.527 42.733 168.552H44.413L46.639 174.04L48.865 168.552H50.545L46.933 177.4C46.7184 177.885 46.4104 178.268 46.009 178.548C45.6077 178.828 45.1644 178.968 44.679 178.968ZM57.2041 173.774C57.2041 174.483 56.9474 175.053 56.4341 175.482C55.9207 175.902 55.2627 176.112 54.4601 176.112C53.9187 176.112 53.3541 176.014 52.7661 175.818C52.1874 175.622 51.6741 175.347 51.2261 174.992L51.9821 173.774C52.8501 174.427 53.6901 174.754 54.5021 174.754C54.8567 174.754 55.1367 174.675 55.3421 174.516C55.5474 174.348 55.6501 174.138 55.6501 173.886C55.6501 173.513 55.1554 173.177 54.1661 172.878C54.0914 172.85 54.0354 172.831 53.9981 172.822C52.4487 172.402 51.6741 171.702 51.6741 170.722C51.6741 170.031 51.9401 169.481 52.4721 169.07C53.0134 168.65 53.7134 168.44 54.5721 168.44C55.4307 168.44 56.2427 168.692 57.0081 169.196L56.4201 170.358C55.8134 169.957 55.1554 169.756 54.4461 169.756C54.0727 169.756 53.7694 169.826 53.5361 169.966C53.3027 170.097 53.1861 170.297 53.1861 170.568C53.1861 170.811 53.3074 170.988 53.5501 171.1C53.7181 171.184 53.9514 171.263 54.2501 171.338C54.5581 171.413 54.8287 171.487 55.0621 171.562C55.2954 171.637 55.5194 171.721 55.7341 171.814C55.9581 171.907 56.1961 172.038 56.4481 172.206C56.9521 172.542 57.2041 173.065 57.2041 173.774ZM61.1121 169.812V173.592C61.1121 173.947 61.2054 174.231 61.3921 174.446C61.5788 174.651 61.8401 174.754 62.1761 174.754C62.5121 174.754 62.8341 174.591 63.1421 174.264L63.7861 175.37C63.2354 175.865 62.6241 176.112 61.9521 176.112C61.2894 176.112 60.7201 175.883 60.2441 175.426C59.7774 174.959 59.5441 174.334 59.5441 173.55V169.812H58.6061V168.552H59.5441V166.214H61.1121V168.552H63.0721V169.812H61.1121ZM69.1377 170.022C68.363 170.022 67.7797 170.274 67.3877 170.778C66.9957 171.282 66.7997 171.959 66.7997 172.808V176H65.2317V168.552H66.7997V170.05C67.0517 169.583 67.3923 169.201 67.8217 168.902C68.2603 168.603 68.7223 168.449 69.2077 168.44L69.2217 170.022C69.1937 170.022 69.1657 170.022 69.1377 170.022ZM72.5954 174.04C73.0434 174.488 73.6081 174.712 74.2894 174.712C74.9707 174.712 75.5307 174.488 75.9694 174.04C76.4174 173.583 76.6414 172.995 76.6414 172.276C76.6414 171.557 76.4174 170.974 75.9694 170.526C75.5307 170.069 74.9707 169.84 74.2894 169.84C73.6081 169.84 73.0434 170.069 72.5954 170.526C72.1567 170.974 71.9374 171.557 71.9374 172.276C71.9374 172.995 72.1567 173.583 72.5954 174.04ZM77.0894 175.006C76.3427 175.743 75.4094 176.112 74.2894 176.112C73.1694 176.112 72.2361 175.743 71.4894 175.006C70.7427 174.259 70.3694 173.349 70.3694 172.276C70.3694 171.203 70.7427 170.297 71.4894 169.56C72.2361 168.813 73.1694 168.44 74.2894 168.44C75.4094 168.44 76.3427 168.813 77.0894 169.56C77.8361 170.297 78.2094 171.203 78.2094 172.276C78.2094 173.349 77.8361 174.259 77.0894 175.006ZM81.7602 176H80.1922V165.612H81.7602V171.716L84.7842 168.552H86.8002L83.9722 171.506L87.0102 176H85.1062L82.8942 172.738L81.7602 173.886V176ZM95.457 172.962H89.619C89.6563 173.503 89.9036 173.942 90.361 174.278C90.8183 174.605 91.341 174.768 91.929 174.768C92.8623 174.768 93.5716 174.474 94.057 173.886L94.953 174.866C94.1503 175.697 93.105 176.112 91.817 176.112C90.7716 176.112 89.8803 175.767 89.143 175.076C88.415 174.376 88.051 173.443 88.051 172.276C88.051 171.1 88.4243 170.167 89.171 169.476C89.9176 168.785 90.795 168.44 91.803 168.44C92.8203 168.44 93.6836 168.748 94.393 169.364C95.1023 169.971 95.457 170.811 95.457 171.884V172.962ZM89.619 171.73H93.889C93.889 171.105 93.693 170.624 93.301 170.288C92.909 169.952 92.4236 169.784 91.845 169.784C91.2756 169.784 90.7623 169.961 90.305 170.316C89.8476 170.661 89.619 171.133 89.619 171.73ZM107.457 176H106.029V175.006C105.413 175.743 104.587 176.112 103.551 176.112C102.776 176.112 102.132 175.893 101.619 175.454C101.115 175.015 100.863 174.432 100.863 173.704C100.863 172.967 101.134 172.416 101.675 172.052C102.216 171.688 102.949 171.506 103.873 171.506H105.903V171.226C105.903 170.237 105.352 169.742 104.251 169.742C103.56 169.742 102.842 169.994 102.095 170.498L101.395 169.518C102.3 168.799 103.327 168.44 104.475 168.44C105.352 168.44 106.066 168.664 106.617 169.112C107.177 169.551 107.457 170.246 107.457 171.198V176ZM105.889 173.228V172.598H104.125C102.996 172.598 102.431 172.953 102.431 173.662C102.431 174.026 102.571 174.306 102.851 174.502C103.131 174.689 103.518 174.782 104.013 174.782C104.517 174.782 104.956 174.642 105.329 174.362C105.702 174.082 105.889 173.704 105.889 173.228ZM113.257 176H111.465L108.889 168.552H110.513L112.361 174.18L114.209 168.552H115.833L117.681 174.18L119.529 168.552H121.153L118.577 176H116.785L115.021 170.904L113.257 176ZM128.707 176H127.279V175.006C126.663 175.743 125.837 176.112 124.801 176.112C124.026 176.112 123.382 175.893 122.869 175.454C122.365 175.015 122.113 174.432 122.113 173.704C122.113 172.967 122.383 172.416 122.925 172.052C123.466 171.688 124.199 171.506 125.123 171.506H127.153V171.226C127.153 170.237 126.602 169.742 125.501 169.742C124.81 169.742 124.091 169.994 123.345 170.498L122.645 169.518C123.55 168.799 124.577 168.44 125.725 168.44C126.602 168.44 127.316 168.664 127.867 169.112C128.427 169.551 128.707 170.246 128.707 171.198V176ZM127.139 173.228V172.598H125.375C124.245 172.598 123.681 172.953 123.681 173.662C123.681 174.026 123.821 174.306 124.101 174.502C124.381 174.689 124.768 174.782 125.263 174.782C125.767 174.782 126.205 174.642 126.579 174.362C126.952 174.082 127.139 173.704 127.139 173.228ZM131.945 178.968C131.264 178.968 130.648 178.721 130.097 178.226L130.811 176.952C131.138 177.26 131.474 177.414 131.819 177.414C132.174 177.414 132.459 177.288 132.673 177.036C132.897 176.784 133.009 176.509 133.009 176.21C133.009 176.079 132.006 173.527 129.999 168.552H131.679L133.905 174.04L136.131 168.552H137.811L134.199 177.4C133.985 177.885 133.677 178.268 133.275 178.548C132.874 178.828 132.431 178.968 131.945 178.968ZM138.825 175.804C138.629 175.599 138.531 175.351 138.531 175.062C138.531 174.773 138.629 174.53 138.825 174.334C139.03 174.129 139.277 174.026 139.567 174.026C139.856 174.026 140.103 174.129 140.309 174.334C140.514 174.53 140.617 174.773 140.617 175.062C140.617 175.351 140.514 175.599 140.309 175.804C140.103 176.009 139.856 176.112 139.567 176.112C139.277 176.112 139.03 176.009 138.825 175.804Z" fill="#737373"/>
<g clip-path="url(#clip1_5493_308)">
<g clip-path="url(#clip2_5493_308)">
<g clip-path="url(#clip3_5493_308)">
<path d="M33.4993 220.667C30.2038 220.623 27.5428 217.962 27.4993 214.667C27.5428 211.371 30.2038 208.71 33.4993 208.667C36.7949 208.71 39.4559 211.371 39.4993 214.667C39.4559 217.962 36.7949 220.623 33.4993 220.667ZM33.4993 210C30.9361 210.034 28.8664 212.103 28.8327 214.667C28.8664 217.23 30.9361 219.3 33.4993 219.333C36.0626 219.3 38.1323 217.23 38.166 214.667C38.1323 212.103 36.0626 210.034 33.4993 210ZM36.8327 215.333H32.8327V211.333H34.166V214H36.8327V215.333ZM39.0273 210.472L37.0213 208.472L37.9607 207.527L39.9673 209.527L39.0273 210.471V210.472ZM27.9707 210.472L27.0273 209.527L29.0213 207.527L29.9647 208.472L27.972 210.472H27.9707Z" fill="#23A6F0"/>
</g>
<path d="M49.74 214.244C50.308 213.668 50.712 213.216 50.952 212.888C51.192 212.56 51.312 212.228 51.312 211.892C51.312 211.556 51.184 211.272 50.928 211.04C50.672 210.8 50.348 210.68 49.956 210.68C49.268 210.68 48.696 211.032 48.24 211.736L47.1 211.076C47.468 210.524 47.872 210.108 48.312 209.828C48.76 209.548 49.332 209.408 50.028 209.408C50.732 209.408 51.348 209.632 51.876 210.08C52.404 210.52 52.668 211.124 52.668 211.892C52.668 212.324 52.556 212.736 52.332 213.128C52.108 213.52 51.696 214.024 51.096 214.64L49.128 216.644H52.932V218H47.196V216.8L49.74 214.244ZM57.0064 214.244C57.5744 213.668 57.9784 213.216 58.2184 212.888C58.4584 212.56 58.5784 212.228 58.5784 211.892C58.5784 211.556 58.4504 211.272 58.1944 211.04C57.9384 210.8 57.6144 210.68 57.2224 210.68C56.5344 210.68 55.9624 211.032 55.5064 211.736L54.3664 211.076C54.7344 210.524 55.1384 210.108 55.5784 209.828C56.0264 209.548 56.5984 209.408 57.2944 209.408C57.9984 209.408 58.6144 209.632 59.1424 210.08C59.6704 210.52 59.9344 211.124 59.9344 211.892C59.9344 212.324 59.8224 212.736 59.5984 213.128C59.3744 213.52 58.9624 214.024 58.3624 214.64L56.3944 216.644H60.1984V218H54.4624V216.8L57.0064 214.244ZM66.8778 216.092L66.0378 218H64.5258L68.2218 209.612H69.7338L73.4298 218H71.9178L71.0778 216.092H66.8778ZM70.5018 214.784L68.9778 211.328L67.4538 214.784H70.5018ZM78.024 211.52C78.88 211.52 79.612 211.816 80.22 212.408C80.828 213 81.132 213.788 81.132 214.772C81.132 215.756 80.828 216.556 80.22 217.172C79.62 217.788 78.916 218.096 78.108 218.096C77.308 218.096 76.588 217.744 75.948 217.04V220.328H74.604V211.616H75.948V212.732C76.476 211.924 77.168 211.52 78.024 211.52ZM75.924 214.82C75.924 215.428 76.108 215.928 76.476 216.32C76.844 216.704 77.292 216.896 77.82 216.896C78.348 216.896 78.808 216.704 79.2 216.32C79.592 215.936 79.788 215.44 79.788 214.832C79.788 214.216 79.596 213.708 79.212 213.308C78.828 212.9 78.368 212.696 77.832 212.696C77.296 212.696 76.844 212.9 76.476 213.308C76.108 213.708 75.924 214.212 75.924 214.82ZM86.2145 212.876C85.5505 212.876 85.0505 213.092 84.7145 213.524C84.3785 213.956 84.2105 214.536 84.2105 215.264V218H82.8665V211.616H84.2105V212.9C84.4265 212.5 84.7185 212.172 85.0865 211.916C85.4625 211.66 85.8585 211.528 86.2745 211.52L86.2865 212.876C86.2625 212.876 86.2385 212.876 86.2145 212.876ZM89.1801 218H87.8361V211.616H89.1801V218ZM87.9201 210.344C87.7521 210.176 87.6681 209.976 87.6681 209.744C87.6681 209.512 87.7521 209.312 87.9201 209.144C88.0881 208.976 88.2881 208.892 88.5201 208.892C88.7521 208.892 88.9521 208.976 89.1201 209.144C89.2881 209.312 89.3721 209.512 89.3721 209.744C89.3721 209.976 89.2881 210.176 89.1201 210.344C88.9521 210.512 88.7521 210.596 88.5201 210.596C88.2881 210.596 88.0881 210.512 87.9201 210.344ZM92.673 218H91.329V209.096H92.673V218ZM100.583 214.244C101.151 213.668 101.555 213.216 101.795 212.888C102.035 212.56 102.155 212.228 102.155 211.892C102.155 211.556 102.027 211.272 101.771 211.04C101.515 210.8 101.191 210.68 100.799 210.68C100.111 210.68 99.539 211.032 99.083 211.736L97.943 211.076C98.311 210.524 98.715 210.108 99.155 209.828C99.603 209.548 100.175 209.408 100.871 209.408C101.575 209.408 102.191 209.632 102.719 210.08C103.247 210.52 103.511 211.124 103.511 211.892C103.511 212.324 103.399 212.736 103.175 213.128C102.951 213.52 102.539 214.024 101.939 214.64L99.971 216.644H103.775V218H98.039V216.8L100.583 214.244ZM107.177 211.484C106.849 212.06 106.685 212.816 106.685 213.752C106.685 214.688 106.849 215.444 107.177 216.02C107.513 216.596 108.033 216.884 108.737 216.884C109.441 216.884 109.953 216.6 110.273 216.032C110.601 215.456 110.765 214.696 110.765 213.752C110.765 212.808 110.601 212.052 110.273 211.484C109.953 210.908 109.441 210.62 108.737 210.62C108.033 210.62 107.513 210.908 107.177 211.484ZM106.169 216.92C105.601 216.128 105.317 215.072 105.317 213.752C105.317 212.432 105.601 211.38 106.169 210.596C106.737 209.804 107.593 209.408 108.737 209.408C109.881 209.408 110.737 209.804 111.305 210.596C111.873 211.38 112.157 212.432 112.157 213.752C112.157 215.072 111.873 216.128 111.305 216.92C110.737 217.704 109.881 218.096 108.737 218.096C107.593 218.096 106.737 217.704 106.169 216.92ZM116.311 214.244C116.879 213.668 117.283 213.216 117.523 212.888C117.763 212.56 117.883 212.228 117.883 211.892C117.883 211.556 117.755 211.272 117.499 211.04C117.243 210.8 116.919 210.68 116.527 210.68C115.839 210.68 115.267 211.032 114.811 211.736L113.671 211.076C114.039 210.524 114.443 210.108 114.883 209.828C115.331 209.548 115.903 209.408 116.599 209.408C117.303 209.408 117.919 209.632 118.447 210.08C118.975 210.52 119.239 211.124 119.239 211.892C119.239 212.324 119.127 212.736 118.903 213.128C118.679 213.52 118.267 214.024 117.667 214.64L115.699 216.644H119.503V218H113.767V216.8L116.311 214.244ZM120.686 209.612H123.734V218H122.39V210.872H120.686V209.612Z" fill="#737373"/>
</g>
<g clip-path="url(#clip4_5493_308)">
<g clip-path="url(#clip5_5493_308)">
<path d="M216.333 219.833H202V206.833C202 206.742 201.925 206.667 201.833 206.667H200.667C200.575 206.667 200.5 206.742 200.5 206.833V221.167C200.5 221.258 200.575 221.333 200.667 221.333H216.333C216.425 221.333 216.5 221.258 216.5 221.167V220C216.5 219.908 216.425 219.833 216.333 219.833ZM203.5 218.5H214.667C214.758 218.5 214.833 218.425 214.833 218.333V209.25C214.833 209.1 214.652 209.027 214.548 209.131L210.167 213.512L207.554 210.929C207.523 210.898 207.481 210.881 207.436 210.881C207.392 210.881 207.35 210.898 207.319 210.929L203.381 214.879C203.366 214.894 203.354 214.913 203.346 214.933C203.337 214.953 203.333 214.974 203.333 214.996V218.333C203.333 218.425 203.408 218.5 203.5 218.5Z" fill="#23856D"/>
</g>
<path d="M221.848 209.612H224.896V218H223.552V210.872H221.848V209.612ZM228.838 211.484C228.51 212.06 228.346 212.816 228.346 213.752C228.346 214.688 228.51 215.444 228.838 216.02C229.174 216.596 229.694 216.884 230.398 216.884C231.102 216.884 231.614 216.6 231.934 216.032C232.262 215.456 232.426 214.696 232.426 213.752C232.426 212.808 232.262 212.052 231.934 211.484C231.614 210.908 231.102 210.62 230.398 210.62C229.694 210.62 229.174 210.908 228.838 211.484ZM227.83 216.92C227.262 216.128 226.978 215.072 226.978 213.752C226.978 212.432 227.262 211.38 227.83 210.596C228.398 209.804 229.254 209.408 230.398 209.408C231.542 209.408 232.398 209.804 232.966 210.596C233.534 211.38 233.818 212.432 233.818 213.752C233.818 215.072 233.534 216.128 232.966 216.92C232.398 217.704 231.542 218.096 230.398 218.096C229.254 218.096 228.398 217.704 227.83 216.92ZM242.029 218.096C241.141 218.096 240.377 217.796 239.737 217.196C239.097 216.588 238.777 215.796 238.777 214.82C238.777 213.844 239.109 213.052 239.773 212.444C240.445 211.828 241.261 211.52 242.221 211.52C243.181 211.52 243.993 211.852 244.657 212.516L243.865 213.488C243.313 213.008 242.757 212.768 242.197 212.768C241.637 212.768 241.149 212.956 240.733 213.332C240.325 213.7 240.121 214.18 240.121 214.772C240.121 215.356 240.325 215.852 240.733 216.26C241.141 216.668 241.641 216.872 242.233 216.872C242.833 216.872 243.397 216.6 243.925 216.056L244.717 216.92C243.941 217.704 243.045 218.096 242.029 218.096ZM247.67 216.32C248.054 216.704 248.538 216.896 249.122 216.896C249.706 216.896 250.186 216.704 250.562 216.32C250.946 215.928 251.138 215.424 251.138 214.808C251.138 214.192 250.946 213.692 250.562 213.308C250.186 212.916 249.706 212.72 249.122 212.72C248.538 212.72 248.054 212.916 247.67 213.308C247.294 213.692 247.106 214.192 247.106 214.808C247.106 215.424 247.294 215.928 247.67 216.32ZM251.522 217.148C250.882 217.78 250.082 218.096 249.122 218.096C248.162 218.096 247.362 217.78 246.722 217.148C246.082 216.508 245.762 215.728 245.762 214.808C245.762 213.888 246.082 213.112 246.722 212.48C247.362 211.84 248.162 211.52 249.122 211.52C250.082 211.52 250.882 211.84 251.522 212.48C252.162 213.112 252.482 213.888 252.482 214.808C252.482 215.728 252.162 216.508 251.522 217.148ZM255.554 214.544V218H254.21V211.616H255.554V212.78C255.746 212.388 256.034 212.08 256.418 211.856C256.81 211.632 257.23 211.52 257.678 211.52C258.686 211.52 259.37 211.936 259.73 212.768C260.362 211.936 261.15 211.52 262.094 211.52C262.814 211.52 263.394 211.74 263.834 212.18C264.282 212.62 264.506 213.256 264.506 214.088V218H263.162V214.496C263.162 213.32 262.674 212.732 261.698 212.732C261.242 212.732 260.842 212.88 260.498 213.176C260.162 213.464 259.986 213.888 259.97 214.448V218H258.626V214.496C258.626 213.888 258.518 213.444 258.302 213.164C258.086 212.876 257.746 212.732 257.282 212.732C256.818 212.732 256.414 212.888 256.07 213.2C255.726 213.504 255.554 213.952 255.554 214.544ZM267.918 214.544V218H266.574V211.616H267.918V212.78C268.11 212.388 268.398 212.08 268.782 211.856C269.174 211.632 269.594 211.52 270.042 211.52C271.05 211.52 271.734 211.936 272.094 212.768C272.726 211.936 273.514 211.52 274.458 211.52C275.178 211.52 275.758 211.74 276.198 212.18C276.646 212.62 276.87 213.256 276.87 214.088V218H275.526V214.496C275.526 213.32 275.038 212.732 274.062 212.732C273.606 212.732 273.206 212.88 272.862 213.176C272.526 213.464 272.35 213.888 272.334 214.448V218H270.99V214.496C270.99 213.888 270.882 213.444 270.666 213.164C270.45 212.876 270.11 212.732 269.646 212.732C269.182 212.732 268.778 212.888 268.434 213.2C268.09 213.504 267.918 213.952 267.918 214.544ZM284.878 215.396H279.874C279.906 215.86 280.118 216.236 280.51 216.524C280.902 216.804 281.35 216.944 281.854 216.944C282.654 216.944 283.262 216.692 283.678 216.188L284.446 217.028C283.758 217.74 282.862 218.096 281.758 218.096C280.862 218.096 280.098 217.8 279.466 217.208C278.842 216.608 278.53 215.808 278.53 214.808C278.53 213.8 278.85 213 279.49 212.408C280.13 211.816 280.882 211.52 281.746 211.52C282.618 211.52 283.358 211.784 283.966 212.312C284.574 212.832 284.878 213.552 284.878 214.472V215.396ZM279.874 214.34H283.534C283.534 213.804 283.366 213.392 283.03 213.104C282.694 212.816 282.278 212.672 281.782 212.672C281.294 212.672 280.854 212.824 280.462 213.128C280.07 213.424 279.874 213.828 279.874 214.34ZM287.9 214.544V218H286.556V211.616H287.9V212.78C288.116 212.388 288.412 212.08 288.788 211.856C289.172 211.632 289.584 211.52 290.024 211.52C290.744 211.52 291.324 211.74 291.764 212.18C292.212 212.62 292.436 213.256 292.436 214.088V218H291.092V214.496C291.092 213.32 290.604 212.732 289.628 212.732C289.164 212.732 288.76 212.888 288.416 213.2C288.072 213.504 287.9 213.952 287.9 214.544ZM296.088 212.696V215.936C296.088 216.24 296.168 216.484 296.328 216.668C296.488 216.844 296.712 216.932 297 216.932C297.288 216.932 297.564 216.792 297.828 216.512L298.38 217.46C297.908 217.884 297.384 218.096 296.808 218.096C296.24 218.096 295.752 217.9 295.344 217.508C294.944 217.108 294.744 216.572 294.744 215.9V212.696H293.94V211.616H294.744V209.612H296.088V211.616H297.768V212.696H296.088ZM304.196 216.092C304.196 216.7 303.976 217.188 303.536 217.556C303.096 217.916 302.532 218.096 301.844 218.096C301.38 218.096 300.896 218.012 300.392 217.844C299.896 217.676 299.456 217.44 299.072 217.136L299.72 216.092C300.464 216.652 301.184 216.932 301.88 216.932C302.184 216.932 302.424 216.864 302.6 216.728C302.776 216.584 302.864 216.404 302.864 216.188C302.864 215.868 302.44 215.58 301.592 215.324C301.528 215.3 301.48 215.284 301.448 215.276C300.12 214.916 299.456 214.316 299.456 213.476C299.456 212.884 299.684 212.412 300.14 212.06C300.604 211.7 301.204 211.52 301.94 211.52C302.676 211.52 303.372 211.736 304.028 212.168L303.524 213.164C303.004 212.82 302.44 212.648 301.832 212.648C301.512 212.648 301.252 212.708 301.052 212.828C300.852 212.94 300.752 213.112 300.752 213.344C300.752 213.552 300.856 213.704 301.064 213.8C301.208 213.872 301.408 213.94 301.664 214.004C301.928 214.068 302.16 214.132 302.36 214.196C302.56 214.26 302.752 214.332 302.936 214.412C303.128 214.492 303.332 214.604 303.548 214.748C303.98 215.036 304.196 215.484 304.196 216.092Z" fill="#737373"/>
</g>
</g>
<g clip-path="url(#clip6_5493_308)">
<path d="M26.704 264V254.214H28.888V262.054H33.06V264H26.704ZM41.175 262.908C40.3257 263.711 39.327 264.112 38.179 264.112C37.0404 264.112 36.0977 263.762 35.351 263.062C34.6044 262.353 34.231 261.405 34.231 260.22C34.231 259.035 34.609 258.092 35.365 257.392C36.1304 256.692 37.031 256.342 38.067 256.342C39.103 256.342 39.9804 256.655 40.699 257.28C41.427 257.905 41.791 258.764 41.791 259.856V260.976H36.303C36.3684 261.387 36.583 261.723 36.947 261.984C37.311 262.245 37.7217 262.376 38.179 262.376C38.9164 262.376 39.523 262.129 39.999 261.634L41.175 262.908ZM39.663 259.478C39.6164 259.03 39.4484 258.685 39.159 258.442C38.8697 258.199 38.515 258.078 38.095 258.078C37.6844 258.078 37.3064 258.204 36.961 258.456C36.6157 258.708 36.415 259.049 36.359 259.478H39.663ZM49.9033 264H47.9293V263.09C47.388 263.771 46.716 264.112 45.9133 264.112C45.12 264.112 44.4527 263.883 43.9113 263.426C43.37 262.959 43.0993 262.343 43.0993 261.578C43.0993 260.803 43.3793 260.225 43.9393 259.842C44.4993 259.459 45.2647 259.268 46.2353 259.268H47.8033V259.226C47.8033 258.423 47.3787 258.022 46.5293 258.022C46.1653 258.022 45.778 258.097 45.3673 258.246C44.966 258.386 44.6253 258.563 44.3453 258.778L43.4073 257.42C44.3967 256.701 45.526 256.342 46.7953 256.342C47.71 256.342 48.4567 256.571 49.0353 257.028C49.614 257.485 49.9033 258.209 49.9033 259.198V264ZM47.7893 261.13V260.766H46.4733C45.6333 260.766 45.2133 261.027 45.2133 261.55C45.2133 261.821 45.3113 262.031 45.5073 262.18C45.7127 262.32 46.002 262.39 46.3753 262.39C46.7487 262.39 47.0753 262.278 47.3553 262.054C47.6447 261.821 47.7893 261.513 47.7893 261.13ZM55.9798 258.316C55.3545 258.316 54.8878 258.54 54.5798 258.988C54.2718 259.427 54.1178 260.01 54.1178 260.738V264H52.0178V256.468H54.1178V257.462C54.3885 257.154 54.7245 256.893 55.1258 256.678C55.5365 256.463 55.9518 256.351 56.3718 256.342L56.3858 258.316H55.9798ZM60.0737 259.8V264H57.9737V256.468H60.0737V257.308C60.7084 256.664 61.4224 256.342 62.2157 256.342C63.009 256.342 63.6717 256.622 64.2037 257.182C64.745 257.742 65.0157 258.489 65.0157 259.422V264H62.9157V259.744C62.9157 258.587 62.491 258.008 61.6417 258.008C61.2217 258.008 60.853 258.162 60.5357 258.47C60.2277 258.769 60.0737 259.212 60.0737 259.8ZM79.9805 257.84L77.3345 263.188H76.0325L73.4005 257.84V264H71.2165V254.214H74.1705L76.6905 259.59L79.2245 254.214H82.1645V264H79.9805V257.84ZM86.2439 260.234C86.2439 260.85 86.4166 261.354 86.7619 261.746C87.1166 262.129 87.5646 262.32 88.1059 262.32C88.6566 262.32 89.1046 262.129 89.4499 261.746C89.8046 261.354 89.9819 260.85 89.9819 260.234C89.9819 259.618 89.8046 259.114 89.4499 258.722C89.1046 258.33 88.6566 258.134 88.1059 258.134C87.5646 258.134 87.1166 258.33 86.7619 258.722C86.4166 259.114 86.2439 259.618 86.2439 260.234ZM92.0959 260.234C92.0959 261.326 91.7179 262.245 90.9619 262.992C90.2059 263.739 89.2539 264.112 88.1059 264.112C86.9673 264.112 86.0199 263.739 85.2639 262.992C84.5079 262.245 84.1299 261.326 84.1299 260.234C84.1299 259.142 84.5079 258.223 85.2639 257.476C86.0199 256.72 86.9673 256.342 88.1059 256.342C89.2539 256.342 90.2059 256.72 90.9619 257.476C91.7179 258.223 92.0959 259.142 92.0959 260.234ZM97.8177 258.316C97.1924 258.316 96.7257 258.54 96.4177 258.988C96.1097 259.427 95.9557 260.01 95.9557 260.738V264H93.8557V256.468H95.9557V257.462C96.2264 257.154 96.5624 256.893 96.9637 256.678C97.3744 256.463 97.7897 256.351 98.2097 256.342L98.2237 258.316H97.8177ZM106.336 262.908C105.486 263.711 104.488 264.112 103.34 264.112C102.201 264.112 101.258 263.762 100.512 263.062C99.7649 262.353 99.3916 261.405 99.3916 260.22C99.3916 259.035 99.7696 258.092 100.526 257.392C101.291 256.692 102.192 256.342 103.228 256.342C104.264 256.342 105.141 256.655 105.86 257.28C106.588 257.905 106.952 258.764 106.952 259.856V260.976H101.464C101.529 261.387 101.744 261.723 102.108 261.984C102.472 262.245 102.882 262.376 103.34 262.376C104.077 262.376 104.684 262.129 105.16 261.634L106.336 262.908ZM104.824 259.478C104.777 259.03 104.609 258.685 104.32 258.442C104.03 258.199 103.676 258.078 103.256 258.078C102.845 258.078 102.467 258.204 102.122 258.456C101.776 258.708 101.576 259.049 101.52 259.478H104.824Z" fill="#737373"/>
<g clip-path="url(#clip7_5493_308)">
<path fill-rule="evenodd" clip-rule="evenodd" d="M117.681 251.181C117.738 251.123 117.806 251.078 117.881 251.047C117.955 251.016 118.035 251 118.116 251C118.197 251 118.277 251.016 118.352 251.047C118.427 251.078 118.495 251.123 118.552 251.181L125.936 258.565C125.993 258.622 126.039 258.69 126.07 258.764C126.101 258.839 126.117 258.919 126.117 259C126.117 259.081 126.101 259.161 126.07 259.236C126.039 259.311 125.993 259.379 125.936 259.436L118.552 266.82C118.437 266.935 118.28 267 118.116 267C117.953 267 117.796 266.935 117.681 266.82C117.565 266.704 117.5 266.547 117.5 266.384C117.5 266.221 117.565 266.064 117.681 265.948L124.63 259L117.681 252.052C117.623 251.995 117.578 251.927 117.547 251.852C117.516 251.777 117.5 251.697 117.5 251.616C117.5 251.535 117.516 251.455 117.547 251.381C117.578 251.306 117.623 251.238 117.681 251.181Z" fill="#23A6F0"/>
</g>
</g>
<defs>
<clipPath id="clip0_5493_308">
<rect width="160" height="16" fill="white" transform="translate(25.5 25)"/>
</clipPath>
<clipPath id="clip1_5493_308">
<rect width="280" height="46" fill="white" transform="translate(25.5 191)"/>
</clipPath>
<clipPath id="clip2_5493_308">
<rect width="100" height="16" fill="white" transform="translate(25.5 206)"/>
</clipPath>
<clipPath id="clip3_5493_308">
<rect width="16" height="16" fill="white" transform="translate(25.5 206)"/>
</clipPath>
<clipPath id="clip4_5493_308">
<rect width="105" height="16" fill="white" transform="translate(200.5 206)"/>
</clipPath>
<clipPath id="clip5_5493_308">
<rect width="16" height="14.6667" fill="white" transform="translate(200.5 206.667)"/>
</clipPath>
<clipPath id="clip6_5493_308">
<rect width="101" height="24" fill="white" transform="translate(25.5 247)"/>
</clipPath>
<clipPath id="clip7_5493_308">
<rect width="9" height="16" fill="white" transform="translate(117.5 251)"/>
</clipPath>
</defs>
</svg>
